<?xml version="1.0" encoding="UTF-8" standalone="no"?>
<!DOCTYPE svg PUBLIC "-//W3C//DTD SVG 1.1//EN"
 "http://www.w3.org/Graphics/SVG/1.1/DTD/svg11.dtd">
<!-- Generated by graphviz version 2.38.0 (20140413.2041)
 -->
<!-- Title: controllers_diagram Pages: 1 -->
<svg width="800pt" height="797pt"
 viewBox="0.00 0.00 799.96 797.00" xmlns="http://www.w3.org/2000/svg" xmlns:xlink="http://www.w3.org/1999/xlink">
<g id="graph0" class="graph" transform="scale(1 1) rotate(0) translate(345.99 451.5)">
<title>controllers_diagram</title>
<polygon fill="white" stroke="none" points="-345.99,345.5 -345.99,-451.5 453.966,-451.5 453.966,345.5 -345.99,345.5"/>
<!-- _diagram_info -->
<g id="node1" class="node"><title>_diagram_info</title>
<text text-anchor="start" x="-135.688" y="156.9" font-family="Times,serif" font-size="13.00">Controllers diagram</text>
<text text-anchor="start" x="-135.688" y="169.9" font-family="Times,serif" font-size="13.00">Date: May 28 2015 &#45; 15:11</text>
<text text-anchor="start" x="-135.688" y="182.9" font-family="Times,serif" font-size="13.00">Migration version: 20150418105322</text>
<text text-anchor="start" x="-135.688" y="195.9" font-family="Times,serif" font-size="13.00">Generated by RailRoady 1.3.0</text>
<text text-anchor="start" x="-135.688" y="208.9" font-family="Times,serif" font-size="13.00">http://railroady.prestonlee.com</text>
</g>
<!-- ApplicationController -->
<g id="node2" class="node"><title>ApplicationController</title>
<path fill="none" stroke="black" d="M264.034,17C264.034,17 437.966,17 437.966,17 443.966,17 449.966,11 449.966,5 449.966,5 449.966,-101 449.966,-101 449.966,-107 443.966,-113 437.966,-113 437.966,-113 264.034,-113 264.034,-113 258.034,-113 252.034,-107 252.034,-101 252.034,-101 252.034,5 252.034,5 252.034,11 258.034,17 264.034,17"/>
<text text-anchor="middle" x="351" y="-97.8" font-family="Times,serif" font-size="14.00">ApplicationController</text>
<polyline fill="none" stroke="black" points="252.034,-91 449.966,-91 "/>
<text text-anchor="start" x="260.034" y="-75.8" font-family="Times,serif" font-size="14.00">redirect_back_or</text>
<polyline fill="none" stroke="black" points="252.034,-69 449.966,-69 "/>
<text text-anchor="start" x="260.034" y="-53.8" font-family="Times,serif" font-size="14.00">configure_permitted_parameters</text>
<text text-anchor="start" x="260.034" y="-39.8" font-family="Times,serif" font-size="14.00">default_url_options</text>
<text text-anchor="start" x="260.034" y="-25.8" font-family="Times,serif" font-size="14.00">set_i18n_locale_from_params</text>
<polyline fill="none" stroke="black" points="252.034,-19 449.966,-19 "/>
<text text-anchor="start" x="260.034" y="-3.8" font-family="Times,serif" font-size="14.00">_layout</text>
<text text-anchor="start" x="260.034" y="10.2" font-family="Times,serif" font-size="14.00">verify_is_admin</text>
</g>
<!-- ConversationsController -->
<g id="node3" class="node"><title>ConversationsController</title>
<path fill="none" stroke="black" d="M-77.8242,107C-77.8242,107 51.8242,107 51.8242,107 57.8242,107 63.8242,101 63.8242,95 63.8242,95 63.8242,-97 63.8242,-97 63.8242,-103 57.8242,-109 51.8242,-109 51.8242,-109 -77.8242,-109 -77.8242,-109 -83.8242,-109 -89.8242,-103 -89.8242,-97 -89.8242,-97 -89.8242,95 -89.8242,95 -89.8242,101 -83.8242,107 -77.8242,107"/>
<text text-anchor="middle" x="-13" y="-93.8" font-family="Times,serif" font-size="14.00">ConversationsController</text>
<polyline fill="none" stroke="black" points="-89.8242,-87 63.8242,-87 "/>
<text text-anchor="start" x="-81.8242" y="-71.8" font-family="Times,serif" font-size="14.00">destroy</text>
<text text-anchor="start" x="-81.8242" y="-57.8" font-family="Times,serif" font-size="14.00">empty_trash</text>
<text text-anchor="start" x="-81.8242" y="-43.8" font-family="Times,serif" font-size="14.00">index</text>
<text text-anchor="start" x="-81.8242" y="-29.8" font-family="Times,serif" font-size="14.00">mark_as_read</text>
<text text-anchor="start" x="-81.8242" y="-15.8" font-family="Times,serif" font-size="14.00">reply</text>
<text text-anchor="start" x="-81.8242" y="-1.8" font-family="Times,serif" font-size="14.00">restore</text>
<text text-anchor="start" x="-81.8242" y="12.2" font-family="Times,serif" font-size="14.00">show</text>
<polyline fill="none" stroke="black" points="-89.8242,19 63.8242,19 "/>
<polyline fill="none" stroke="black" points="-89.8242,43 63.8242,43 "/>
<text text-anchor="start" x="-81.8242" y="58.2" font-family="Times,serif" font-size="14.00">_layout</text>
<text text-anchor="start" x="-81.8242" y="72.2" font-family="Times,serif" font-size="14.00">get_box</text>
<text text-anchor="start" x="-81.8242" y="86.2" font-family="Times,serif" font-size="14.00">get_conversation</text>
<text text-anchor="start" x="-81.8242" y="100.2" font-family="Times,serif" font-size="14.00">get_mailbox</text>
</g>
<!-- EventsController -->
<g id="node4" class="node"><title>EventsController</title>
<path fill="none" stroke="black" d="M336.176,-145C336.176,-145 423.824,-145 423.824,-145 429.824,-145 435.824,-151 435.824,-157 435.824,-157 435.824,-335 435.824,-335 435.824,-341 429.824,-347 423.824,-347 423.824,-347 336.176,-347 336.176,-347 330.176,-347 324.176,-341 324.176,-335 324.176,-335 324.176,-157 324.176,-157 324.176,-151 330.176,-145 336.176,-145"/>
<text text-anchor="middle" x="380" y="-331.8" font-family="Times,serif" font-size="14.00">EventsController</text>
<polyline fill="none" stroke="black" points="324.176,-325 435.824,-325 "/>
<text text-anchor="start" x="332.176" y="-309.8" font-family="Times,serif" font-size="14.00">create</text>
<text text-anchor="start" x="332.176" y="-295.8" font-family="Times,serif" font-size="14.00">destroy</text>
<text text-anchor="start" x="332.176" y="-281.8" font-family="Times,serif" font-size="14.00">edit</text>
<text text-anchor="start" x="332.176" y="-267.8" font-family="Times,serif" font-size="14.00">index</text>
<text text-anchor="start" x="332.176" y="-253.8" font-family="Times,serif" font-size="14.00">new</text>
<text text-anchor="start" x="332.176" y="-239.8" font-family="Times,serif" font-size="14.00">show</text>
<text text-anchor="start" x="332.176" y="-225.8" font-family="Times,serif" font-size="14.00">update</text>
<polyline fill="none" stroke="black" points="324.176,-219 435.824,-219 "/>
<polyline fill="none" stroke="black" points="324.176,-195 435.824,-195 "/>
<text text-anchor="start" x="332.176" y="-179.8" font-family="Times,serif" font-size="14.00">_layout</text>
<text text-anchor="start" x="332.176" y="-165.8" font-family="Times,serif" font-size="14.00">event_params</text>
<text text-anchor="start" x="332.176" y="-151.8" font-family="Times,serif" font-size="14.00">set_event</text>
</g>
<!-- GroupsController -->
<g id="node5" class="node"><title>GroupsController</title>
<path fill="none" stroke="black" d="M-276.383,287C-276.383,287 -185.617,287 -185.617,287 -179.617,287 -173.617,281 -173.617,275 -173.617,275 -173.617,97 -173.617,97 -173.617,91 -179.617,85 -185.617,85 -185.617,85 -276.383,85 -276.383,85 -282.383,85 -288.383,91 -288.383,97 -288.383,97 -288.383,275 -288.383,275 -288.383,281 -282.383,287 -276.383,287"/>
<text text-anchor="middle" x="-231" y="100.2" font-family="Times,serif" font-size="14.00">GroupsController</text>
<polyline fill="none" stroke="black" points="-288.383,107 -173.617,107 "/>
<text text-anchor="start" x="-280.383" y="122.2" font-family="Times,serif" font-size="14.00">create</text>
<text text-anchor="start" x="-280.383" y="136.2" font-family="Times,serif" font-size="14.00">destroy</text>
<text text-anchor="start" x="-280.383" y="150.2" font-family="Times,serif" font-size="14.00">edit</text>
<text text-anchor="start" x="-280.383" y="164.2" font-family="Times,serif" font-size="14.00">index</text>
<text text-anchor="start" x="-280.383" y="178.2" font-family="Times,serif" font-size="14.00">new</text>
<text text-anchor="start" x="-280.383" y="192.2" font-family="Times,serif" font-size="14.00">show</text>
<text text-anchor="start" x="-280.383" y="206.2" font-family="Times,serif" font-size="14.00">update</text>
<polyline fill="none" stroke="black" points="-288.383,213 -173.617,213 "/>
<polyline fill="none" stroke="black" points="-288.383,237 -173.617,237 "/>
<text text-anchor="start" x="-280.383" y="252.2" font-family="Times,serif" font-size="14.00">_layout</text>
<text text-anchor="start" x="-280.383" y="266.2" font-family="Times,serif" font-size="14.00">group_params</text>
<text text-anchor="start" x="-280.383" y="280.2" font-family="Times,serif" font-size="14.00">set_group</text>
</g>
<!-- HomeworksController -->
<g id="node6" class="node"><title>HomeworksController</title>
<path fill="none" stroke="black" d="M156.01,-145C156.01,-145 273.99,-145 273.99,-145 279.99,-145 285.99,-151 285.99,-157 285.99,-157 285.99,-335 285.99,-335 285.99,-341 279.99,-347 273.99,-347 273.99,-347 156.01,-347 156.01,-347 150.01,-347 144.01,-341 144.01,-335 144.01,-335 144.01,-157 144.01,-157 144.01,-151 150.01,-145 156.01,-145"/>
<text text-anchor="middle" x="215" y="-331.8" font-family="Times,serif" font-size="14.00">HomeworksController</text>
<polyline fill="none" stroke="black" points="144.01,-325 285.99,-325 "/>
<text text-anchor="start" x="152.01" y="-309.8" font-family="Times,serif" font-size="14.00">create</text>
<text text-anchor="start" x="152.01" y="-295.8" font-family="Times,serif" font-size="14.00">destroy</text>
<text text-anchor="start" x="152.01" y="-281.8" font-family="Times,serif" font-size="14.00">edit</text>
<text text-anchor="start" x="152.01" y="-267.8" font-family="Times,serif" font-size="14.00">index</text>
<text text-anchor="start" x="152.01" y="-253.8" font-family="Times,serif" font-size="14.00">new</text>
<text text-anchor="start" x="152.01" y="-239.8" font-family="Times,serif" font-size="14.00">show</text>
<text text-anchor="start" x="152.01" y="-225.8" font-family="Times,serif" font-size="14.00">update</text>
<polyline fill="none" stroke="black" points="144.01,-219 285.99,-219 "/>
<polyline fill="none" stroke="black" points="144.01,-195 285.99,-195 "/>
<text text-anchor="start" x="152.01" y="-179.8" font-family="Times,serif" font-size="14.00">_layout</text>
<text text-anchor="start" x="152.01" y="-165.8" font-family="Times,serif" font-size="14.00">homework_params</text>
<text text-anchor="start" x="152.01" y="-151.8" font-family="Times,serif" font-size="14.00">set_homework</text>
</g>
<!-- InqueriesController -->
<g id="node7" class="node"><title>InqueriesController</title>
<path fill="none" stroke="black" d="M264.183,251C264.183,251 365.817,251 365.817,251 371.817,251 377.817,245 377.817,239 377.817,239 377.817,61 377.817,61 377.817,55 371.817,49 365.817,49 365.817,49 264.183,49 264.183,49 258.183,49 252.183,55 252.183,61 252.183,61 252.183,239 252.183,239 252.183,245 258.183,251 264.183,251"/>
<text text-anchor="middle" x="315" y="64.2" font-family="Times,serif" font-size="14.00">InqueriesController</text>
<polyline fill="none" stroke="black" points="252.183,71 377.817,71 "/>
<text text-anchor="start" x="260.183" y="86.2" font-family="Times,serif" font-size="14.00">create</text>
<text text-anchor="start" x="260.183" y="100.2" font-family="Times,serif" font-size="14.00">destroy</text>
<text text-anchor="start" x="260.183" y="114.2" font-family="Times,serif" font-size="14.00">edit</text>
<text text-anchor="start" x="260.183" y="128.2" font-family="Times,serif" font-size="14.00">index</text>
<text text-anchor="start" x="260.183" y="142.2" font-family="Times,serif" font-size="14.00">new</text>
<text text-anchor="start" x="260.183" y="156.2" font-family="Times,serif" font-size="14.00">show</text>
<text text-anchor="start" x="260.183" y="170.2" font-family="Times,serif" font-size="14.00">update</text>
<polyline fill="none" stroke="black" points="252.183,177 377.817,177 "/>
<polyline fill="none" stroke="black" points="252.183,201 377.817,201 "/>
<text text-anchor="start" x="260.183" y="216.2" font-family="Times,serif" font-size="14.00">_layout</text>
<text text-anchor="start" x="260.183" y="230.2" font-family="Times,serif" font-size="14.00">inquery_params</text>
<text text-anchor="start" x="260.183" y="244.2" font-family="Times,serif" font-size="14.00">set_inquery</text>
</g>
<!-- LessonPlansController -->
<g id="node8" class="node"><title>LessonPlansController</title>
<path fill="none" stroke="black" d="M-23.7725,-145C-23.7725,-145 95.7725,-145 95.7725,-145 101.772,-145 107.772,-151 107.772,-157 107.772,-157 107.772,-349 107.772,-349 107.772,-355 101.772,-361 95.7725,-361 95.7725,-361 -23.7725,-361 -23.7725,-361 -29.7725,-361 -35.7725,-355 -35.7725,-349 -35.7725,-349 -35.7725,-157 -35.7725,-157 -35.7725,-151 -29.7725,-145 -23.7725,-145"/>
<text text-anchor="middle" x="36" y="-345.8" font-family="Times,serif" font-size="14.00">LessonPlansController</text>
<polyline fill="none" stroke="black" points="-35.7725,-339 107.772,-339 "/>
<text text-anchor="start" x="-27.7725" y="-323.8" font-family="Times,serif" font-size="14.00">create</text>
<text text-anchor="start" x="-27.7725" y="-309.8" font-family="Times,serif" font-size="14.00">destroy</text>
<text text-anchor="start" x="-27.7725" y="-295.8" font-family="Times,serif" font-size="14.00">document_download</text>
<text text-anchor="start" x="-27.7725" y="-281.8" font-family="Times,serif" font-size="14.00">edit</text>
<text text-anchor="start" x="-27.7725" y="-267.8" font-family="Times,serif" font-size="14.00">index</text>
<text text-anchor="start" x="-27.7725" y="-253.8" font-family="Times,serif" font-size="14.00">new</text>
<text text-anchor="start" x="-27.7725" y="-239.8" font-family="Times,serif" font-size="14.00">show</text>
<text text-anchor="start" x="-27.7725" y="-225.8" font-family="Times,serif" font-size="14.00">update</text>
<polyline fill="none" stroke="black" points="-35.7725,-219 107.772,-219 "/>
<polyline fill="none" stroke="black" points="-35.7725,-195 107.772,-195 "/>
<text text-anchor="start" x="-27.7725" y="-179.8" font-family="Times,serif" font-size="14.00">_layout</text>
<text text-anchor="start" x="-27.7725" y="-165.8" font-family="Times,serif" font-size="14.00">lesson_plan_params</text>
<text text-anchor="start" x="-27.7725" y="-151.8" font-family="Times,serif" font-size="14.00">set_lesson_plan</text>
</g>
<!-- MessagesController -->
<g id="node9" class="node"><title>MessagesController</title>
<path fill="none" stroke="black" d="M-329.99,-343C-329.99,-343 -226.01,-343 -226.01,-343 -220.01,-343 -214.01,-349 -214.01,-355 -214.01,-355 -214.01,-435 -214.01,-435 -214.01,-441 -220.01,-447 -226.01,-447 -226.01,-447 -329.99,-447 -329.99,-447 -335.99,-447 -341.99,-441 -341.99,-435 -341.99,-435 -341.99,-355 -341.99,-355 -341.99,-349 -335.99,-343 -329.99,-343"/>
<text text-anchor="middle" x="-278" y="-431.8" font-family="Times,serif" font-size="14.00">MessagesController</text>
<polyline fill="none" stroke="black" points="-341.99,-425 -214.01,-425 "/>
<text text-anchor="start" x="-333.99" y="-409.8" font-family="Times,serif" font-size="14.00">create</text>
<text text-anchor="start" x="-333.99" y="-395.8" font-family="Times,serif" font-size="14.00">new</text>
<polyline fill="none" stroke="black" points="-341.99,-389 -214.01,-389 "/>
<polyline fill="none" stroke="black" points="-341.99,-365 -214.01,-365 "/>
<text text-anchor="start" x="-333.99" y="-349.8" font-family="Times,serif" font-size="14.00">_layout</text>
</g>
<!-- PagesController -->
<g id="node10" class="node"><title>PagesController</title>
<path fill="none" stroke="black" d="M-312.104,-199C-312.104,-199 -229.896,-199 -229.896,-199 -223.896,-199 -217.896,-205 -217.896,-211 -217.896,-211 -217.896,-291 -217.896,-291 -217.896,-297 -223.896,-303 -229.896,-303 -229.896,-303 -312.104,-303 -312.104,-303 -318.104,-303 -324.104,-297 -324.104,-291 -324.104,-291 -324.104,-211 -324.104,-211 -324.104,-205 -318.104,-199 -312.104,-199"/>
<text text-anchor="middle" x="-271" y="-287.8" font-family="Times,serif" font-size="14.00">PagesController</text>
<polyline fill="none" stroke="black" points="-324.104,-281 -217.896,-281 "/>
<text text-anchor="start" x="-316.104" y="-265.8" font-family="Times,serif" font-size="14.00">about</text>
<text text-anchor="start" x="-316.104" y="-251.8" font-family="Times,serif" font-size="14.00">home</text>
<polyline fill="none" stroke="black" points="-324.104,-245 -217.896,-245 "/>
<polyline fill="none" stroke="black" points="-324.104,-221 -217.896,-221 "/>
<text text-anchor="start" x="-316.104" y="-205.8" font-family="Times,serif" font-size="14.00">_layout</text>
</g>
<!-- PhotosController -->
<g id="node11" class="node"><title>PhotosController</title>
<path fill="none" stroke="black" d="M-167.834,-181C-167.834,-181 -80.1655,-181 -80.1655,-181 -74.1655,-181 -68.1655,-187 -68.1655,-193 -68.1655,-193 -68.1655,-385 -68.1655,-385 -68.1655,-391 -74.1655,-397 -80.1655,-397 -80.1655,-397 -167.834,-397 -167.834,-397 -173.834,-397 -179.834,-391 -179.834,-385 -179.834,-385 -179.834,-193 -179.834,-193 -179.834,-187 -173.834,-181 -167.834,-181"/>
<text text-anchor="middle" x="-124" y="-381.8" font-family="Times,serif" font-size="14.00">PhotosController</text>
<polyline fill="none" stroke="black" points="-179.834,-375 -68.1655,-375 "/>
<text text-anchor="start" x="-171.834" y="-359.8" font-family="Times,serif" font-size="14.00">create</text>
<text text-anchor="start" x="-171.834" y="-345.8" font-family="Times,serif" font-size="14.00">destroy</text>
<text text-anchor="start" x="-171.834" y="-331.8" font-family="Times,serif" font-size="14.00">edit</text>
<text text-anchor="start" x="-171.834" y="-317.8" font-family="Times,serif" font-size="14.00">index</text>
<text text-anchor="start" x="-171.834" y="-303.8" font-family="Times,serif" font-size="14.00">new</text>
<text text-anchor="start" x="-171.834" y="-289.8" font-family="Times,serif" font-size="14.00">show</text>
<text text-anchor="start" x="-171.834" y="-275.8" font-family="Times,serif" font-size="14.00">update</text>
<polyline fill="none" stroke="black" points="-179.834,-269 -68.1655,-269 "/>
<polyline fill="none" stroke="black" points="-179.834,-245 -68.1655,-245 "/>
<text text-anchor="start" x="-171.834" y="-229.8" font-family="Times,serif" font-size="14.00">_layout</text>
<text text-anchor="start" x="-171.834" y="-215.8" font-family="Times,serif" font-size="14.00">correct_user</text>
<text text-anchor="start" x="-171.834" y="-201.8" font-family="Times,serif" font-size="14.00">photo_params</text>
<text text-anchor="start" x="-171.834" y="-187.8" font-family="Times,serif" font-size="14.00">set_photo</text>
</g>
<!-- ResourcesController -->
<g id="node12" class="node"><title>ResourcesController</title>
<path fill="none" stroke="black" d="M102.458,89C102.458,89 209.542,89 209.542,89 215.542,89 221.542,83 221.542,77 221.542,77 221.542,-101 221.542,-101 221.542,-107 215.542,-113 209.542,-113 209.542,-113 102.458,-113 102.458,-113 96.4585,-113 90.4585,-107 90.4585,-101 90.4585,-101 90.4585,77 90.4585,77 90.4585,83 96.4585,89 102.458,89"/>
<text text-anchor="middle" x="156" y="-97.8" font-family="Times,serif" font-size="14.00">ResourcesController</text>
<polyline fill="none" stroke="black" points="90.4585,-91 221.542,-91 "/>
<text text-anchor="start" x="98.4585" y="-75.8" font-family="Times,serif" font-size="14.00">create</text>
<text text-anchor="start" x="98.4585" y="-61.8" font-family="Times,serif" font-size="14.00">destroy</text>
<text text-anchor="start" x="98.4585" y="-47.8" font-family="Times,serif" font-size="14.00">edit</text>
<text text-anchor="start" x="98.4585" y="-33.8" font-family="Times,serif" font-size="14.00">index</text>
<text text-anchor="start" x="98.4585" y="-19.8" font-family="Times,serif" font-size="14.00">new</text>
<text text-anchor="start" x="98.4585" y="-5.8" font-family="Times,serif" font-size="14.00">show</text>
<text text-anchor="start" x="98.4585" y="8.2" font-family="Times,serif" font-size="14.00">update</text>
<polyline fill="none" stroke="black" points="90.4585,15 221.542,15 "/>
<polyline fill="none" stroke="black" points="90.4585,39 221.542,39 "/>
<text text-anchor="start" x="98.4585" y="54.2" font-family="Times,serif" font-size="14.00">_layout</text>
<text text-anchor="start" x="98.4585" y="68.2" font-family="Times,serif" font-size="14.00">resource_params</text>
<text text-anchor="start" x="98.4585" y="82.2" font-family="Times,serif" font-size="14.00">set_resource</text>
</g>
<!-- StudentsController -->
<g id="node13" class="node"><title>StudentsController</title>
<path fill="none" stroke="black" d="M-239.886,53C-239.886,53 -142.114,53 -142.114,53 -136.114,53 -130.114,47 -130.114,41 -130.114,41 -130.114,-137 -130.114,-137 -130.114,-143 -136.114,-149 -142.114,-149 -142.114,-149 -239.886,-149 -239.886,-149 -245.886,-149 -251.886,-143 -251.886,-137 -251.886,-137 -251.886,41 -251.886,41 -251.886,47 -245.886,53 -239.886,53"/>
<text text-anchor="middle" x="-191" y="-133.8" font-family="Times,serif" font-size="14.00">StudentsController</text>
<polyline fill="none" stroke="black" points="-251.886,-127 -130.114,-127 "/>
<text text-anchor="start" x="-243.886" y="-111.8" font-family="Times,serif" font-size="14.00">create</text>
<text text-anchor="start" x="-243.886" y="-97.8" font-family="Times,serif" font-size="14.00">destroy</text>
<text text-anchor="start" x="-243.886" y="-83.8" font-family="Times,serif" font-size="14.00">edit</text>
<text text-anchor="start" x="-243.886" y="-69.8" font-family="Times,serif" font-size="14.00">index</text>
<text text-anchor="start" x="-243.886" y="-55.8" font-family="Times,serif" font-size="14.00">new</text>
<text text-anchor="start" x="-243.886" y="-41.8" font-family="Times,serif" font-size="14.00">show</text>
<text text-anchor="start" x="-243.886" y="-27.8" font-family="Times,serif" font-size="14.00">update</text>
<polyline fill="none" stroke="black" points="-251.886,-21 -130.114,-21 "/>
<polyline fill="none" stroke="black" points="-251.886,3 -130.114,3 "/>
<text text-anchor="start" x="-243.886" y="18.2" font-family="Times,serif" font-size="14.00">_layout</text>
<text text-anchor="start" x="-243.886" y="32.2" font-family="Times,serif" font-size="14.00">set_student</text>
<text text-anchor="start" x="-243.886" y="46.2" font-family="Times,serif" font-size="14.00">student_params</text>
</g>
<!-- TeachersController -->
<g id="node14" class="node"><title>TeachersController</title>
<path fill="none" stroke="black" d="M102.458,323C102.458,323 201.542,323 201.542,323 207.542,323 213.542,317 213.542,311 213.542,311 213.542,133 213.542,133 213.542,127 207.542,121 201.542,121 201.542,121 102.458,121 102.458,121 96.4575,121 90.4575,127 90.4575,133 90.4575,133 90.4575,311 90.4575,311 90.4575,317 96.4575,323 102.458,323"/>
<text text-anchor="middle" x="152" y="136.2" font-family="Times,serif" font-size="14.00">TeachersController</text>
<polyline fill="none" stroke="black" points="90.4575,143 213.542,143 "/>
<text text-anchor="start" x="98.4575" y="158.2" font-family="Times,serif" font-size="14.00">create</text>
<text text-anchor="start" x="98.4575" y="172.2" font-family="Times,serif" font-size="14.00">destroy</text>
<text text-anchor="start" x="98.4575" y="186.2" font-family="Times,serif" font-size="14.00">edit</text>
<text text-anchor="start" x="98.4575" y="200.2" font-family="Times,serif" font-size="14.00">index</text>
<text text-anchor="start" x="98.4575" y="214.2" font-family="Times,serif" font-size="14.00">new</text>
<text text-anchor="start" x="98.4575" y="228.2" font-family="Times,serif" font-size="14.00">show</text>
<text text-anchor="start" x="98.4575" y="242.2" font-family="Times,serif" font-size="14.00">update</text>
<polyline fill="none" stroke="black" points="90.4575,249 213.542,249 "/>
<polyline fill="none" stroke="black" points="90.4575,273 213.542,273 "/>
<text text-anchor="start" x="98.4575" y="288.2" font-family="Times,serif" font-size="14.00">_layout</text>
<text text-anchor="start" x="98.4575" y="302.2" font-family="Times,serif" font-size="14.00">set_teacher</text>
<text text-anchor="start" x="98.4575" y="316.2" font-family="Times,serif" font-size="14.00">teacher_params</text>
</g>
<!-- WelcomeController -->
<g id="node15" class="node"><title>WelcomeController</title>
<path fill="none" stroke="black" d="M-132.033,341C-132.033,341 -29.9673,341 -29.9673,341 -23.9673,341 -17.9673,335 -17.9673,329 -17.9673,329 -17.9673,263 -17.9673,263 -17.9673,257 -23.9673,251 -29.9673,251 -29.9673,251 -132.033,251 -132.033,251 -138.033,251 -144.033,257 -144.033,263 -144.033,263 -144.033,329 -144.033,329 -144.033,335 -138.033,341 -132.033,341"/>
<text text-anchor="middle" x="-81" y="266.2" font-family="Times,serif" font-size="14.00">WelcomeController</text>
<polyline fill="none" stroke="black" points="-144.033,273 -17.9673,273 "/>
<text text-anchor="start" x="-136.033" y="288.2" font-family="Times,serif" font-size="14.00">index</text>
<polyline fill="none" stroke="black" points="-144.033,295 -17.9673,295 "/>
<polyline fill="none" stroke="black" points="-144.033,319 -17.9673,319 "/>
<text text-anchor="start" x="-136.033" y="334.2" font-family="Times,serif" font-size="14.00">_layout</text>
</g>
</g>
</svg>
