<?xml version="1.0" encoding="UTF-8" standalone="no"?>
<!DOCTYPE svg PUBLIC "-//W3C//DTD SVG 1.1//EN"
 "http://www.w3.org/Graphics/SVG/1.1/DTD/svg11.dtd">
<!-- Generated by graphviz version 2.38.0 (20140413.2041)
 -->
<!-- Title: controllers_diagram Pages: 1 -->
<svg width="690pt" height="703pt"
 viewBox="0.00 0.00 689.99 703.00" xmlns="http://www.w3.org/2000/svg" xmlns:xlink="http://www.w3.org/1999/xlink">
<g id="graph0" class="graph" transform="scale(1 1) rotate(0) translate(273.886 429.5)">
<title>controllers_diagram</title>
<polygon fill="white" stroke="none" points="-273.886,273.5 -273.886,-429.5 416.104,-429.5 416.104,273.5 -273.886,273.5"/>
<!-- _diagram_info -->
<g id="node1" class="node"><title>_diagram_info</title>
<text text-anchor="start" x="98.3123" y="138.9" font-family="Times,serif" font-size="13.00">Controllers diagram</text>
<text text-anchor="start" x="98.3123" y="151.9" font-family="Times,serif" font-size="13.00">Date: Apr 08 2015 &#45; 10:28</text>
<text text-anchor="start" x="98.3123" y="164.9" font-family="Times,serif" font-size="13.00">Migration version: 20150320093746</text>
<text text-anchor="start" x="98.3123" y="177.9" font-family="Times,serif" font-size="13.00">Generated by RailRoady 1.3.0</text>
<text text-anchor="start" x="98.3123" y="190.9" font-family="Times,serif" font-size="13.00">http://railroady.prestonlee.com</text>
</g>
<!-- ApplicationController -->
<g id="node2" class="node"><title>ApplicationController</title>
<path fill="none" stroke="black" d="M102.034,89C102.034,89 275.966,89 275.966,89 281.966,89 287.966,83 287.966,77 287.966,77 287.966,-29 287.966,-29 287.966,-35 281.966,-41 275.966,-41 275.966,-41 102.034,-41 102.034,-41 96.0342,-41 90.0342,-35 90.0342,-29 90.0342,-29 90.0342,77 90.0342,77 90.0342,83 96.0342,89 102.034,89"/>
<text text-anchor="middle" x="189" y="-25.8" font-family="Times,serif" font-size="14.00">ApplicationController</text>
<polyline fill="none" stroke="black" points="90.0342,-19 287.966,-19 "/>
<text text-anchor="start" x="98.0342" y="-3.8" font-family="Times,serif" font-size="14.00">redirect_back_or</text>
<polyline fill="none" stroke="black" points="90.0342,3 287.966,3 "/>
<text text-anchor="start" x="98.0342" y="18.2" font-family="Times,serif" font-size="14.00">configure_permitted_parameters</text>
<text text-anchor="start" x="98.0342" y="32.2" font-family="Times,serif" font-size="14.00">default_url_options</text>
<text text-anchor="start" x="98.0342" y="46.2" font-family="Times,serif" font-size="14.00">set_i18n_locale_from_params</text>
<polyline fill="none" stroke="black" points="90.0342,53 287.966,53 "/>
<text text-anchor="start" x="98.0342" y="68.2" font-family="Times,serif" font-size="14.00">_layout</text>
<text text-anchor="start" x="98.0342" y="82.2" font-family="Times,serif" font-size="14.00">verify_is_admin</text>
</g>
<!-- ConversationsController -->
<g id="node3" class="node"><title>ConversationsController</title>
<path fill="none" stroke="black" d="M-77.8242,107C-77.8242,107 51.8242,107 51.8242,107 57.8242,107 63.8242,101 63.8242,95 63.8242,95 63.8242,-97 63.8242,-97 63.8242,-103 57.8242,-109 51.8242,-109 51.8242,-109 -77.8242,-109 -77.8242,-109 -83.8242,-109 -89.8242,-103 -89.8242,-97 -89.8242,-97 -89.8242,95 -89.8242,95 -89.8242,101 -83.8242,107 -77.8242,107"/>
<text text-anchor="middle" x="-13" y="-93.8" font-family="Times,serif" font-size="14.00">ConversationsController</text>
<polyline fill="none" stroke="black" points="-89.8242,-87 63.8242,-87 "/>
<text text-anchor="start" x="-81.8242" y="-71.8" font-family="Times,serif" font-size="14.00">destroy</text>
<text text-anchor="start" x="-81.8242" y="-57.8" font-family="Times,serif" font-size="14.00">empty_trash</text>
<text text-anchor="start" x="-81.8242" y="-43.8" font-family="Times,serif" font-size="14.00">index</text>
<text text-anchor="start" x="-81.8242" y="-29.8" font-family="Times,serif" font-size="14.00">mark_as_read</text>
<text text-anchor="start" x="-81.8242" y="-15.8" font-family="Times,serif" font-size="14.00">reply</text>
<text text-anchor="start" x="-81.8242" y="-1.8" font-family="Times,serif" font-size="14.00">restore</text>
<text text-anchor="start" x="-81.8242" y="12.2" font-family="Times,serif" font-size="14.00">show</text>
<polyline fill="none" stroke="black" points="-89.8242,19 63.8242,19 "/>
<polyline fill="none" stroke="black" points="-89.8242,43 63.8242,43 "/>
<text text-anchor="start" x="-81.8242" y="58.2" font-family="Times,serif" font-size="14.00">_layout</text>
<text text-anchor="start" x="-81.8242" y="72.2" font-family="Times,serif" font-size="14.00">get_box</text>
<text text-anchor="start" x="-81.8242" y="86.2" font-family="Times,serif" font-size="14.00">get_conversation</text>
<text text-anchor="start" x="-81.8242" y="100.2" font-family="Times,serif" font-size="14.00">get_mailbox</text>
</g>
<!-- EventsController -->
<g id="node4" class="node"><title>EventsController</title>
<path fill="none" stroke="black" d="M102.176,-73C102.176,-73 189.824,-73 189.824,-73 195.824,-73 201.824,-79 201.824,-85 201.824,-85 201.824,-263 201.824,-263 201.824,-269 195.824,-275 189.824,-275 189.824,-275 102.176,-275 102.176,-275 96.1758,-275 90.1758,-269 90.1758,-263 90.1758,-263 90.1758,-85 90.1758,-85 90.1758,-79 96.1758,-73 102.176,-73"/>
<text text-anchor="middle" x="146" y="-259.8" font-family="Times,serif" font-size="14.00">EventsController</text>
<polyline fill="none" stroke="black" points="90.1758,-253 201.824,-253 "/>
<text text-anchor="start" x="98.1758" y="-237.8" font-family="Times,serif" font-size="14.00">create</text>
<text text-anchor="start" x="98.1758" y="-223.8" font-family="Times,serif" font-size="14.00">destroy</text>
<text text-anchor="start" x="98.1758" y="-209.8" font-family="Times,serif" font-size="14.00">edit</text>
<text text-anchor="start" x="98.1758" y="-195.8" font-family="Times,serif" font-size="14.00">index</text>
<text text-anchor="start" x="98.1758" y="-181.8" font-family="Times,serif" font-size="14.00">new</text>
<text text-anchor="start" x="98.1758" y="-167.8" font-family="Times,serif" font-size="14.00">show</text>
<text text-anchor="start" x="98.1758" y="-153.8" font-family="Times,serif" font-size="14.00">update</text>
<polyline fill="none" stroke="black" points="90.1758,-147 201.824,-147 "/>
<polyline fill="none" stroke="black" points="90.1758,-123 201.824,-123 "/>
<text text-anchor="start" x="98.1758" y="-107.8" font-family="Times,serif" font-size="14.00">_layout</text>
<text text-anchor="start" x="98.1758" y="-93.8" font-family="Times,serif" font-size="14.00">event_params</text>
<text text-anchor="start" x="98.1758" y="-79.8" font-family="Times,serif" font-size="14.00">set_event</text>
</g>
<!-- GroupsController -->
<g id="node5" class="node"><title>GroupsController</title>
<path fill="none" stroke="black" d="M-42.3828,-145C-42.3828,-145 48.3828,-145 48.3828,-145 54.3828,-145 60.3828,-151 60.3828,-157 60.3828,-157 60.3828,-335 60.3828,-335 60.3828,-341 54.3828,-347 48.3828,-347 48.3828,-347 -42.3828,-347 -42.3828,-347 -48.3828,-347 -54.3828,-341 -54.3828,-335 -54.3828,-335 -54.3828,-157 -54.3828,-157 -54.3828,-151 -48.3828,-145 -42.3828,-145"/>
<text text-anchor="middle" x="3" y="-331.8" font-family="Times,serif" font-size="14.00">GroupsController</text>
<polyline fill="none" stroke="black" points="-54.3828,-325 60.3828,-325 "/>
<text text-anchor="start" x="-46.3828" y="-309.8" font-family="Times,serif" font-size="14.00">create</text>
<text text-anchor="start" x="-46.3828" y="-295.8" font-family="Times,serif" font-size="14.00">destroy</text>
<text text-anchor="start" x="-46.3828" y="-281.8" font-family="Times,serif" font-size="14.00">edit</text>
<text text-anchor="start" x="-46.3828" y="-267.8" font-family="Times,serif" font-size="14.00">index</text>
<text text-anchor="start" x="-46.3828" y="-253.8" font-family="Times,serif" font-size="14.00">new</text>
<text text-anchor="start" x="-46.3828" y="-239.8" font-family="Times,serif" font-size="14.00">show</text>
<text text-anchor="start" x="-46.3828" y="-225.8" font-family="Times,serif" font-size="14.00">update</text>
<polyline fill="none" stroke="black" points="-54.3828,-219 60.3828,-219 "/>
<polyline fill="none" stroke="black" points="-54.3828,-195 60.3828,-195 "/>
<text text-anchor="start" x="-46.3828" y="-179.8" font-family="Times,serif" font-size="14.00">_layout</text>
<text text-anchor="start" x="-46.3828" y="-165.8" font-family="Times,serif" font-size="14.00">group_params</text>
<text text-anchor="start" x="-46.3828" y="-151.8" font-family="Times,serif" font-size="14.00">set_group</text>
</g>
<!-- InqueriesController -->
<g id="node6" class="node"><title>InqueriesController</title>
<path fill="none" stroke="black" d="M-203.817,-217C-203.817,-217 -102.183,-217 -102.183,-217 -96.1826,-217 -90.1826,-223 -90.1826,-229 -90.1826,-229 -90.1826,-407 -90.1826,-407 -90.1826,-413 -96.1826,-419 -102.183,-419 -102.183,-419 -203.817,-419 -203.817,-419 -209.817,-419 -215.817,-413 -215.817,-407 -215.817,-407 -215.817,-229 -215.817,-229 -215.817,-223 -209.817,-217 -203.817,-217"/>
<text text-anchor="middle" x="-153" y="-403.8" font-family="Times,serif" font-size="14.00">InqueriesController</text>
<polyline fill="none" stroke="black" points="-215.817,-397 -90.1826,-397 "/>
<text text-anchor="start" x="-207.817" y="-381.8" font-family="Times,serif" font-size="14.00">create</text>
<text text-anchor="start" x="-207.817" y="-367.8" font-family="Times,serif" font-size="14.00">destroy</text>
<text text-anchor="start" x="-207.817" y="-353.8" font-family="Times,serif" font-size="14.00">edit</text>
<text text-anchor="start" x="-207.817" y="-339.8" font-family="Times,serif" font-size="14.00">index</text>
<text text-anchor="start" x="-207.817" y="-325.8" font-family="Times,serif" font-size="14.00">new</text>
<text text-anchor="start" x="-207.817" y="-311.8" font-family="Times,serif" font-size="14.00">show</text>
<text text-anchor="start" x="-207.817" y="-297.8" font-family="Times,serif" font-size="14.00">update</text>
<polyline fill="none" stroke="black" points="-215.817,-291 -90.1826,-291 "/>
<polyline fill="none" stroke="black" points="-215.817,-267 -90.1826,-267 "/>
<text text-anchor="start" x="-207.817" y="-251.8" font-family="Times,serif" font-size="14.00">_layout</text>
<text text-anchor="start" x="-207.817" y="-237.8" font-family="Times,serif" font-size="14.00">inquery_params</text>
<text text-anchor="start" x="-207.817" y="-223.8" font-family="Times,serif" font-size="14.00">set_inquery</text>
</g>
<!-- MessagesController -->
<g id="node7" class="node"><title>MessagesController</title>
<path fill="none" stroke="black" d="M-95.9897,251C-95.9897,251 7.98975,251 7.98975,251 13.9897,251 19.9897,245 19.9897,239 19.9897,239 19.9897,159 19.9897,159 19.9897,153 13.9897,147 7.98975,147 7.98975,147 -95.9897,147 -95.9897,147 -101.99,147 -107.99,153 -107.99,159 -107.99,159 -107.99,239 -107.99,239 -107.99,245 -101.99,251 -95.9897,251"/>
<text text-anchor="middle" x="-44" y="162.2" font-family="Times,serif" font-size="14.00">MessagesController</text>
<polyline fill="none" stroke="black" points="-107.99,169 19.9897,169 "/>
<text text-anchor="start" x="-99.9897" y="184.2" font-family="Times,serif" font-size="14.00">create</text>
<text text-anchor="start" x="-99.9897" y="198.2" font-family="Times,serif" font-size="14.00">new</text>
<polyline fill="none" stroke="black" points="-107.99,205 19.9897,205 "/>
<polyline fill="none" stroke="black" points="-107.99,229 19.9897,229 "/>
<text text-anchor="start" x="-99.9897" y="244.2" font-family="Times,serif" font-size="14.00">_layout</text>
</g>
<!-- PagesController -->
<g id="node8" class="node"><title>PagesController</title>
<path fill="none" stroke="black" d="M317.896,-307C317.896,-307 400.104,-307 400.104,-307 406.104,-307 412.104,-313 412.104,-319 412.104,-319 412.104,-413 412.104,-413 412.104,-419 406.104,-425 400.104,-425 400.104,-425 317.896,-425 317.896,-425 311.896,-425 305.896,-419 305.896,-413 305.896,-413 305.896,-319 305.896,-319 305.896,-313 311.896,-307 317.896,-307"/>
<text text-anchor="middle" x="359" y="-409.8" font-family="Times,serif" font-size="14.00">PagesController</text>
<polyline fill="none" stroke="black" points="305.896,-403 412.104,-403 "/>
<text text-anchor="start" x="313.896" y="-387.8" font-family="Times,serif" font-size="14.00">about</text>
<text text-anchor="start" x="313.896" y="-373.8" font-family="Times,serif" font-size="14.00">book</text>
<text text-anchor="start" x="313.896" y="-359.8" font-family="Times,serif" font-size="14.00">home</text>
<polyline fill="none" stroke="black" points="305.896,-353 412.104,-353 "/>
<polyline fill="none" stroke="black" points="305.896,-329 412.104,-329 "/>
<text text-anchor="start" x="313.896" y="-313.8" font-family="Times,serif" font-size="14.00">_layout</text>
</g>
<!-- PhotosController -->
<g id="node9" class="node"><title>PhotosController</title>
<path fill="none" stroke="black" d="M-221.834,35C-221.834,35 -134.166,35 -134.166,35 -128.166,35 -122.166,29 -122.166,23 -122.166,23 -122.166,-169 -122.166,-169 -122.166,-175 -128.166,-181 -134.166,-181 -134.166,-181 -221.834,-181 -221.834,-181 -227.834,-181 -233.834,-175 -233.834,-169 -233.834,-169 -233.834,23 -233.834,23 -233.834,29 -227.834,35 -221.834,35"/>
<text text-anchor="middle" x="-178" y="-165.8" font-family="Times,serif" font-size="14.00">PhotosController</text>
<polyline fill="none" stroke="black" points="-233.834,-159 -122.166,-159 "/>
<text text-anchor="start" x="-225.834" y="-143.8" font-family="Times,serif" font-size="14.00">create</text>
<text text-anchor="start" x="-225.834" y="-129.8" font-family="Times,serif" font-size="14.00">destroy</text>
<text text-anchor="start" x="-225.834" y="-115.8" font-family="Times,serif" font-size="14.00">edit</text>
<text text-anchor="start" x="-225.834" y="-101.8" font-family="Times,serif" font-size="14.00">index</text>
<text text-anchor="start" x="-225.834" y="-87.8" font-family="Times,serif" font-size="14.00">new</text>
<text text-anchor="start" x="-225.834" y="-73.8" font-family="Times,serif" font-size="14.00">show</text>
<text text-anchor="start" x="-225.834" y="-59.8" font-family="Times,serif" font-size="14.00">update</text>
<polyline fill="none" stroke="black" points="-233.834,-53 -122.166,-53 "/>
<polyline fill="none" stroke="black" points="-233.834,-29 -122.166,-29 "/>
<text text-anchor="start" x="-225.834" y="-13.8" font-family="Times,serif" font-size="14.00">_layout</text>
<text text-anchor="start" x="-225.834" y="0.2" font-family="Times,serif" font-size="14.00">correct_user</text>
<text text-anchor="start" x="-225.834" y="14.2" font-family="Times,serif" font-size="14.00">photo_params</text>
<text text-anchor="start" x="-225.834" y="28.2" font-family="Times,serif" font-size="14.00">set_photo</text>
</g>
<!-- StudentsController -->
<g id="node10" class="node"><title>StudentsController</title>
<path fill="none" stroke="black" d="M-257.886,269C-257.886,269 -160.114,269 -160.114,269 -154.114,269 -148.114,263 -148.114,257 -148.114,257 -148.114,79 -148.114,79 -148.114,73 -154.114,67 -160.114,67 -160.114,67 -257.886,67 -257.886,67 -263.886,67 -269.886,73 -269.886,79 -269.886,79 -269.886,257 -269.886,257 -269.886,263 -263.886,269 -257.886,269"/>
<text text-anchor="middle" x="-209" y="82.2" font-family="Times,serif" font-size="14.00">StudentsController</text>
<polyline fill="none" stroke="black" points="-269.886,89 -148.114,89 "/>
<text text-anchor="start" x="-261.886" y="104.2" font-family="Times,serif" font-size="14.00">create</text>
<text text-anchor="start" x="-261.886" y="118.2" font-family="Times,serif" font-size="14.00">destroy</text>
<text text-anchor="start" x="-261.886" y="132.2" font-family="Times,serif" font-size="14.00">edit</text>
<text text-anchor="start" x="-261.886" y="146.2" font-family="Times,serif" font-size="14.00">index</text>
<text text-anchor="start" x="-261.886" y="160.2" font-family="Times,serif" font-size="14.00">new</text>
<text text-anchor="start" x="-261.886" y="174.2" font-family="Times,serif" font-size="14.00">show</text>
<text text-anchor="start" x="-261.886" y="188.2" font-family="Times,serif" font-size="14.00">update</text>
<polyline fill="none" stroke="black" points="-269.886,195 -148.114,195 "/>
<polyline fill="none" stroke="black" points="-269.886,219 -148.114,219 "/>
<text text-anchor="start" x="-261.886" y="234.2" font-family="Times,serif" font-size="14.00">_layout</text>
<text text-anchor="start" x="-261.886" y="248.2" font-family="Times,serif" font-size="14.00">set_student</text>
<text text-anchor="start" x="-261.886" y="262.2" font-family="Times,serif" font-size="14.00">student_params</text>
</g>
<!-- TeachersController -->
<g id="node11" class="node"><title>TeachersController</title>
<path fill="none" stroke="black" d="M246.458,-73C246.458,-73 345.542,-73 345.542,-73 351.542,-73 357.542,-79 357.542,-85 357.542,-85 357.542,-263 357.542,-263 357.542,-269 351.542,-275 345.542,-275 345.542,-275 246.458,-275 246.458,-275 240.458,-275 234.458,-269 234.458,-263 234.458,-263 234.458,-85 234.458,-85 234.458,-79 240.458,-73 246.458,-73"/>
<text text-anchor="middle" x="296" y="-259.8" font-family="Times,serif" font-size="14.00">TeachersController</text>
<polyline fill="none" stroke="black" points="234.458,-253 357.542,-253 "/>
<text text-anchor="start" x="242.458" y="-237.8" font-family="Times,serif" font-size="14.00">create</text>
<text text-anchor="start" x="242.458" y="-223.8" font-family="Times,serif" font-size="14.00">destroy</text>
<text text-anchor="start" x="242.458" y="-209.8" font-family="Times,serif" font-size="14.00">edit</text>
<text text-anchor="start" x="242.458" y="-195.8" font-family="Times,serif" font-size="14.00">index</text>
<text text-anchor="start" x="242.458" y="-181.8" font-family="Times,serif" font-size="14.00">new</text>
<text text-anchor="start" x="242.458" y="-167.8" font-family="Times,serif" font-size="14.00">show</text>
<text text-anchor="start" x="242.458" y="-153.8" font-family="Times,serif" font-size="14.00">update</text>
<polyline fill="none" stroke="black" points="234.458,-147 357.542,-147 "/>
<polyline fill="none" stroke="black" points="234.458,-123 357.542,-123 "/>
<text text-anchor="start" x="242.458" y="-107.8" font-family="Times,serif" font-size="14.00">_layout</text>
<text text-anchor="start" x="242.458" y="-93.8" font-family="Times,serif" font-size="14.00">set_teacher</text>
<text text-anchor="start" x="242.458" y="-79.8" font-family="Times,serif" font-size="14.00">teacher_params</text>
</g>
</g>
</svg>
