<?xml version="1.0" encoding="UTF-8" standalone="no"?>
<!DOCTYPE svg PUBLIC "-//W3C//DTD SVG 1.1//EN"
 "http://www.w3.org/Graphics/SVG/1.1/DTD/svg11.dtd">
<!-- Generated by graphviz version 2.38.0 (20140413.2041)
 -->
<!-- Title: controllers_diagram Pages: 1 -->
<svg width="522pt" height="585pt"
 viewBox="0.00 0.00 521.51 585.00" xmlns="http://www.w3.org/2000/svg" xmlns:xlink="http://www.w3.org/1999/xlink">
<g id="graph0" class="graph" transform="scale(1 1) rotate(0) translate(224.821 360.5)">
<title>controllers_diagram</title>
<polygon fill="white" stroke="none" points="-224.821,224.5 -224.821,-360.5 296.688,-360.5 296.688,224.5 -224.821,224.5"/>
<!-- _diagram_info -->
<g id="node1" class="node"><title>_diagram_info</title>
<text text-anchor="start" x="93.3123" y="127.9" font-family="Times,serif" font-size="13.00">Controllers diagram</text>
<text text-anchor="start" x="93.3123" y="140.9" font-family="Times,serif" font-size="13.00">Date: Jan 26 2015 &#45; 15:26</text>
<text text-anchor="start" x="93.3123" y="153.9" font-family="Times,serif" font-size="13.00">Migration version: 20150125152445</text>
<text text-anchor="start" x="93.3123" y="166.9" font-family="Times,serif" font-size="13.00">Generated by RailRoady 1.3.0</text>
<text text-anchor="start" x="93.3123" y="179.9" font-family="Times,serif" font-size="13.00">http://railroady.prestonlee.com</text>
</g>
<!-- ApplicationController -->
<g id="node2" class="node"><title>ApplicationController</title>
<path fill="none" stroke="black" d="M-208.821,220C-208.821,220 -93.1792,220 -93.1792,220 -87.1792,220 -81.1792,214 -81.1792,208 -81.1792,208 -81.1792,140 -81.1792,140 -81.1792,134 -87.1792,128 -93.1792,128 -93.1792,128 -208.821,128 -208.821,128 -214.821,128 -220.821,134 -220.821,140 -220.821,140 -220.821,208 -220.821,208 -220.821,214 -214.821,220 -208.821,220"/>
<text text-anchor="middle" x="-151" y="143.2" font-family="Times,serif" font-size="14.00">ApplicationController</text>
<polyline fill="none" stroke="black" points="-220.821,150 -81.1792,150 "/>
<polyline fill="none" stroke="black" points="-220.821,174 -81.1792,174 "/>
<polyline fill="none" stroke="black" points="-220.821,198 -81.1792,198 "/>
<text text-anchor="start" x="-212.821" y="213.2" font-family="Times,serif" font-size="14.00">_layout</text>
</g>
<!-- GroupsController -->
<g id="node3" class="node"><title>GroupsController</title>
<path fill="none" stroke="black" d="M-56.3828,-137C-56.3828,-137 34.3828,-137 34.3828,-137 40.3828,-137 46.3828,-143 46.3828,-149 46.3828,-149 46.3828,-327 46.3828,-327 46.3828,-333 40.3828,-339 34.3828,-339 34.3828,-339 -56.3828,-339 -56.3828,-339 -62.3828,-339 -68.3828,-333 -68.3828,-327 -68.3828,-327 -68.3828,-149 -68.3828,-149 -68.3828,-143 -62.3828,-137 -56.3828,-137"/>
<text text-anchor="middle" x="-11" y="-323.8" font-family="Times,serif" font-size="14.00">GroupsController</text>
<polyline fill="none" stroke="black" points="-68.3828,-317 46.3828,-317 "/>
<text text-anchor="start" x="-60.3828" y="-301.8" font-family="Times,serif" font-size="14.00">create</text>
<text text-anchor="start" x="-60.3828" y="-287.8" font-family="Times,serif" font-size="14.00">destroy</text>
<text text-anchor="start" x="-60.3828" y="-273.8" font-family="Times,serif" font-size="14.00">edit</text>
<text text-anchor="start" x="-60.3828" y="-259.8" font-family="Times,serif" font-size="14.00">index</text>
<text text-anchor="start" x="-60.3828" y="-245.8" font-family="Times,serif" font-size="14.00">new</text>
<text text-anchor="start" x="-60.3828" y="-231.8" font-family="Times,serif" font-size="14.00">show</text>
<text text-anchor="start" x="-60.3828" y="-217.8" font-family="Times,serif" font-size="14.00">update</text>
<polyline fill="none" stroke="black" points="-68.3828,-211 46.3828,-211 "/>
<polyline fill="none" stroke="black" points="-68.3828,-187 46.3828,-187 "/>
<text text-anchor="start" x="-60.3828" y="-171.8" font-family="Times,serif" font-size="14.00">_layout</text>
<text text-anchor="start" x="-60.3828" y="-157.8" font-family="Times,serif" font-size="14.00">group_params</text>
<text text-anchor="start" x="-60.3828" y="-143.8" font-family="Times,serif" font-size="14.00">set_group</text>
</g>
<!-- PagesController -->
<g id="node4" class="node"><title>PagesController</title>
<path fill="none" stroke="black" d="M-192.104,-205C-192.104,-205 -109.896,-205 -109.896,-205 -103.896,-205 -97.8965,-211 -97.8965,-217 -97.8965,-217 -97.8965,-297 -97.8965,-297 -97.8965,-303 -103.896,-309 -109.896,-309 -109.896,-309 -192.104,-309 -192.104,-309 -198.104,-309 -204.104,-303 -204.104,-297 -204.104,-297 -204.104,-217 -204.104,-217 -204.104,-211 -198.104,-205 -192.104,-205"/>
<text text-anchor="middle" x="-151" y="-293.8" font-family="Times,serif" font-size="14.00">PagesController</text>
<polyline fill="none" stroke="black" points="-204.104,-287 -97.8965,-287 "/>
<text text-anchor="start" x="-196.104" y="-271.8" font-family="Times,serif" font-size="14.00">about</text>
<text text-anchor="start" x="-196.104" y="-257.8" font-family="Times,serif" font-size="14.00">home</text>
<polyline fill="none" stroke="black" points="-204.104,-251 -97.8965,-251 "/>
<polyline fill="none" stroke="black" points="-204.104,-227 -97.8965,-227 "/>
<text text-anchor="start" x="-196.104" y="-211.8" font-family="Times,serif" font-size="14.00">_layout</text>
</g>
<!-- PhotosController -->
<g id="node5" class="node"><title>PhotosController</title>
<path fill="none" stroke="black" d="M165.166,-154C165.166,-154 252.834,-154 252.834,-154 258.834,-154 264.834,-160 264.834,-166 264.834,-166 264.834,-344 264.834,-344 264.834,-350 258.834,-356 252.834,-356 252.834,-356 165.166,-356 165.166,-356 159.166,-356 153.166,-350 153.166,-344 153.166,-344 153.166,-166 153.166,-166 153.166,-160 159.166,-154 165.166,-154"/>
<text text-anchor="middle" x="209" y="-340.8" font-family="Times,serif" font-size="14.00">PhotosController</text>
<polyline fill="none" stroke="black" points="153.166,-334 264.834,-334 "/>
<text text-anchor="start" x="161.166" y="-318.8" font-family="Times,serif" font-size="14.00">create</text>
<text text-anchor="start" x="161.166" y="-304.8" font-family="Times,serif" font-size="14.00">destroy</text>
<text text-anchor="start" x="161.166" y="-290.8" font-family="Times,serif" font-size="14.00">edit</text>
<text text-anchor="start" x="161.166" y="-276.8" font-family="Times,serif" font-size="14.00">index</text>
<text text-anchor="start" x="161.166" y="-262.8" font-family="Times,serif" font-size="14.00">new</text>
<text text-anchor="start" x="161.166" y="-248.8" font-family="Times,serif" font-size="14.00">show</text>
<text text-anchor="start" x="161.166" y="-234.8" font-family="Times,serif" font-size="14.00">update</text>
<polyline fill="none" stroke="black" points="153.166,-228 264.834,-228 "/>
<polyline fill="none" stroke="black" points="153.166,-204 264.834,-204 "/>
<text text-anchor="start" x="161.166" y="-188.8" font-family="Times,serif" font-size="14.00">_layout</text>
<text text-anchor="start" x="161.166" y="-174.8" font-family="Times,serif" font-size="14.00">photo_params</text>
<text text-anchor="start" x="161.166" y="-160.8" font-family="Times,serif" font-size="14.00">set_photo</text>
</g>
<!-- StudentsController -->
<g id="node6" class="node"><title>StudentsController</title>
<path fill="none" stroke="black" d="M97.1138,84C97.1138,84 194.886,84 194.886,84 200.886,84 206.886,78 206.886,72 206.886,72 206.886,-106 206.886,-106 206.886,-112 200.886,-118 194.886,-118 194.886,-118 97.1138,-118 97.1138,-118 91.1138,-118 85.1138,-112 85.1138,-106 85.1138,-106 85.1138,72 85.1138,72 85.1138,78 91.1138,84 97.1138,84"/>
<text text-anchor="middle" x="146" y="-102.8" font-family="Times,serif" font-size="14.00">StudentsController</text>
<polyline fill="none" stroke="black" points="85.1138,-96 206.886,-96 "/>
<text text-anchor="start" x="93.1138" y="-80.8" font-family="Times,serif" font-size="14.00">create</text>
<text text-anchor="start" x="93.1138" y="-66.8" font-family="Times,serif" font-size="14.00">destroy</text>
<text text-anchor="start" x="93.1138" y="-52.8" font-family="Times,serif" font-size="14.00">edit</text>
<text text-anchor="start" x="93.1138" y="-38.8" font-family="Times,serif" font-size="14.00">index</text>
<text text-anchor="start" x="93.1138" y="-24.8" font-family="Times,serif" font-size="14.00">new</text>
<text text-anchor="start" x="93.1138" y="-10.8" font-family="Times,serif" font-size="14.00">show</text>
<text text-anchor="start" x="93.1138" y="3.2" font-family="Times,serif" font-size="14.00">update</text>
<polyline fill="none" stroke="black" points="85.1138,10 206.886,10 "/>
<polyline fill="none" stroke="black" points="85.1138,34 206.886,34 "/>
<text text-anchor="start" x="93.1138" y="49.2" font-family="Times,serif" font-size="14.00">_layout</text>
<text text-anchor="start" x="93.1138" y="63.2" font-family="Times,serif" font-size="14.00">set_student</text>
<text text-anchor="start" x="93.1138" y="77.2" font-family="Times,serif" font-size="14.00">student_params</text>
</g>
<!-- TeachersController -->
<g id="node7" class="node"><title>TeachersController</title>
<path fill="none" stroke="black" d="M-55.5425,101C-55.5425,101 43.5425,101 43.5425,101 49.5425,101 55.5425,95 55.5425,89 55.5425,89 55.5425,-89 55.5425,-89 55.5425,-95 49.5425,-101 43.5425,-101 43.5425,-101 -55.5425,-101 -55.5425,-101 -61.5425,-101 -67.5425,-95 -67.5425,-89 -67.5425,-89 -67.5425,89 -67.5425,89 -67.5425,95 -61.5425,101 -55.5425,101"/>
<text text-anchor="middle" x="-6" y="-85.8" font-family="Times,serif" font-size="14.00">TeachersController</text>
<polyline fill="none" stroke="black" points="-67.5425,-79 55.5425,-79 "/>
<text text-anchor="start" x="-59.5425" y="-63.8" font-family="Times,serif" font-size="14.00">create</text>
<text text-anchor="start" x="-59.5425" y="-49.8" font-family="Times,serif" font-size="14.00">destroy</text>
<text text-anchor="start" x="-59.5425" y="-35.8" font-family="Times,serif" font-size="14.00">edit</text>
<text text-anchor="start" x="-59.5425" y="-21.8" font-family="Times,serif" font-size="14.00">index</text>
<text text-anchor="start" x="-59.5425" y="-7.8" font-family="Times,serif" font-size="14.00">new</text>
<text text-anchor="start" x="-59.5425" y="6.2" font-family="Times,serif" font-size="14.00">show</text>
<text text-anchor="start" x="-59.5425" y="20.2" font-family="Times,serif" font-size="14.00">update</text>
<polyline fill="none" stroke="black" points="-67.5425,27 55.5425,27 "/>
<polyline fill="none" stroke="black" points="-67.5425,51 55.5425,51 "/>
<text text-anchor="start" x="-59.5425" y="66.2" font-family="Times,serif" font-size="14.00">_layout</text>
<text text-anchor="start" x="-59.5425" y="80.2" font-family="Times,serif" font-size="14.00">set_teacher</text>
<text text-anchor="start" x="-59.5425" y="94.2" font-family="Times,serif" font-size="14.00">teacher_params</text>
</g>
</g>
</svg>
