<?xml version="1.0" encoding="UTF-8" standalone="no"?>
<!DOCTYPE svg PUBLIC "-//W3C//DTD SVG 1.1//EN"
 "http://www.w3.org/Graphics/SVG/1.1/DTD/svg11.dtd">
<!-- Generated by graphviz version 2.38.0 (20140413.2041)
 -->
<!-- Title: controllers_diagram Pages: 1 -->
<svg width="634pt" height="643pt"
 viewBox="0.00 0.00 634.20 643.00" xmlns="http://www.w3.org/2000/svg" xmlns:xlink="http://www.w3.org/1999/xlink">
<g id="graph0" class="graph" transform="scale(1 1) rotate(0) translate(238.383 441.5)">
<title>controllers_diagram</title>
<polygon fill="white" stroke="none" points="-238.383,201.5 -238.383,-441.5 395.821,-441.5 395.821,201.5 -238.383,201.5"/>
<!-- _diagram_info -->
<g id="node1" class="node"><title>_diagram_info</title>
<text text-anchor="start" x="98.3123" y="138.9" font-family="Times,serif" font-size="13.00">Controllers diagram</text>
<text text-anchor="start" x="98.3123" y="151.9" font-family="Times,serif" font-size="13.00">Date: Feb 24 2015 &#45; 18:03</text>
<text text-anchor="start" x="98.3123" y="164.9" font-family="Times,serif" font-size="13.00">Migration version: 20150223064202</text>
<text text-anchor="start" x="98.3123" y="177.9" font-family="Times,serif" font-size="13.00">Generated by RailRoady 1.3.0</text>
<text text-anchor="start" x="98.3123" y="190.9" font-family="Times,serif" font-size="13.00">http://railroady.prestonlee.com</text>
</g>
<!-- ApplicationController -->
<g id="node2" class="node"><title>ApplicationController</title>
<path fill="none" stroke="black" d="M264.179,89C264.179,89 379.821,89 379.821,89 385.821,89 391.821,83 391.821,77 391.821,77 391.821,-5 391.821,-5 391.821,-11 385.821,-17 379.821,-17 379.821,-17 264.179,-17 264.179,-17 258.179,-17 252.179,-11 252.179,-5 252.179,-5 252.179,77 252.179,77 252.179,83 258.179,89 264.179,89"/>
<text text-anchor="middle" x="322" y="-1.8" font-family="Times,serif" font-size="14.00">ApplicationController</text>
<polyline fill="none" stroke="black" points="252.179,5 391.821,5 "/>
<polyline fill="none" stroke="black" points="252.179,29 391.821,29 "/>
<polyline fill="none" stroke="black" points="252.179,53 391.821,53 "/>
<text text-anchor="start" x="260.179" y="68.2" font-family="Times,serif" font-size="14.00">_layout</text>
<text text-anchor="start" x="260.179" y="82.2" font-family="Times,serif" font-size="14.00">verify_is_admin</text>
</g>
<!-- AppointmentsController -->
<g id="node3" class="node"><title>AppointmentsController</title>
<path fill="none" stroke="black" d="M-78.438,107C-78.438,107 50.438,107 50.438,107 56.438,107 62.438,101 62.438,95 62.438,95 62.438,-83 62.438,-83 62.438,-89 56.438,-95 50.438,-95 50.438,-95 -78.438,-95 -78.438,-95 -84.438,-95 -90.438,-89 -90.438,-83 -90.438,-83 -90.438,95 -90.438,95 -90.438,101 -84.438,107 -78.438,107"/>
<text text-anchor="middle" x="-14" y="-79.8" font-family="Times,serif" font-size="14.00">AppointmentsController</text>
<polyline fill="none" stroke="black" points="-90.438,-73 62.438,-73 "/>
<text text-anchor="start" x="-82.438" y="-57.8" font-family="Times,serif" font-size="14.00">create</text>
<text text-anchor="start" x="-82.438" y="-43.8" font-family="Times,serif" font-size="14.00">destroy</text>
<text text-anchor="start" x="-82.438" y="-29.8" font-family="Times,serif" font-size="14.00">edit</text>
<text text-anchor="start" x="-82.438" y="-15.8" font-family="Times,serif" font-size="14.00">index</text>
<text text-anchor="start" x="-82.438" y="-1.8" font-family="Times,serif" font-size="14.00">new</text>
<text text-anchor="start" x="-82.438" y="12.2" font-family="Times,serif" font-size="14.00">show</text>
<text text-anchor="start" x="-82.438" y="26.2" font-family="Times,serif" font-size="14.00">update</text>
<polyline fill="none" stroke="black" points="-90.438,33 62.438,33 "/>
<polyline fill="none" stroke="black" points="-90.438,57 62.438,57 "/>
<text text-anchor="start" x="-82.438" y="72.2" font-family="Times,serif" font-size="14.00">_layout</text>
<text text-anchor="start" x="-82.438" y="86.2" font-family="Times,serif" font-size="14.00">appointment_params</text>
<text text-anchor="start" x="-82.438" y="100.2" font-family="Times,serif" font-size="14.00">set_appointment</text>
</g>
<!-- GroupsController -->
<g id="node4" class="node"><title>GroupsController</title>
<path fill="none" stroke="black" d="M-222.383,-1C-222.383,-1 -131.617,-1 -131.617,-1 -125.617,-1 -119.617,-7 -119.617,-13 -119.617,-13 -119.617,-191 -119.617,-191 -119.617,-197 -125.617,-203 -131.617,-203 -131.617,-203 -222.383,-203 -222.383,-203 -228.383,-203 -234.383,-197 -234.383,-191 -234.383,-191 -234.383,-13 -234.383,-13 -234.383,-7 -228.383,-1 -222.383,-1"/>
<text text-anchor="middle" x="-177" y="-187.8" font-family="Times,serif" font-size="14.00">GroupsController</text>
<polyline fill="none" stroke="black" points="-234.383,-181 -119.617,-181 "/>
<text text-anchor="start" x="-226.383" y="-165.8" font-family="Times,serif" font-size="14.00">create</text>
<text text-anchor="start" x="-226.383" y="-151.8" font-family="Times,serif" font-size="14.00">destroy</text>
<text text-anchor="start" x="-226.383" y="-137.8" font-family="Times,serif" font-size="14.00">edit</text>
<text text-anchor="start" x="-226.383" y="-123.8" font-family="Times,serif" font-size="14.00">index</text>
<text text-anchor="start" x="-226.383" y="-109.8" font-family="Times,serif" font-size="14.00">new</text>
<text text-anchor="start" x="-226.383" y="-95.8" font-family="Times,serif" font-size="14.00">show</text>
<text text-anchor="start" x="-226.383" y="-81.8" font-family="Times,serif" font-size="14.00">update</text>
<polyline fill="none" stroke="black" points="-234.383,-75 -119.617,-75 "/>
<polyline fill="none" stroke="black" points="-234.383,-51 -119.617,-51 "/>
<text text-anchor="start" x="-226.383" y="-35.8" font-family="Times,serif" font-size="14.00">_layout</text>
<text text-anchor="start" x="-226.383" y="-21.8" font-family="Times,serif" font-size="14.00">group_params</text>
<text text-anchor="start" x="-226.383" y="-7.8" font-family="Times,serif" font-size="14.00">set_group</text>
</g>
<!-- InqueriesController -->
<g id="node5" class="node"><title>InqueriesController</title>
<path fill="none" stroke="black" d="M-59.8174,-127C-59.8174,-127 41.8174,-127 41.8174,-127 47.8174,-127 53.8174,-133 53.8174,-139 53.8174,-139 53.8174,-317 53.8174,-317 53.8174,-323 47.8174,-329 41.8174,-329 41.8174,-329 -59.8174,-329 -59.8174,-329 -65.8174,-329 -71.8174,-323 -71.8174,-317 -71.8174,-317 -71.8174,-139 -71.8174,-139 -71.8174,-133 -65.8174,-127 -59.8174,-127"/>
<text text-anchor="middle" x="-9" y="-313.8" font-family="Times,serif" font-size="14.00">InqueriesController</text>
<polyline fill="none" stroke="black" points="-71.8174,-307 53.8174,-307 "/>
<text text-anchor="start" x="-63.8174" y="-291.8" font-family="Times,serif" font-size="14.00">create</text>
<text text-anchor="start" x="-63.8174" y="-277.8" font-family="Times,serif" font-size="14.00">destroy</text>
<text text-anchor="start" x="-63.8174" y="-263.8" font-family="Times,serif" font-size="14.00">edit</text>
<text text-anchor="start" x="-63.8174" y="-249.8" font-family="Times,serif" font-size="14.00">index</text>
<text text-anchor="start" x="-63.8174" y="-235.8" font-family="Times,serif" font-size="14.00">new</text>
<text text-anchor="start" x="-63.8174" y="-221.8" font-family="Times,serif" font-size="14.00">show</text>
<text text-anchor="start" x="-63.8174" y="-207.8" font-family="Times,serif" font-size="14.00">update</text>
<polyline fill="none" stroke="black" points="-71.8174,-201 53.8174,-201 "/>
<polyline fill="none" stroke="black" points="-71.8174,-177 53.8174,-177 "/>
<text text-anchor="start" x="-63.8174" y="-161.8" font-family="Times,serif" font-size="14.00">_layout</text>
<text text-anchor="start" x="-63.8174" y="-147.8" font-family="Times,serif" font-size="14.00">inquery_params</text>
<text text-anchor="start" x="-63.8174" y="-133.8" font-family="Times,serif" font-size="14.00">set_inquery</text>
</g>
<!-- PagesController -->
<g id="node6" class="node"><title>PagesController</title>
<path fill="none" stroke="black" d="M-222.104,143C-222.104,143 -139.896,143 -139.896,143 -133.896,143 -127.896,137 -127.896,131 -127.896,131 -127.896,51 -127.896,51 -127.896,45 -133.896,39 -139.896,39 -139.896,39 -222.104,39 -222.104,39 -228.104,39 -234.104,45 -234.104,51 -234.104,51 -234.104,131 -234.104,131 -234.104,137 -228.104,143 -222.104,143"/>
<text text-anchor="middle" x="-181" y="54.2" font-family="Times,serif" font-size="14.00">PagesController</text>
<polyline fill="none" stroke="black" points="-234.104,61 -127.896,61 "/>
<text text-anchor="start" x="-226.104" y="76.2" font-family="Times,serif" font-size="14.00">about</text>
<text text-anchor="start" x="-226.104" y="90.2" font-family="Times,serif" font-size="14.00">home</text>
<polyline fill="none" stroke="black" points="-234.104,97 -127.896,97 "/>
<polyline fill="none" stroke="black" points="-234.104,121 -127.896,121 "/>
<text text-anchor="start" x="-226.104" y="136.2" font-family="Times,serif" font-size="14.00">_layout</text>
</g>
<!-- PhotosController -->
<g id="node7" class="node"><title>PhotosController</title>
<path fill="none" stroke="black" d="M156.166,-145C156.166,-145 243.834,-145 243.834,-145 249.834,-145 255.834,-151 255.834,-157 255.834,-157 255.834,-335 255.834,-335 255.834,-341 249.834,-347 243.834,-347 243.834,-347 156.166,-347 156.166,-347 150.166,-347 144.166,-341 144.166,-335 144.166,-335 144.166,-157 144.166,-157 144.166,-151 150.166,-145 156.166,-145"/>
<text text-anchor="middle" x="200" y="-331.8" font-family="Times,serif" font-size="14.00">PhotosController</text>
<polyline fill="none" stroke="black" points="144.166,-325 255.834,-325 "/>
<text text-anchor="start" x="152.166" y="-309.8" font-family="Times,serif" font-size="14.00">create</text>
<text text-anchor="start" x="152.166" y="-295.8" font-family="Times,serif" font-size="14.00">destroy</text>
<text text-anchor="start" x="152.166" y="-281.8" font-family="Times,serif" font-size="14.00">edit</text>
<text text-anchor="start" x="152.166" y="-267.8" font-family="Times,serif" font-size="14.00">index</text>
<text text-anchor="start" x="152.166" y="-253.8" font-family="Times,serif" font-size="14.00">new</text>
<text text-anchor="start" x="152.166" y="-239.8" font-family="Times,serif" font-size="14.00">show</text>
<text text-anchor="start" x="152.166" y="-225.8" font-family="Times,serif" font-size="14.00">update</text>
<polyline fill="none" stroke="black" points="144.166,-219 255.834,-219 "/>
<polyline fill="none" stroke="black" points="144.166,-195 255.834,-195 "/>
<text text-anchor="start" x="152.166" y="-179.8" font-family="Times,serif" font-size="14.00">_layout</text>
<text text-anchor="start" x="152.166" y="-165.8" font-family="Times,serif" font-size="14.00">photo_params</text>
<text text-anchor="start" x="152.166" y="-151.8" font-family="Times,serif" font-size="14.00">set_photo</text>
</g>
<!-- StudentsController -->
<g id="node8" class="node"><title>StudentsController</title>
<path fill="none" stroke="black" d="M-221.886,-235C-221.886,-235 -124.114,-235 -124.114,-235 -118.114,-235 -112.114,-241 -112.114,-247 -112.114,-247 -112.114,-425 -112.114,-425 -112.114,-431 -118.114,-437 -124.114,-437 -124.114,-437 -221.886,-437 -221.886,-437 -227.886,-437 -233.886,-431 -233.886,-425 -233.886,-425 -233.886,-247 -233.886,-247 -233.886,-241 -227.886,-235 -221.886,-235"/>
<text text-anchor="middle" x="-173" y="-421.8" font-family="Times,serif" font-size="14.00">StudentsController</text>
<polyline fill="none" stroke="black" points="-233.886,-415 -112.114,-415 "/>
<text text-anchor="start" x="-225.886" y="-399.8" font-family="Times,serif" font-size="14.00">create</text>
<text text-anchor="start" x="-225.886" y="-385.8" font-family="Times,serif" font-size="14.00">destroy</text>
<text text-anchor="start" x="-225.886" y="-371.8" font-family="Times,serif" font-size="14.00">edit</text>
<text text-anchor="start" x="-225.886" y="-357.8" font-family="Times,serif" font-size="14.00">index</text>
<text text-anchor="start" x="-225.886" y="-343.8" font-family="Times,serif" font-size="14.00">new</text>
<text text-anchor="start" x="-225.886" y="-329.8" font-family="Times,serif" font-size="14.00">show</text>
<text text-anchor="start" x="-225.886" y="-315.8" font-family="Times,serif" font-size="14.00">update</text>
<polyline fill="none" stroke="black" points="-233.886,-309 -112.114,-309 "/>
<polyline fill="none" stroke="black" points="-233.886,-285 -112.114,-285 "/>
<text text-anchor="start" x="-225.886" y="-269.8" font-family="Times,serif" font-size="14.00">_layout</text>
<text text-anchor="start" x="-225.886" y="-255.8" font-family="Times,serif" font-size="14.00">set_student</text>
<text text-anchor="start" x="-225.886" y="-241.8" font-family="Times,serif" font-size="14.00">student_params</text>
</g>
<!-- TeachersController -->
<g id="node9" class="node"><title>TeachersController</title>
<path fill="none" stroke="black" d="M102.458,89C102.458,89 201.542,89 201.542,89 207.542,89 213.542,83 213.542,77 213.542,77 213.542,-101 213.542,-101 213.542,-107 207.542,-113 201.542,-113 201.542,-113 102.458,-113 102.458,-113 96.4575,-113 90.4575,-107 90.4575,-101 90.4575,-101 90.4575,77 90.4575,77 90.4575,83 96.4575,89 102.458,89"/>
<text text-anchor="middle" x="152" y="-97.8" font-family="Times,serif" font-size="14.00">TeachersController</text>
<polyline fill="none" stroke="black" points="90.4575,-91 213.542,-91 "/>
<text text-anchor="start" x="98.4575" y="-75.8" font-family="Times,serif" font-size="14.00">create</text>
<text text-anchor="start" x="98.4575" y="-61.8" font-family="Times,serif" font-size="14.00">destroy</text>
<text text-anchor="start" x="98.4575" y="-47.8" font-family="Times,serif" font-size="14.00">edit</text>
<text text-anchor="start" x="98.4575" y="-33.8" font-family="Times,serif" font-size="14.00">index</text>
<text text-anchor="start" x="98.4575" y="-19.8" font-family="Times,serif" font-size="14.00">new</text>
<text text-anchor="start" x="98.4575" y="-5.8" font-family="Times,serif" font-size="14.00">show</text>
<text text-anchor="start" x="98.4575" y="8.2" font-family="Times,serif" font-size="14.00">update</text>
<polyline fill="none" stroke="black" points="90.4575,15 213.542,15 "/>
<polyline fill="none" stroke="black" points="90.4575,39 213.542,39 "/>
<text text-anchor="start" x="98.4575" y="54.2" font-family="Times,serif" font-size="14.00">_layout</text>
<text text-anchor="start" x="98.4575" y="68.2" font-family="Times,serif" font-size="14.00">set_teacher</text>
<text text-anchor="start" x="98.4575" y="82.2" font-family="Times,serif" font-size="14.00">teacher_params</text>
</g>
</g>
</svg>
