<?xml version="1.0" encoding="UTF-8" standalone="no"?>
<!DOCTYPE svg PUBLIC "-//W3C//DTD SVG 1.1//EN"
 "http://www.w3.org/Graphics/SVG/1.1/DTD/svg11.dtd">
<!-- Generated by graphviz version 2.38.0 (20140413.2041)
 -->
<!-- Title: controllers_diagram Pages: 1 -->
<svg width="590pt" height="619pt"
 viewBox="0.00 0.00 590.49 619.00" xmlns="http://www.w3.org/2000/svg" xmlns:xlink="http://www.w3.org/1999/xlink">
<g id="graph0" class="graph" transform="scale(1 1) rotate(0) translate(242.383 377.5)">
<title>controllers_diagram</title>
<polygon fill="white" stroke="none" points="-242.383,241.5 -242.383,-377.5 348.104,-377.5 348.104,241.5 -242.383,241.5"/>
<!-- _diagram_info -->
<g id="node1" class="node"><title>_diagram_info</title>
<text text-anchor="start" x="7.55029" y="144.9" font-family="Times,serif" font-size="13.00">Controllers diagram</text>
<text text-anchor="start" x="7.55029" y="157.9" font-family="Times,serif" font-size="13.00">Date: Jan 28 2015 &#45; 00:02</text>
<text text-anchor="start" x="7.55029" y="170.9" font-family="Times,serif" font-size="13.00">Migration version: 20150127114849</text>
<text text-anchor="start" x="7.55029" y="183.9" font-family="Times,serif" font-size="13.00">Generated by RailRoady 1.3.0</text>
<text text-anchor="start" x="7.55029" y="196.9" font-family="Times,serif" font-size="13.00">http://railroady.prestonlee.com</text>
</g>
<!-- ApplicationController -->
<g id="node2" class="node"><title>ApplicationController</title>
<path fill="none" stroke="black" d="M-208.821,220C-208.821,220 -93.1792,220 -93.1792,220 -87.1792,220 -81.1792,214 -81.1792,208 -81.1792,208 -81.1792,140 -81.1792,140 -81.1792,134 -87.1792,128 -93.1792,128 -93.1792,128 -208.821,128 -208.821,128 -214.821,128 -220.821,134 -220.821,140 -220.821,140 -220.821,208 -220.821,208 -220.821,214 -214.821,220 -208.821,220"/>
<text text-anchor="middle" x="-151" y="143.2" font-family="Times,serif" font-size="14.00">ApplicationController</text>
<polyline fill="none" stroke="black" points="-220.821,150 -81.1792,150 "/>
<polyline fill="none" stroke="black" points="-220.821,174 -81.1792,174 "/>
<polyline fill="none" stroke="black" points="-220.821,198 -81.1792,198 "/>
<text text-anchor="start" x="-212.821" y="213.2" font-family="Times,serif" font-size="14.00">_layout</text>
</g>
<!-- AppointmentsController -->
<g id="node3" class="node"><title>AppointmentsController</title>
<path fill="none" stroke="black" d="M-73.438,101C-73.438,101 55.438,101 55.438,101 61.438,101 67.438,95 67.438,89 67.438,89 67.438,-89 67.438,-89 67.438,-95 61.438,-101 55.438,-101 55.438,-101 -73.438,-101 -73.438,-101 -79.438,-101 -85.438,-95 -85.438,-89 -85.438,-89 -85.438,89 -85.438,89 -85.438,95 -79.438,101 -73.438,101"/>
<text text-anchor="middle" x="-9" y="-85.8" font-family="Times,serif" font-size="14.00">AppointmentsController</text>
<polyline fill="none" stroke="black" points="-85.438,-79 67.438,-79 "/>
<text text-anchor="start" x="-77.438" y="-63.8" font-family="Times,serif" font-size="14.00">create</text>
<text text-anchor="start" x="-77.438" y="-49.8" font-family="Times,serif" font-size="14.00">destroy</text>
<text text-anchor="start" x="-77.438" y="-35.8" font-family="Times,serif" font-size="14.00">edit</text>
<text text-anchor="start" x="-77.438" y="-21.8" font-family="Times,serif" font-size="14.00">index</text>
<text text-anchor="start" x="-77.438" y="-7.8" font-family="Times,serif" font-size="14.00">new</text>
<text text-anchor="start" x="-77.438" y="6.2" font-family="Times,serif" font-size="14.00">show</text>
<text text-anchor="start" x="-77.438" y="20.2" font-family="Times,serif" font-size="14.00">update</text>
<polyline fill="none" stroke="black" points="-85.438,27 67.438,27 "/>
<polyline fill="none" stroke="black" points="-85.438,51 67.438,51 "/>
<text text-anchor="start" x="-77.438" y="66.2" font-family="Times,serif" font-size="14.00">_layout</text>
<text text-anchor="start" x="-77.438" y="80.2" font-family="Times,serif" font-size="14.00">appointment_params</text>
<text text-anchor="start" x="-77.438" y="94.2" font-family="Times,serif" font-size="14.00">set_appointment</text>
</g>
<!-- GroupsController -->
<g id="node4" class="node"><title>GroupsController</title>
<path fill="none" stroke="black" d="M-226.383,67C-226.383,67 -135.617,67 -135.617,67 -129.617,67 -123.617,61 -123.617,55 -123.617,55 -123.617,-123 -123.617,-123 -123.617,-129 -129.617,-135 -135.617,-135 -135.617,-135 -226.383,-135 -226.383,-135 -232.383,-135 -238.383,-129 -238.383,-123 -238.383,-123 -238.383,55 -238.383,55 -238.383,61 -232.383,67 -226.383,67"/>
<text text-anchor="middle" x="-181" y="-119.8" font-family="Times,serif" font-size="14.00">GroupsController</text>
<polyline fill="none" stroke="black" points="-238.383,-113 -123.617,-113 "/>
<text text-anchor="start" x="-230.383" y="-97.8" font-family="Times,serif" font-size="14.00">create</text>
<text text-anchor="start" x="-230.383" y="-83.8" font-family="Times,serif" font-size="14.00">destroy</text>
<text text-anchor="start" x="-230.383" y="-69.8" font-family="Times,serif" font-size="14.00">edit</text>
<text text-anchor="start" x="-230.383" y="-55.8" font-family="Times,serif" font-size="14.00">index</text>
<text text-anchor="start" x="-230.383" y="-41.8" font-family="Times,serif" font-size="14.00">new</text>
<text text-anchor="start" x="-230.383" y="-27.8" font-family="Times,serif" font-size="14.00">show</text>
<text text-anchor="start" x="-230.383" y="-13.8" font-family="Times,serif" font-size="14.00">update</text>
<polyline fill="none" stroke="black" points="-238.383,-7 -123.617,-7 "/>
<polyline fill="none" stroke="black" points="-238.383,17 -123.617,17 "/>
<text text-anchor="start" x="-230.383" y="32.2" font-family="Times,serif" font-size="14.00">_layout</text>
<text text-anchor="start" x="-230.383" y="46.2" font-family="Times,serif" font-size="14.00">group_params</text>
<text text-anchor="start" x="-230.383" y="60.2" font-family="Times,serif" font-size="14.00">set_group</text>
</g>
<!-- InqueriesController -->
<g id="node5" class="node"><title>InqueriesController</title>
<path fill="none" stroke="black" d="M148.183,-137C148.183,-137 249.817,-137 249.817,-137 255.817,-137 261.817,-143 261.817,-149 261.817,-149 261.817,-327 261.817,-327 261.817,-333 255.817,-339 249.817,-339 249.817,-339 148.183,-339 148.183,-339 142.183,-339 136.183,-333 136.183,-327 136.183,-327 136.183,-149 136.183,-149 136.183,-143 142.183,-137 148.183,-137"/>
<text text-anchor="middle" x="199" y="-323.8" font-family="Times,serif" font-size="14.00">InqueriesController</text>
<polyline fill="none" stroke="black" points="136.183,-317 261.817,-317 "/>
<text text-anchor="start" x="144.183" y="-301.8" font-family="Times,serif" font-size="14.00">create</text>
<text text-anchor="start" x="144.183" y="-287.8" font-family="Times,serif" font-size="14.00">destroy</text>
<text text-anchor="start" x="144.183" y="-273.8" font-family="Times,serif" font-size="14.00">edit</text>
<text text-anchor="start" x="144.183" y="-259.8" font-family="Times,serif" font-size="14.00">index</text>
<text text-anchor="start" x="144.183" y="-245.8" font-family="Times,serif" font-size="14.00">new</text>
<text text-anchor="start" x="144.183" y="-231.8" font-family="Times,serif" font-size="14.00">show</text>
<text text-anchor="start" x="144.183" y="-217.8" font-family="Times,serif" font-size="14.00">update</text>
<polyline fill="none" stroke="black" points="136.183,-211 261.817,-211 "/>
<polyline fill="none" stroke="black" points="136.183,-187 261.817,-187 "/>
<text text-anchor="start" x="144.183" y="-171.8" font-family="Times,serif" font-size="14.00">_layout</text>
<text text-anchor="start" x="144.183" y="-157.8" font-family="Times,serif" font-size="14.00">inquery_params</text>
<text text-anchor="start" x="144.183" y="-143.8" font-family="Times,serif" font-size="14.00">set_inquery</text>
</g>
<!-- PagesController -->
<g id="node6" class="node"><title>PagesController</title>
<path fill="none" stroke="black" d="M249.896,237C249.896,237 332.104,237 332.104,237 338.104,237 344.104,231 344.104,225 344.104,225 344.104,145 344.104,145 344.104,139 338.104,133 332.104,133 332.104,133 249.896,133 249.896,133 243.896,133 237.896,139 237.896,145 237.896,145 237.896,225 237.896,225 237.896,231 243.896,237 249.896,237"/>
<text text-anchor="middle" x="291" y="148.2" font-family="Times,serif" font-size="14.00">PagesController</text>
<polyline fill="none" stroke="black" points="237.896,155 344.104,155 "/>
<text text-anchor="start" x="245.896" y="170.2" font-family="Times,serif" font-size="14.00">about</text>
<text text-anchor="start" x="245.896" y="184.2" font-family="Times,serif" font-size="14.00">home</text>
<polyline fill="none" stroke="black" points="237.896,191 344.104,191 "/>
<polyline fill="none" stroke="black" points="237.896,215 344.104,215 "/>
<text text-anchor="start" x="245.896" y="230.2" font-family="Times,serif" font-size="14.00">_layout</text>
</g>
<!-- PhotosController -->
<g id="node7" class="node"><title>PhotosController</title>
<path fill="none" stroke="black" d="M-157.834,-171C-157.834,-171 -70.1655,-171 -70.1655,-171 -64.1655,-171 -58.1655,-177 -58.1655,-183 -58.1655,-183 -58.1655,-361 -58.1655,-361 -58.1655,-367 -64.1655,-373 -70.1655,-373 -70.1655,-373 -157.834,-373 -157.834,-373 -163.834,-373 -169.834,-367 -169.834,-361 -169.834,-361 -169.834,-183 -169.834,-183 -169.834,-177 -163.834,-171 -157.834,-171"/>
<text text-anchor="middle" x="-114" y="-357.8" font-family="Times,serif" font-size="14.00">PhotosController</text>
<polyline fill="none" stroke="black" points="-169.834,-351 -58.1655,-351 "/>
<text text-anchor="start" x="-161.834" y="-335.8" font-family="Times,serif" font-size="14.00">create</text>
<text text-anchor="start" x="-161.834" y="-321.8" font-family="Times,serif" font-size="14.00">destroy</text>
<text text-anchor="start" x="-161.834" y="-307.8" font-family="Times,serif" font-size="14.00">edit</text>
<text text-anchor="start" x="-161.834" y="-293.8" font-family="Times,serif" font-size="14.00">index</text>
<text text-anchor="start" x="-161.834" y="-279.8" font-family="Times,serif" font-size="14.00">new</text>
<text text-anchor="start" x="-161.834" y="-265.8" font-family="Times,serif" font-size="14.00">show</text>
<text text-anchor="start" x="-161.834" y="-251.8" font-family="Times,serif" font-size="14.00">update</text>
<polyline fill="none" stroke="black" points="-169.834,-245 -58.1655,-245 "/>
<polyline fill="none" stroke="black" points="-169.834,-221 -58.1655,-221 "/>
<text text-anchor="start" x="-161.834" y="-205.8" font-family="Times,serif" font-size="14.00">_layout</text>
<text text-anchor="start" x="-161.834" y="-191.8" font-family="Times,serif" font-size="14.00">photo_params</text>
<text text-anchor="start" x="-161.834" y="-177.8" font-family="Times,serif" font-size="14.00">set_photo</text>
</g>
<!-- StudentsController -->
<g id="node8" class="node"><title>StudentsController</title>
<path fill="none" stroke="black" d="M-4.88623,-137C-4.88623,-137 92.8862,-137 92.8862,-137 98.8862,-137 104.886,-143 104.886,-149 104.886,-149 104.886,-327 104.886,-327 104.886,-333 98.8862,-339 92.8862,-339 92.8862,-339 -4.88623,-339 -4.88623,-339 -10.8862,-339 -16.8862,-333 -16.8862,-327 -16.8862,-327 -16.8862,-149 -16.8862,-149 -16.8862,-143 -10.8862,-137 -4.88623,-137"/>
<text text-anchor="middle" x="44" y="-323.8" font-family="Times,serif" font-size="14.00">StudentsController</text>
<polyline fill="none" stroke="black" points="-16.8862,-317 104.886,-317 "/>
<text text-anchor="start" x="-8.88623" y="-301.8" font-family="Times,serif" font-size="14.00">create</text>
<text text-anchor="start" x="-8.88623" y="-287.8" font-family="Times,serif" font-size="14.00">destroy</text>
<text text-anchor="start" x="-8.88623" y="-273.8" font-family="Times,serif" font-size="14.00">edit</text>
<text text-anchor="start" x="-8.88623" y="-259.8" font-family="Times,serif" font-size="14.00">index</text>
<text text-anchor="start" x="-8.88623" y="-245.8" font-family="Times,serif" font-size="14.00">new</text>
<text text-anchor="start" x="-8.88623" y="-231.8" font-family="Times,serif" font-size="14.00">show</text>
<text text-anchor="start" x="-8.88623" y="-217.8" font-family="Times,serif" font-size="14.00">update</text>
<polyline fill="none" stroke="black" points="-16.8862,-211 104.886,-211 "/>
<polyline fill="none" stroke="black" points="-16.8862,-187 104.886,-187 "/>
<text text-anchor="start" x="-8.88623" y="-171.8" font-family="Times,serif" font-size="14.00">_layout</text>
<text text-anchor="start" x="-8.88623" y="-157.8" font-family="Times,serif" font-size="14.00">set_student</text>
<text text-anchor="start" x="-8.88623" y="-143.8" font-family="Times,serif" font-size="14.00">student_params</text>
</g>
<!-- TeachersController -->
<g id="node9" class="node"><title>TeachersController</title>
<path fill="none" stroke="black" d="M114.458,101C114.458,101 213.542,101 213.542,101 219.542,101 225.542,95 225.542,89 225.542,89 225.542,-89 225.542,-89 225.542,-95 219.542,-101 213.542,-101 213.542,-101 114.458,-101 114.458,-101 108.458,-101 102.458,-95 102.458,-89 102.458,-89 102.458,89 102.458,89 102.458,95 108.458,101 114.458,101"/>
<text text-anchor="middle" x="164" y="-85.8" font-family="Times,serif" font-size="14.00">TeachersController</text>
<polyline fill="none" stroke="black" points="102.458,-79 225.542,-79 "/>
<text text-anchor="start" x="110.458" y="-63.8" font-family="Times,serif" font-size="14.00">create</text>
<text text-anchor="start" x="110.458" y="-49.8" font-family="Times,serif" font-size="14.00">destroy</text>
<text text-anchor="start" x="110.458" y="-35.8" font-family="Times,serif" font-size="14.00">edit</text>
<text text-anchor="start" x="110.458" y="-21.8" font-family="Times,serif" font-size="14.00">index</text>
<text text-anchor="start" x="110.458" y="-7.8" font-family="Times,serif" font-size="14.00">new</text>
<text text-anchor="start" x="110.458" y="6.2" font-family="Times,serif" font-size="14.00">show</text>
<text text-anchor="start" x="110.458" y="20.2" font-family="Times,serif" font-size="14.00">update</text>
<polyline fill="none" stroke="black" points="102.458,27 225.542,27 "/>
<polyline fill="none" stroke="black" points="102.458,51 225.542,51 "/>
<text text-anchor="start" x="110.458" y="66.2" font-family="Times,serif" font-size="14.00">_layout</text>
<text text-anchor="start" x="110.458" y="80.2" font-family="Times,serif" font-size="14.00">set_teacher</text>
<text text-anchor="start" x="110.458" y="94.2" font-family="Times,serif" font-size="14.00">teacher_params</text>
</g>
</g>
</svg>
