<?xml version="1.0" encoding="UTF-8" standalone="no"?>
<!DOCTYPE svg PUBLIC "-//W3C//DTD SVG 1.1//EN"
 "http://www.w3.org/Graphics/SVG/1.1/DTD/svg11.dtd">
<!-- Generated by graphviz version 2.38.0 (20140413.2041)
 -->
<!-- Title: models_diagram Pages: 1 -->
<svg width="515pt" height="297pt"
 viewBox="0.00 0.00 515.20 297.00" xmlns="http://www.w3.org/2000/svg" xmlns:xlink="http://www.w3.org/1999/xlink">
<g id="graph0" class="graph" transform="scale(1 1) rotate(0) translate(4 293)">
<title>models_diagram</title>
<polygon fill="white" stroke="none" points="-4,4 -4,-293 511.197,-293 511.197,4 -4,4"/>
<!-- _diagram_info -->
<g id="node1" class="node"><title>_diagram_info</title>
<text text-anchor="start" x="8" y="-274.6" font-family="Times,serif" font-size="13.00">Models diagram</text>
<text text-anchor="start" x="8" y="-261.6" font-family="Times,serif" font-size="13.00">Date: Jan 28 2015 &#45; 00:02</text>
<text text-anchor="start" x="8" y="-248.6" font-family="Times,serif" font-size="13.00">Migration version: 20150127114849</text>
<text text-anchor="start" x="8" y="-235.6" font-family="Times,serif" font-size="13.00">Generated by RailRoady 1.3.0</text>
<text text-anchor="start" x="8" y="-222.6" font-family="Times,serif" font-size="13.00">http://railroady.prestonlee.com</text>
</g>
<!-- Appointment -->
<g id="node2" class="node"><title>Appointment</title>
<ellipse fill="none" stroke="black" cx="281.45" cy="-252.5" rx="56.5545" ry="18"/>
<text text-anchor="middle" x="281.45" y="-248.3" font-family="Times,serif" font-size="14.00">Appointment</text>
</g>
<!-- Student -->
<g id="node6" class="node"><title>Student</title>
<ellipse fill="none" stroke="black" cx="216.45" cy="-162" rx="37.2594" ry="18"/>
<text text-anchor="middle" x="216.45" y="-157.8" font-family="Times,serif" font-size="14.00">Student</text>
</g>
<!-- Appointment&#45;&gt;Student -->
<g id="edge1" class="edge"><title>Appointment&#45;&gt;Student</title>
<path fill="none" stroke="#d91444" d="M264.283,-228.127C255.098,-215.621 243.793,-200.229 234.48,-187.549"/>
<ellipse fill="none" stroke="#d91444" cx="266.856" cy="-231.63" rx="4.00002" ry="4.00002"/>
<polygon fill="#d91444" stroke="#d91444" points="234.321,-187.332 232.028,-176.609 231.361,-183.302 228.401,-179.273 228.401,-179.273 228.401,-179.273 231.361,-183.302 224.774,-181.936 234.321,-187.332 234.321,-187.332"/>
</g>
<!-- Group -->
<g id="node3" class="node"><title>Group</title>
<ellipse fill="none" stroke="black" cx="267.45" cy="-18" rx="32.9081" ry="18"/>
<text text-anchor="middle" x="267.45" y="-13.8" font-family="Times,serif" font-size="14.00">Group</text>
</g>
<!-- Group&#45;&gt;Appointment -->
<g id="edge3" class="edge"><title>Group&#45;&gt;Appointment</title>
<path fill="none" stroke="#7ac00e" d="M291.21,-38.731C300.31,-47.8046 309.653,-59.3612 314.45,-72 334.284,-124.26 311.111,-189.735 294.786,-225.394"/>
<ellipse fill="none" stroke="#7ac00e" cx="288.217" cy="-35.893" rx="4.00002" ry="4.00002"/>
<polygon fill="#7ac00e" stroke="#7ac00e" points="294.692,-225.591 286.339,-232.696 292.548,-230.108 290.404,-234.625 290.404,-234.625 290.404,-234.625 292.548,-230.108 294.469,-236.555 294.692,-225.591 294.692,-225.591"/>
</g>
<!-- Group&#45;&gt;Student -->
<g id="edge2" class="edge"><title>Group&#45;&gt;Student</title>
<path fill="none" stroke="#7fe587" d="M243.966,-38.8393C234.912,-47.9311 225.529,-59.4721 220.45,-72 212.52,-91.5587 211.907,-115.553 213.064,-133.697"/>
<ellipse fill="none" stroke="#7fe587" cx="246.931" cy="-35.9995" rx="4.00002" ry="4.00002"/>
<polygon fill="#7fe587" stroke="#7fe587" points="213.083,-133.923 209.452,-144.27 213.509,-138.905 213.935,-143.886 213.935,-143.886 213.935,-143.886 213.509,-138.905 218.419,-143.503 213.083,-133.923 213.083,-133.923"/>
</g>
<!-- Inquery -->
<g id="node4" class="node"><title>Inquery</title>
<ellipse fill="none" stroke="black" cx="393.45" cy="-252.5" rx="37.7179" ry="18"/>
<text text-anchor="middle" x="393.45" y="-248.3" font-family="Times,serif" font-size="14.00">Inquery</text>
</g>
<!-- Photo -->
<g id="node5" class="node"><title>Photo</title>
<ellipse fill="none" stroke="black" cx="476.45" cy="-162" rx="30.9967" ry="18"/>
<text text-anchor="middle" x="476.45" y="-157.8" font-family="Times,serif" font-size="14.00">Photo</text>
</g>
<!-- Teacher -->
<g id="node7" class="node"><title>Teacher</title>
<ellipse fill="none" stroke="black" cx="267.45" cy="-90" rx="37.9172" ry="18"/>
<text text-anchor="middle" x="267.45" y="-85.8" font-family="Times,serif" font-size="14.00">Teacher</text>
</g>
<!-- Student&#45;&gt;Teacher -->
<g id="edge4" class="edge"><title>Student&#45;&gt;Teacher</title>
<path fill="none" stroke="#3521ea" d="M234.232,-136.593C239.227,-129.737 244.659,-122.281 249.655,-115.424"/>
<polygon fill="#3521ea" stroke="#3521ea" points="234.167,-136.682 224.641,-142.115 231.223,-140.723 228.278,-144.765 228.278,-144.765 228.278,-144.765 231.223,-140.723 231.915,-147.415 234.167,-136.682 234.167,-136.682"/>
<polygon fill="#3521ea" stroke="#3521ea" points="249.797,-115.23 259.322,-109.797 252.741,-111.188 255.685,-107.147 255.685,-107.147 255.685,-107.147 252.741,-111.188 252.048,-104.497 249.797,-115.23 249.797,-115.23"/>
</g>
<!-- Teacher&#45;&gt;Appointment -->
<g id="edge6" class="edge"><title>Teacher&#45;&gt;Appointment</title>
<path fill="none" stroke="#e99e9f" d="M269.642,-116.136C272.197,-145.423 276.404,-193.653 279.046,-223.94"/>
<ellipse fill="none" stroke="#e99e9f" cx="269.285" cy="-112.038" rx="4" ry="4"/>
<polygon fill="#e99e9f" stroke="#e99e9f" points="279.082,-224.362 275.468,-234.715 279.517,-229.343 279.951,-234.324 279.951,-234.324 279.951,-234.324 279.517,-229.343 284.434,-233.933 279.082,-224.362 279.082,-224.362"/>
</g>
<!-- Teacher&#45;&gt;Group -->
<g id="edge5" class="edge"><title>Teacher&#45;&gt;Group</title>
<path fill="none" stroke="#ba4229" d="M267.45,-63.6398C267.45,-58.0629 267.45,-52.1319 267.45,-46.4761"/>
<ellipse fill="none" stroke="#ba4229" cx="267.45" cy="-67.6966" rx="4" ry="4"/>
<polygon fill="#ba4229" stroke="#ba4229" points="267.45,-46.1043 271.95,-36.1043 267.45,-41.1043 267.45,-36.1043 267.45,-36.1043 267.45,-36.1043 267.45,-41.1043 262.95,-36.1044 267.45,-46.1043 267.45,-46.1043"/>
</g>
<!-- User -->
<g id="node8" class="node"><title>User</title>
<ellipse fill="none" stroke="black" cx="476.45" cy="-252.5" rx="27" ry="18"/>
<text text-anchor="middle" x="476.45" y="-248.3" font-family="Times,serif" font-size="14.00">User</text>
</g>
<!-- User&#45;&gt;Photo -->
<g id="edge7" class="edge"><title>User&#45;&gt;Photo</title>
<path fill="none" stroke="#247181" d="M476.45,-226.189C476.45,-214.971 476.45,-201.752 476.45,-190.311"/>
<ellipse fill="none" stroke="#247181" cx="476.45" cy="-230.436" rx="4" ry="4"/>
<polygon fill="#247181" stroke="#247181" points="476.45,-190.011 480.95,-180.011 476.45,-185.011 476.45,-180.011 476.45,-180.011 476.45,-180.011 476.45,-185.011 471.95,-180.011 476.45,-190.011 476.45,-190.011"/>
</g>
</g>
</svg>
