<?xml version="1.0" encoding="UTF-8" standalone="no"?>
<!DOCTYPE svg PUBLIC "-//W3C//DTD SVG 1.1//EN"
 "http://www.w3.org/Graphics/SVG/1.1/DTD/svg11.dtd">
<!-- Generated by graphviz version 2.38.0 (20140413.2041)
 -->
<!-- Title: models_diagram Pages: 1 -->
<svg width="1320pt" height="956pt"
 viewBox="0.00 0.00 1319.56 956.00" xmlns="http://www.w3.org/2000/svg" xmlns:xlink="http://www.w3.org/1999/xlink">
<g id="graph0" class="graph" transform="scale(1 1) rotate(0) translate(4 952)">
<title>models_diagram</title>
<polygon fill="white" stroke="none" points="-4,4 -4,-952 1315.56,-952 1315.56,4 -4,4"/>
<!-- _diagram_info -->
<g id="node1" class="node"><title>_diagram_info</title>
<text text-anchor="start" x="8" y="-849.6" font-family="Times,serif" font-size="13.00">Models diagram</text>
<text text-anchor="start" x="8" y="-836.6" font-family="Times,serif" font-size="13.00">Date: Apr 18 2015 &#45; 23:24</text>
<text text-anchor="start" x="8" y="-823.6" font-family="Times,serif" font-size="13.00">Migration version: 20150418105322</text>
<text text-anchor="start" x="8" y="-810.6" font-family="Times,serif" font-size="13.00">Generated by RailRoady 1.3.0</text>
<text text-anchor="start" x="8" y="-797.6" font-family="Times,serif" font-size="13.00">http://railroady.prestonlee.com</text>
</g>
<!-- Event -->
<g id="node2" class="node"><title>Event</title>
<path fill="none" stroke="black" d="M237.182,-742.5C237.182,-742.5 346.193,-742.5 346.193,-742.5 352.193,-742.5 358.193,-748.5 358.193,-754.5 358.193,-754.5 358.193,-900.5 358.193,-900.5 358.193,-906.5 352.193,-912.5 346.193,-912.5 346.193,-912.5 237.182,-912.5 237.182,-912.5 231.182,-912.5 225.182,-906.5 225.182,-900.5 225.182,-900.5 225.182,-754.5 225.182,-754.5 225.182,-748.5 231.182,-742.5 237.182,-742.5"/>
<text text-anchor="middle" x="291.688" y="-897.3" font-family="Times,serif" font-size="14.00">Event</text>
<polyline fill="none" stroke="black" points="225.182,-890.5 358.193,-890.5 "/>
<text text-anchor="start" x="233.182" y="-875.3" font-family="Times,serif" font-size="14.00">id :integer</text>
<text text-anchor="start" x="233.182" y="-861.3" font-family="Times,serif" font-size="14.00">title :string</text>
<text text-anchor="start" x="233.182" y="-847.3" font-family="Times,serif" font-size="14.00">description :text</text>
<text text-anchor="start" x="233.182" y="-833.3" font-family="Times,serif" font-size="14.00">start_time :datetime</text>
<text text-anchor="start" x="233.182" y="-819.3" font-family="Times,serif" font-size="14.00">end_time :datetime</text>
<text text-anchor="start" x="233.182" y="-805.3" font-family="Times,serif" font-size="14.00">teacher_id :integer</text>
<text text-anchor="start" x="233.182" y="-791.3" font-family="Times,serif" font-size="14.00">group_id :integer</text>
<text text-anchor="start" x="233.182" y="-777.3" font-family="Times,serif" font-size="14.00">ta :string</text>
<text text-anchor="start" x="233.182" y="-763.3" font-family="Times,serif" font-size="14.00">created_at :datetime</text>
<text text-anchor="start" x="233.182" y="-749.3" font-family="Times,serif" font-size="14.00">updated_at :datetime</text>
</g>
<!-- Student -->
<g id="node9" class="node"><title>Student</title>
<path fill="none" stroke="black" d="M216.586,-388.5C216.586,-388.5 366.79,-388.5 366.79,-388.5 372.79,-388.5 378.79,-394.5 378.79,-400.5 378.79,-400.5 378.79,-644.5 378.79,-644.5 378.79,-650.5 372.79,-656.5 366.79,-656.5 366.79,-656.5 216.586,-656.5 216.586,-656.5 210.586,-656.5 204.586,-650.5 204.586,-644.5 204.586,-644.5 204.586,-400.5 204.586,-400.5 204.586,-394.5 210.586,-388.5 216.586,-388.5"/>
<text text-anchor="middle" x="291.688" y="-641.3" font-family="Times,serif" font-size="14.00">Student</text>
<polyline fill="none" stroke="black" points="204.586,-634.5 378.79,-634.5 "/>
<text text-anchor="start" x="212.586" y="-619.3" font-family="Times,serif" font-size="14.00">id :integer</text>
<text text-anchor="start" x="212.586" y="-605.3" font-family="Times,serif" font-size="14.00">ename :string</text>
<text text-anchor="start" x="212.586" y="-591.3" font-family="Times,serif" font-size="14.00">cname :string</text>
<text text-anchor="start" x="212.586" y="-577.3" font-family="Times,serif" font-size="14.00">emergency_contact :string</text>
<text text-anchor="start" x="212.586" y="-563.3" font-family="Times,serif" font-size="14.00">email :string</text>
<text text-anchor="start" x="212.586" y="-549.3" font-family="Times,serif" font-size="14.00">address :string</text>
<text text-anchor="start" x="212.586" y="-535.3" font-family="Times,serif" font-size="14.00">dob :date</text>
<text text-anchor="start" x="212.586" y="-521.3" font-family="Times,serif" font-size="14.00">contract_start :date</text>
<text text-anchor="start" x="212.586" y="-507.3" font-family="Times,serif" font-size="14.00">contract_length :integer</text>
<text text-anchor="start" x="212.586" y="-493.3" font-family="Times,serif" font-size="14.00">points :integer</text>
<text text-anchor="start" x="212.586" y="-479.3" font-family="Times,serif" font-size="14.00">group_id :integer</text>
<text text-anchor="start" x="212.586" y="-465.3" font-family="Times,serif" font-size="14.00">created_at :datetime</text>
<text text-anchor="start" x="212.586" y="-451.3" font-family="Times,serif" font-size="14.00">updated_at :datetime</text>
<text text-anchor="start" x="212.586" y="-437.3" font-family="Times,serif" font-size="14.00">avatar_file_name :string</text>
<text text-anchor="start" x="212.586" y="-423.3" font-family="Times,serif" font-size="14.00">avatar_content_type :string</text>
<text text-anchor="start" x="212.586" y="-409.3" font-family="Times,serif" font-size="14.00">avatar_file_size :integer</text>
<text text-anchor="start" x="212.586" y="-395.3" font-family="Times,serif" font-size="14.00">avatar_updated_at :datetime</text>
</g>
<!-- Event&#45;&gt;Student -->
<g id="edge1" class="edge"><title>Event&#45;&gt;Student</title>
<path fill="none" stroke="#0e34ae" d="M291.688,-734.285C291.688,-712.931 291.688,-689.711 291.688,-666.745"/>
<ellipse fill="none" stroke="#0e34ae" cx="291.688" cy="-738.5" rx="4" ry="4"/>
<polygon fill="#0e34ae" stroke="#0e34ae" points="291.688,-666.572 296.188,-656.572 291.688,-661.572 291.688,-656.572 291.688,-656.572 291.688,-656.572 291.688,-661.572 287.188,-656.572 291.688,-666.572 291.688,-666.572"/>
</g>
<!-- Group -->
<g id="node3" class="node"><title>Group</title>
<path fill="none" stroke="black" d="M190.182,-0.5C190.182,-0.5 299.193,-0.5 299.193,-0.5 305.193,-0.5 311.193,-6.5 311.193,-12.5 311.193,-12.5 311.193,-130.5 311.193,-130.5 311.193,-136.5 305.193,-142.5 299.193,-142.5 299.193,-142.5 190.182,-142.5 190.182,-142.5 184.182,-142.5 178.182,-136.5 178.182,-130.5 178.182,-130.5 178.182,-12.5 178.182,-12.5 178.182,-6.5 184.182,-0.5 190.182,-0.5"/>
<text text-anchor="middle" x="244.688" y="-127.3" font-family="Times,serif" font-size="14.00">Group</text>
<polyline fill="none" stroke="black" points="178.182,-120.5 311.193,-120.5 "/>
<text text-anchor="start" x="186.182" y="-105.3" font-family="Times,serif" font-size="14.00">id :integer</text>
<text text-anchor="start" x="186.182" y="-91.3" font-family="Times,serif" font-size="14.00">school :string</text>
<text text-anchor="start" x="186.182" y="-77.3" font-family="Times,serif" font-size="14.00">name :string</text>
<text text-anchor="start" x="186.182" y="-63.3" font-family="Times,serif" font-size="14.00">teacher_id :integer</text>
<text text-anchor="start" x="186.182" y="-49.3" font-family="Times,serif" font-size="14.00">student_id :integer</text>
<text text-anchor="start" x="186.182" y="-35.3" font-family="Times,serif" font-size="14.00">pa :string</text>
<text text-anchor="start" x="186.182" y="-21.3" font-family="Times,serif" font-size="14.00">created_at :datetime</text>
<text text-anchor="start" x="186.182" y="-7.3" font-family="Times,serif" font-size="14.00">updated_at :datetime</text>
</g>
<!-- Group&#45;&gt;Event -->
<g id="edge3" class="edge"><title>Group&#45;&gt;Event</title>
<path fill="none" stroke="#07f136" d="M221.67,-150.646C191.913,-264.134 149.124,-480.302 195.688,-657 200.041,-673.519 215.909,-703.398 233.526,-733.519"/>
<ellipse fill="none" stroke="#07f136" cx="222.763" cy="-146.521" rx="4.00001" ry="4.00001"/>
<polygon fill="#07f136" stroke="#07f136" points="233.704,-733.821 234.909,-744.72 236.244,-738.127 238.785,-742.434 238.785,-742.434 238.785,-742.434 236.244,-738.127 242.661,-740.147 233.704,-733.821 233.704,-733.821"/>
</g>
<!-- Group&#45;&gt;Student -->
<g id="edge2" class="edge"><title>Group&#45;&gt;Student</title>
<path fill="none" stroke="#dc5bde" d="M248.05,-150.866C250.932,-206.772 255.88,-283.665 263.688,-351 264.715,-359.862 265.882,-368.967 267.142,-378.138"/>
<ellipse fill="none" stroke="#dc5bde" cx="247.842" cy="-146.768" rx="4" ry="4"/>
<polygon fill="#dc5bde" stroke="#dc5bde" points="267.151,-378.204 264.087,-388.733 267.847,-383.155 268.543,-388.107 268.543,-388.107 268.543,-388.107 267.847,-383.155 272.999,-387.48 267.151,-378.204 267.151,-378.204"/>
</g>
<!-- Homework -->
<g id="node4" class="node"><title>Homework</title>
<path fill="none" stroke="black" d="M415.182,-756.5C415.182,-756.5 524.193,-756.5 524.193,-756.5 530.193,-756.5 536.193,-762.5 536.193,-768.5 536.193,-768.5 536.193,-886.5 536.193,-886.5 536.193,-892.5 530.193,-898.5 524.193,-898.5 524.193,-898.5 415.182,-898.5 415.182,-898.5 409.182,-898.5 403.182,-892.5 403.182,-886.5 403.182,-886.5 403.182,-768.5 403.182,-768.5 403.182,-762.5 409.182,-756.5 415.182,-756.5"/>
<text text-anchor="middle" x="469.688" y="-883.3" font-family="Times,serif" font-size="14.00">Homework</text>
<polyline fill="none" stroke="black" points="403.182,-876.5 536.193,-876.5 "/>
<text text-anchor="start" x="411.182" y="-861.3" font-family="Times,serif" font-size="14.00">id :integer</text>
<text text-anchor="start" x="411.182" y="-847.3" font-family="Times,serif" font-size="14.00">group_id :integer</text>
<text text-anchor="start" x="411.182" y="-833.3" font-family="Times,serif" font-size="14.00">title :string</text>
<text text-anchor="start" x="411.182" y="-819.3" font-family="Times,serif" font-size="14.00">assigned :date</text>
<text text-anchor="start" x="411.182" y="-805.3" font-family="Times,serif" font-size="14.00">due :datetime</text>
<text text-anchor="start" x="411.182" y="-791.3" font-family="Times,serif" font-size="14.00">instructions :string</text>
<text text-anchor="start" x="411.182" y="-777.3" font-family="Times,serif" font-size="14.00">created_at :datetime</text>
<text text-anchor="start" x="411.182" y="-763.3" font-family="Times,serif" font-size="14.00">updated_at :datetime</text>
</g>
<!-- Inquery -->
<g id="node5" class="node"><title>Inquery</title>
<path fill="none" stroke="black" d="M618.182,-763.5C618.182,-763.5 727.193,-763.5 727.193,-763.5 733.193,-763.5 739.193,-769.5 739.193,-775.5 739.193,-775.5 739.193,-879.5 739.193,-879.5 739.193,-885.5 733.193,-891.5 727.193,-891.5 727.193,-891.5 618.182,-891.5 618.182,-891.5 612.182,-891.5 606.182,-885.5 606.182,-879.5 606.182,-879.5 606.182,-775.5 606.182,-775.5 606.182,-769.5 612.182,-763.5 618.182,-763.5"/>
<text text-anchor="middle" x="672.688" y="-876.3" font-family="Times,serif" font-size="14.00">Inquery</text>
<polyline fill="none" stroke="black" points="606.182,-869.5 739.193,-869.5 "/>
<text text-anchor="start" x="614.182" y="-854.3" font-family="Times,serif" font-size="14.00">id :integer</text>
<text text-anchor="start" x="614.182" y="-840.3" font-family="Times,serif" font-size="14.00">name :string</text>
<text text-anchor="start" x="614.182" y="-826.3" font-family="Times,serif" font-size="14.00">email :string</text>
<text text-anchor="start" x="614.182" y="-812.3" font-family="Times,serif" font-size="14.00">phone :string</text>
<text text-anchor="start" x="614.182" y="-798.3" font-family="Times,serif" font-size="14.00">message :text</text>
<text text-anchor="start" x="614.182" y="-784.3" font-family="Times,serif" font-size="14.00">created_at :datetime</text>
<text text-anchor="start" x="614.182" y="-770.3" font-family="Times,serif" font-size="14.00">updated_at :datetime</text>
</g>
<!-- LessonPlan -->
<g id="node6" class="node"><title>LessonPlan</title>
<path fill="none" stroke="black" d="M446.579,-444.5C446.579,-444.5 596.797,-444.5 596.797,-444.5 602.797,-444.5 608.797,-450.5 608.797,-456.5 608.797,-456.5 608.797,-588.5 608.797,-588.5 608.797,-594.5 602.797,-600.5 596.797,-600.5 596.797,-600.5 446.579,-600.5 446.579,-600.5 440.579,-600.5 434.579,-594.5 434.579,-588.5 434.579,-588.5 434.579,-456.5 434.579,-456.5 434.579,-450.5 440.579,-444.5 446.579,-444.5"/>
<text text-anchor="middle" x="521.688" y="-585.3" font-family="Times,serif" font-size="14.00">LessonPlan</text>
<polyline fill="none" stroke="black" points="434.579,-578.5 608.797,-578.5 "/>
<text text-anchor="start" x="442.579" y="-563.3" font-family="Times,serif" font-size="14.00">id :integer</text>
<text text-anchor="start" x="442.579" y="-549.3" font-family="Times,serif" font-size="14.00">group_id :integer</text>
<text text-anchor="start" x="442.579" y="-535.3" font-family="Times,serif" font-size="14.00">class_number :string</text>
<text text-anchor="start" x="442.579" y="-521.3" font-family="Times,serif" font-size="14.00">created_at :datetime</text>
<text text-anchor="start" x="442.579" y="-507.3" font-family="Times,serif" font-size="14.00">updated_at :datetime</text>
<text text-anchor="start" x="442.579" y="-493.3" font-family="Times,serif" font-size="14.00">image_file_name :string</text>
<text text-anchor="start" x="442.579" y="-479.3" font-family="Times,serif" font-size="14.00">image_content_type :string</text>
<text text-anchor="start" x="442.579" y="-465.3" font-family="Times,serif" font-size="14.00">image_file_size :integer</text>
<text text-anchor="start" x="442.579" y="-451.3" font-family="Times,serif" font-size="14.00">image_updated_at :datetime</text>
</g>
<!-- Photo -->
<g id="node7" class="node"><title>Photo</title>
<path fill="none" stroke="black" d="M638.579,-444.5C638.579,-444.5 788.797,-444.5 788.797,-444.5 794.797,-444.5 800.797,-450.5 800.797,-456.5 800.797,-456.5 800.797,-588.5 800.797,-588.5 800.797,-594.5 794.797,-600.5 788.797,-600.5 788.797,-600.5 638.579,-600.5 638.579,-600.5 632.579,-600.5 626.579,-594.5 626.579,-588.5 626.579,-588.5 626.579,-456.5 626.579,-456.5 626.579,-450.5 632.579,-444.5 638.579,-444.5"/>
<text text-anchor="middle" x="713.688" y="-585.3" font-family="Times,serif" font-size="14.00">Photo</text>
<polyline fill="none" stroke="black" points="626.579,-578.5 800.797,-578.5 "/>
<text text-anchor="start" x="634.579" y="-563.3" font-family="Times,serif" font-size="14.00">id :integer</text>
<text text-anchor="start" x="634.579" y="-549.3" font-family="Times,serif" font-size="14.00">description :string</text>
<text text-anchor="start" x="634.579" y="-535.3" font-family="Times,serif" font-size="14.00">created_at :datetime</text>
<text text-anchor="start" x="634.579" y="-521.3" font-family="Times,serif" font-size="14.00">updated_at :datetime</text>
<text text-anchor="start" x="634.579" y="-507.3" font-family="Times,serif" font-size="14.00">user_id :integer</text>
<text text-anchor="start" x="634.579" y="-493.3" font-family="Times,serif" font-size="14.00">image_file_name :string</text>
<text text-anchor="start" x="634.579" y="-479.3" font-family="Times,serif" font-size="14.00">image_content_type :string</text>
<text text-anchor="start" x="634.579" y="-465.3" font-family="Times,serif" font-size="14.00">image_file_size :integer</text>
<text text-anchor="start" x="634.579" y="-451.3" font-family="Times,serif" font-size="14.00">image_updated_at :datetime</text>
</g>
<!-- Resource -->
<g id="node8" class="node"><title>Resource</title>
<path fill="none" stroke="black" d="M831.182,-444.5C831.182,-444.5 940.193,-444.5 940.193,-444.5 946.193,-444.5 952.193,-450.5 952.193,-456.5 952.193,-456.5 952.193,-588.5 952.193,-588.5 952.193,-594.5 946.193,-600.5 940.193,-600.5 940.193,-600.5 831.182,-600.5 831.182,-600.5 825.182,-600.5 819.182,-594.5 819.182,-588.5 819.182,-588.5 819.182,-456.5 819.182,-456.5 819.182,-450.5 825.182,-444.5 831.182,-444.5"/>
<text text-anchor="middle" x="885.688" y="-585.3" font-family="Times,serif" font-size="14.00">Resource</text>
<polyline fill="none" stroke="black" points="819.182,-578.5 952.193,-578.5 "/>
<text text-anchor="start" x="827.182" y="-563.3" font-family="Times,serif" font-size="14.00">id :integer</text>
<text text-anchor="start" x="827.182" y="-549.3" font-family="Times,serif" font-size="14.00">title :string</text>
<text text-anchor="start" x="827.182" y="-535.3" font-family="Times,serif" font-size="14.00">url :string</text>
<text text-anchor="start" x="827.182" y="-521.3" font-family="Times,serif" font-size="14.00">focus :string</text>
<text text-anchor="start" x="827.182" y="-507.3" font-family="Times,serif" font-size="14.00">notes :string</text>
<text text-anchor="start" x="827.182" y="-493.3" font-family="Times,serif" font-size="14.00">level :string</text>
<text text-anchor="start" x="827.182" y="-479.3" font-family="Times,serif" font-size="14.00">user_id :integer</text>
<text text-anchor="start" x="827.182" y="-465.3" font-family="Times,serif" font-size="14.00">created_at :datetime</text>
<text text-anchor="start" x="827.182" y="-451.3" font-family="Times,serif" font-size="14.00">updated_at :datetime</text>
</g>
<!-- Teacher -->
<g id="node10" class="node"><title>Teacher</title>
<path fill="none" stroke="black" d="M285.182,-180.5C285.182,-180.5 394.193,-180.5 394.193,-180.5 400.193,-180.5 406.193,-186.5 406.193,-192.5 406.193,-192.5 406.193,-338.5 406.193,-338.5 406.193,-344.5 400.193,-350.5 394.193,-350.5 394.193,-350.5 285.182,-350.5 285.182,-350.5 279.182,-350.5 273.182,-344.5 273.182,-338.5 273.182,-338.5 273.182,-192.5 273.182,-192.5 273.182,-186.5 279.182,-180.5 285.182,-180.5"/>
<text text-anchor="middle" x="339.688" y="-335.3" font-family="Times,serif" font-size="14.00">Teacher</text>
<polyline fill="none" stroke="black" points="273.182,-328.5 406.193,-328.5 "/>
<text text-anchor="start" x="281.182" y="-313.3" font-family="Times,serif" font-size="14.00">id :integer</text>
<text text-anchor="start" x="281.182" y="-299.3" font-family="Times,serif" font-size="14.00">ename :string</text>
<text text-anchor="start" x="281.182" y="-285.3" font-family="Times,serif" font-size="14.00">cname :string</text>
<text text-anchor="start" x="281.182" y="-271.3" font-family="Times,serif" font-size="14.00">dob :date</text>
<text text-anchor="start" x="281.182" y="-257.3" font-family="Times,serif" font-size="14.00">phone :string</text>
<text text-anchor="start" x="281.182" y="-243.3" font-family="Times,serif" font-size="14.00">email :string</text>
<text text-anchor="start" x="281.182" y="-229.3" font-family="Times,serif" font-size="14.00">duration :date</text>
<text text-anchor="start" x="281.182" y="-215.3" font-family="Times,serif" font-size="14.00">group_id :integer</text>
<text text-anchor="start" x="281.182" y="-201.3" font-family="Times,serif" font-size="14.00">created_at :datetime</text>
<text text-anchor="start" x="281.182" y="-187.3" font-family="Times,serif" font-size="14.00">updated_at :datetime</text>
</g>
<!-- Student&#45;&gt;Teacher -->
<g id="edge4" class="edge"><title>Student&#45;&gt;Teacher</title>
<path fill="none" stroke="#be5b15" d="M318.601,-378.522C319.713,-372.618 320.815,-366.759 321.9,-360.997"/>
<polygon fill="#be5b15" stroke="#be5b15" points="318.592,-378.571 312.32,-387.566 317.667,-383.485 316.742,-388.399 316.742,-388.399 316.742,-388.399 317.667,-383.485 321.164,-389.231 318.592,-378.571 318.592,-378.571"/>
<polygon fill="#be5b15" stroke="#be5b15" points="321.981,-360.568 328.253,-351.573 322.906,-355.654 323.831,-350.741 323.831,-350.741 323.831,-350.741 322.906,-355.654 319.408,-349.908 321.981,-360.568 321.981,-360.568"/>
</g>
<!-- Teacher&#45;&gt;Event -->
<g id="edge6" class="edge"><title>Teacher&#45;&gt;Event</title>
<path fill="none" stroke="#9e04ba" d="M380.125,-358.437C383.204,-368.268 385.83,-378.243 387.688,-388 410.046,-505.446 418.153,-541.391 387.688,-657 380.81,-683.098 368.892,-709.397 355.743,-733.235"/>
<ellipse fill="none" stroke="#9e04ba" cx="378.806" cy="-354.392" rx="4.00001" ry="4.00001"/>
<polygon fill="#9e04ba" stroke="#9e04ba" points="355.571,-733.539 346.733,-740.031 353.111,-737.892 350.651,-742.245 350.651,-742.245 350.651,-742.245 353.111,-737.892 354.569,-744.459 355.571,-733.539 355.571,-733.539"/>
</g>
<!-- Teacher&#45;&gt;Group -->
<g id="edge5" class="edge"><title>Teacher&#45;&gt;Group</title>
<path fill="none" stroke="#fa9f96" d="M294.356,-172.881C290.888,-165.873 287.405,-158.833 283.98,-151.912"/>
<ellipse fill="none" stroke="#fa9f96" cx="296.245" cy="-176.701" rx="4.00002" ry="4.00002"/>
<polygon fill="#fa9f96" stroke="#fa9f96" points="283.789,-151.525 283.387,-140.567 281.571,-147.044 279.354,-142.562 279.354,-142.562 279.354,-142.562 281.571,-147.044 275.321,-144.558 283.789,-151.525 283.789,-151.525"/>
</g>
<!-- User -->
<g id="node11" class="node"><title>User</title>
<path fill="none" stroke="black" d="M795.41,-707.5C795.41,-707.5 975.966,-707.5 975.966,-707.5 981.966,-707.5 987.966,-713.5 987.966,-719.5 987.966,-719.5 987.966,-935.5 987.966,-935.5 987.966,-941.5 981.966,-947.5 975.966,-947.5 975.966,-947.5 795.41,-947.5 795.41,-947.5 789.41,-947.5 783.41,-941.5 783.41,-935.5 783.41,-935.5 783.41,-719.5 783.41,-719.5 783.41,-713.5 789.41,-707.5 795.41,-707.5"/>
<text text-anchor="middle" x="885.688" y="-932.3" font-family="Times,serif" font-size="14.00">User</text>
<polyline fill="none" stroke="black" points="783.41,-925.5 987.966,-925.5 "/>
<text text-anchor="start" x="791.41" y="-910.3" font-family="Times,serif" font-size="14.00">id :integer</text>
<text text-anchor="start" x="791.41" y="-896.3" font-family="Times,serif" font-size="14.00">name :string</text>
<text text-anchor="start" x="791.41" y="-882.3" font-family="Times,serif" font-size="14.00">email :string</text>
<text text-anchor="start" x="791.41" y="-868.3" font-family="Times,serif" font-size="14.00">encrypted_password :string</text>
<text text-anchor="start" x="791.41" y="-854.3" font-family="Times,serif" font-size="14.00">reset_password_token :string</text>
<text text-anchor="start" x="791.41" y="-840.3" font-family="Times,serif" font-size="14.00">reset_password_sent_at :datetime</text>
<text text-anchor="start" x="791.41" y="-826.3" font-family="Times,serif" font-size="14.00">remember_created_at :datetime</text>
<text text-anchor="start" x="791.41" y="-812.3" font-family="Times,serif" font-size="14.00">sign_in_count :integer</text>
<text text-anchor="start" x="791.41" y="-798.3" font-family="Times,serif" font-size="14.00">current_sign_in_at :datetime</text>
<text text-anchor="start" x="791.41" y="-784.3" font-family="Times,serif" font-size="14.00">last_sign_in_at :datetime</text>
<text text-anchor="start" x="791.41" y="-770.3" font-family="Times,serif" font-size="14.00">current_sign_in_ip :string</text>
<text text-anchor="start" x="791.41" y="-756.3" font-family="Times,serif" font-size="14.00">last_sign_in_ip :string</text>
<text text-anchor="start" x="791.41" y="-742.3" font-family="Times,serif" font-size="14.00">created_at :datetime</text>
<text text-anchor="start" x="791.41" y="-728.3" font-family="Times,serif" font-size="14.00">updated_at :datetime</text>
<text text-anchor="start" x="791.41" y="-714.3" font-family="Times,serif" font-size="14.00">admin :boolean</text>
</g>
<!-- User&#45;&gt;LessonPlan -->
<g id="edge8" class="edge"><title>User&#45;&gt;LessonPlan</title>
<path fill="none" stroke="#c9ddbe" d="M776.525,-725.578C767.383,-718.91 758.049,-712.624 748.688,-707 695.267,-674.909 667.072,-695.011 617.688,-657 600.424,-643.712 584.922,-626.484 571.666,-608.844"/>
<ellipse fill="none" stroke="#c9ddbe" cx="779.935" cy="-728.111" rx="4.00002" ry="4.00002"/>
<polygon fill="#c9ddbe" stroke="#c9ddbe" points="571.633,-608.799 569.369,-598.069 568.684,-604.761 565.735,-600.724 565.735,-600.724 565.735,-600.724 568.684,-604.761 562.101,-603.378 571.633,-608.799 571.633,-608.799"/>
</g>
<!-- User&#45;&gt;Photo -->
<g id="edge7" class="edge"><title>User&#45;&gt;Photo</title>
<path fill="none" stroke="#5face9" d="M813.893,-700.024C796.645,-669.641 778.614,-637.876 762.678,-609.802"/>
<ellipse fill="none" stroke="#5face9" cx="815.981" cy="-703.703" rx="4.00002" ry="4.00002"/>
<polygon fill="#5face9" stroke="#5face9" points="762.518,-609.52 761.494,-598.602 760.049,-605.172 757.581,-600.823 757.581,-600.823 757.581,-600.823 760.049,-605.172 753.667,-603.045 762.518,-609.52 762.518,-609.52"/>
</g>
<!-- User&#45;&gt;Resource -->
<g id="edge9" class="edge"><title>User&#45;&gt;Resource</title>
<path fill="none" stroke="#bb1de8" d="M885.688,-699.179C885.688,-669.546 885.688,-638.647 885.688,-611.175"/>
<ellipse fill="none" stroke="#bb1de8" cx="885.688" cy="-703.181" rx="4" ry="4"/>
<polygon fill="#bb1de8" stroke="#bb1de8" points="885.688,-610.823 890.188,-600.823 885.688,-605.823 885.688,-600.823 885.688,-600.823 885.688,-600.823 885.688,-605.823 881.188,-600.823 885.688,-610.823 885.688,-610.823"/>
</g>
<!-- Mailboxer::Message -->
<g id="node12" class="node"><title>Mailboxer::Message</title>
<ellipse fill="none" stroke="black" cx="1052.69" cy="-522.5" rx="82.6045" ry="18"/>
<text text-anchor="middle" x="1052.69" y="-518.3" font-family="Times,serif" font-size="14.00">Mailboxer::Message</text>
</g>
<!-- User&#45;&gt;Mailboxer::Message -->
<g id="edge10" class="edge"><title>User&#45;&gt;Mailboxer::Message</title>
<path fill="none" stroke="#a8de84" d="M955.359,-700.09C986.248,-644.047 1019.73,-583.293 1038.27,-549.662"/>
<ellipse fill="none" stroke="#a8de84" cx="953.382" cy="-703.678" rx="4.00002" ry="4.00002"/>
<polygon fill="#a8de84" stroke="#a8de84" points="1038.48,-549.284 1047.25,-542.698 1040.89,-544.905 1043.3,-540.526 1043.3,-540.526 1043.3,-540.526 1040.89,-544.905 1039.36,-538.353 1038.48,-549.284 1038.48,-549.284"/>
<text text-anchor="middle" x="995.126" y="-677.8" font-family="Times,serif" font-size="14.00">messages</text>
</g>
<!-- Mailboxer::Receipt -->
<g id="node13" class="node"><title>Mailboxer::Receipt</title>
<ellipse fill="none" stroke="black" cx="1232.69" cy="-522.5" rx="78.7367" ry="18"/>
<text text-anchor="middle" x="1232.69" y="-518.3" font-family="Times,serif" font-size="14.00">Mailboxer::Receipt</text>
</g>
<!-- User&#45;&gt;Mailboxer::Receipt -->
<g id="edge11" class="edge"><title>User&#45;&gt;Mailboxer::Receipt</title>
<path fill="none" stroke="#736c23" d="M994.902,-768.653C1044.12,-739.32 1100.88,-700.659 1144.69,-657 1177.19,-624.605 1204.41,-578.379 1219.62,-549.694"/>
<ellipse fill="none" stroke="#736c23" cx="991.452" cy="-770.694" rx="4.00002" ry="4.00002"/>
<polygon fill="#736c23" stroke="#736c23" points="1219.69,-549.555 1228.3,-542.76 1222,-545.119 1224.31,-540.684 1224.31,-540.684 1224.31,-540.684 1222,-545.119 1220.31,-538.607 1219.69,-549.555 1219.69,-549.555"/>
<text text-anchor="middle" x="1141.45" y="-677.8" font-family="Times,serif" font-size="14.00">receipts</text>
</g>
</g>
</svg>
