<?xml version="1.0" encoding="UTF-8" standalone="no"?>
<!DOCTYPE svg PUBLIC "-//W3C//DTD SVG 1.1//EN"
 "http://www.w3.org/Graphics/SVG/1.1/DTD/svg11.dtd">
<!-- Generated by graphviz version 2.38.0 (20140413.2041)
 -->
<!-- Title: models_diagram Pages: 1 -->
<svg width="388pt" height="225pt"
 viewBox="0.00 0.00 388.44 225.00" xmlns="http://www.w3.org/2000/svg" xmlns:xlink="http://www.w3.org/1999/xlink">
<g id="graph0" class="graph" transform="scale(1 1) rotate(0) translate(4 221)">
<title>models_diagram</title>
<polygon fill="white" stroke="none" points="-4,4 -4,-221 384.435,-221 384.435,4 -4,4"/>
<!-- _diagram_info -->
<g id="node1" class="node"><title>_diagram_info</title>
<text text-anchor="start" x="8" y="-202.6" font-family="Times,serif" font-size="13.00">Models diagram</text>
<text text-anchor="start" x="8" y="-189.6" font-family="Times,serif" font-size="13.00">Date: Jan 26 2015 &#45; 15:26</text>
<text text-anchor="start" x="8" y="-176.6" font-family="Times,serif" font-size="13.00">Migration version: 20150125152445</text>
<text text-anchor="start" x="8" y="-163.6" font-family="Times,serif" font-size="13.00">Generated by RailRoady 1.3.0</text>
<text text-anchor="start" x="8" y="-150.6" font-family="Times,serif" font-size="13.00">http://railroady.prestonlee.com</text>
</g>
<!-- Group -->
<g id="node2" class="node"><title>Group</title>
<ellipse fill="none" stroke="black" cx="262.688" cy="-18" rx="32.9081" ry="18"/>
<text text-anchor="middle" x="262.688" y="-13.8" font-family="Times,serif" font-size="14.00">Group</text>
</g>
<!-- Photo -->
<g id="node3" class="node"><title>Photo</title>
<ellipse fill="none" stroke="black" cx="349.688" cy="-90" rx="30.9967" ry="18"/>
<text text-anchor="middle" x="349.688" y="-85.8" font-family="Times,serif" font-size="14.00">Photo</text>
</g>
<!-- Student -->
<g id="node4" class="node"><title>Student</title>
<ellipse fill="none" stroke="black" cx="262.688" cy="-180.5" rx="37.2594" ry="18"/>
<text text-anchor="middle" x="262.688" y="-176.3" font-family="Times,serif" font-size="14.00">Student</text>
</g>
<!-- Teacher -->
<g id="node5" class="node"><title>Teacher</title>
<ellipse fill="none" stroke="black" cx="262.688" cy="-90" rx="37.9172" ry="18"/>
<text text-anchor="middle" x="262.688" y="-85.8" font-family="Times,serif" font-size="14.00">Teacher</text>
</g>
<!-- Student&#45;&gt;Teacher -->
<g id="edge1" class="edge"><title>Student&#45;&gt;Teacher</title>
<path fill="none" stroke="#d04fab" d="M262.688,-152.092C262.688,-141.289 262.688,-128.912 262.688,-118.136"/>
<polygon fill="#d04fab" stroke="#d04fab" points="262.688,-152.436 258.188,-162.436 262.688,-157.436 262.688,-162.436 262.688,-162.436 262.688,-162.436 262.688,-157.436 267.188,-162.436 262.688,-152.436 262.688,-152.436"/>
<polygon fill="#d04fab" stroke="#d04fab" points="262.688,-118.011 267.188,-108.011 262.688,-113.011 262.688,-108.011 262.688,-108.011 262.688,-108.011 262.688,-113.011 258.188,-108.011 262.688,-118.011 262.688,-118.011"/>
</g>
<!-- Teacher&#45;&gt;Group -->
<g id="edge2" class="edge"><title>Teacher&#45;&gt;Group</title>
<path fill="none" stroke="#db50d6" d="M262.688,-63.6398C262.688,-58.0629 262.688,-52.1319 262.688,-46.4761"/>
<ellipse fill="none" stroke="#db50d6" cx="262.688" cy="-67.6966" rx="4" ry="4"/>
<polygon fill="#db50d6" stroke="#db50d6" points="262.688,-46.1043 267.188,-36.1043 262.688,-41.1043 262.688,-36.1043 262.688,-36.1043 262.688,-36.1043 262.688,-41.1043 258.188,-36.1044 262.688,-46.1043 262.688,-46.1043"/>
</g>
<!-- User -->
<g id="node6" class="node"><title>User</title>
<ellipse fill="none" stroke="black" cx="349.688" cy="-180.5" rx="27" ry="18"/>
<text text-anchor="middle" x="349.688" y="-176.3" font-family="Times,serif" font-size="14.00">User</text>
</g>
<!-- User&#45;&gt;Photo -->
<g id="edge3" class="edge"><title>User&#45;&gt;Photo</title>
<path fill="none" stroke="#9aeb57" d="M349.688,-154.189C349.688,-142.971 349.688,-129.752 349.688,-118.311"/>
<ellipse fill="none" stroke="#9aeb57" cx="349.688" cy="-158.436" rx="4" ry="4"/>
<polygon fill="#9aeb57" stroke="#9aeb57" points="349.688,-118.011 354.188,-108.011 349.688,-113.011 349.688,-108.011 349.688,-108.011 349.688,-108.011 349.688,-113.011 345.188,-108.011 349.688,-118.011 349.688,-118.011"/>
</g>
</g>
</svg>
