<?xml version="1.0" encoding="UTF-8" standalone="no"?>
<!DOCTYPE svg PUBLIC "-//W3C//DTD SVG 1.1//EN"
 "http://www.w3.org/Graphics/SVG/1.1/DTD/svg11.dtd">
<!-- Generated by graphviz version 2.38.0 (20140413.2041)
 -->
<!-- Title: models_diagram Pages: 1 -->
<svg width="740pt" height="814pt"
 viewBox="0.00 0.00 739.97 814.00" xmlns="http://www.w3.org/2000/svg" xmlns:xlink="http://www.w3.org/1999/xlink">
<g id="graph0" class="graph" transform="scale(1 1) rotate(0) translate(4 810)">
<title>models_diagram</title>
<polygon fill="white" stroke="none" points="-4,4 -4,-810 735.966,-810 735.966,4 -4,4"/>
<!-- _diagram_info -->
<g id="node1" class="node"><title>_diagram_info</title>
<text text-anchor="start" x="8" y="-714.6" font-family="Times,serif" font-size="13.00">Models diagram</text>
<text text-anchor="start" x="8" y="-701.6" font-family="Times,serif" font-size="13.00">Date: Feb 24 2015 &#45; 18:03</text>
<text text-anchor="start" x="8" y="-688.6" font-family="Times,serif" font-size="13.00">Migration version: 20150223064202</text>
<text text-anchor="start" x="8" y="-675.6" font-family="Times,serif" font-size="13.00">Generated by RailRoady 1.3.0</text>
<text text-anchor="start" x="8" y="-662.6" font-family="Times,serif" font-size="13.00">http://railroady.prestonlee.com</text>
</g>
<!-- Appointment -->
<g id="node2" class="node"><title>Appointment</title>
<path fill="none" stroke="black" d="M237.182,-621.5C237.182,-621.5 346.193,-621.5 346.193,-621.5 352.193,-621.5 358.193,-627.5 358.193,-633.5 358.193,-633.5 358.193,-751.5 358.193,-751.5 358.193,-757.5 352.193,-763.5 346.193,-763.5 346.193,-763.5 237.182,-763.5 237.182,-763.5 231.182,-763.5 225.182,-757.5 225.182,-751.5 225.182,-751.5 225.182,-633.5 225.182,-633.5 225.182,-627.5 231.182,-621.5 237.182,-621.5"/>
<text text-anchor="middle" x="291.688" y="-748.3" font-family="Times,serif" font-size="14.00">Appointment</text>
<polyline fill="none" stroke="black" points="225.182,-741.5 358.193,-741.5 "/>
<text text-anchor="start" x="233.182" y="-726.3" font-family="Times,serif" font-size="14.00">id :integer</text>
<text text-anchor="start" x="233.182" y="-712.3" font-family="Times,serif" font-size="14.00">start :datetime</text>
<text text-anchor="start" x="233.182" y="-698.3" font-family="Times,serif" font-size="14.00">teacher_id :integer</text>
<text text-anchor="start" x="233.182" y="-684.3" font-family="Times,serif" font-size="14.00">group_id :integer</text>
<text text-anchor="start" x="233.182" y="-670.3" font-family="Times,serif" font-size="14.00">ta :string</text>
<text text-anchor="start" x="233.182" y="-656.3" font-family="Times,serif" font-size="14.00">note :text</text>
<text text-anchor="start" x="233.182" y="-642.3" font-family="Times,serif" font-size="14.00">created_at :datetime</text>
<text text-anchor="start" x="233.182" y="-628.3" font-family="Times,serif" font-size="14.00">updated_at :datetime</text>
</g>
<!-- Student -->
<g id="node6" class="node"><title>Student</title>
<path fill="none" stroke="black" d="M111.757,-344.5C111.757,-344.5 251.618,-344.5 251.618,-344.5 257.618,-344.5 263.618,-350.5 263.618,-356.5 263.618,-356.5 263.618,-530.5 263.618,-530.5 263.618,-536.5 257.618,-542.5 251.618,-542.5 251.618,-542.5 111.757,-542.5 111.757,-542.5 105.757,-542.5 99.7571,-536.5 99.7571,-530.5 99.7571,-530.5 99.7571,-356.5 99.7571,-356.5 99.7571,-350.5 105.757,-344.5 111.757,-344.5"/>
<text text-anchor="middle" x="181.688" y="-527.3" font-family="Times,serif" font-size="14.00">Student</text>
<polyline fill="none" stroke="black" points="99.7571,-520.5 263.618,-520.5 "/>
<text text-anchor="start" x="107.757" y="-505.3" font-family="Times,serif" font-size="14.00">id :integer</text>
<text text-anchor="start" x="107.757" y="-491.3" font-family="Times,serif" font-size="14.00">ename :string</text>
<text text-anchor="start" x="107.757" y="-477.3" font-family="Times,serif" font-size="14.00">cname :string</text>
<text text-anchor="start" x="107.757" y="-463.3" font-family="Times,serif" font-size="14.00">emergency_contact :string</text>
<text text-anchor="start" x="107.757" y="-449.3" font-family="Times,serif" font-size="14.00">email :string</text>
<text text-anchor="start" x="107.757" y="-435.3" font-family="Times,serif" font-size="14.00">wechat :string</text>
<text text-anchor="start" x="107.757" y="-421.3" font-family="Times,serif" font-size="14.00">dob :date</text>
<text text-anchor="start" x="107.757" y="-407.3" font-family="Times,serif" font-size="14.00">contract_start :date</text>
<text text-anchor="start" x="107.757" y="-393.3" font-family="Times,serif" font-size="14.00">contract_length :integer</text>
<text text-anchor="start" x="107.757" y="-379.3" font-family="Times,serif" font-size="14.00">group_id :integer</text>
<text text-anchor="start" x="107.757" y="-365.3" font-family="Times,serif" font-size="14.00">created_at :datetime</text>
<text text-anchor="start" x="107.757" y="-351.3" font-family="Times,serif" font-size="14.00">updated_at :datetime</text>
</g>
<!-- Appointment&#45;&gt;Student -->
<g id="edge1" class="edge"><title>Appointment&#45;&gt;Student</title>
<path fill="none" stroke="#1a6ad2" d="M257.106,-613.848C248.38,-594.255 238.855,-572.867 229.602,-552.09"/>
<ellipse fill="none" stroke="#1a6ad2" cx="258.833" cy="-617.726" rx="4.00002" ry="4.00002"/>
<polygon fill="#1a6ad2" stroke="#1a6ad2" points="229.584,-552.049 229.627,-541.083 227.55,-547.481 225.516,-542.914 225.516,-542.914 225.516,-542.914 227.55,-547.481 221.405,-544.745 229.584,-552.049 229.584,-552.049"/>
</g>
<!-- Group -->
<g id="node3" class="node"><title>Group</title>
<path fill="none" stroke="black" d="M201.182,-0.5C201.182,-0.5 310.193,-0.5 310.193,-0.5 316.193,-0.5 322.193,-6.5 322.193,-12.5 322.193,-12.5 322.193,-130.5 322.193,-130.5 322.193,-136.5 316.193,-142.5 310.193,-142.5 310.193,-142.5 201.182,-142.5 201.182,-142.5 195.182,-142.5 189.182,-136.5 189.182,-130.5 189.182,-130.5 189.182,-12.5 189.182,-12.5 189.182,-6.5 195.182,-0.5 201.182,-0.5"/>
<text text-anchor="middle" x="255.688" y="-127.3" font-family="Times,serif" font-size="14.00">Group</text>
<polyline fill="none" stroke="black" points="189.182,-120.5 322.193,-120.5 "/>
<text text-anchor="start" x="197.182" y="-105.3" font-family="Times,serif" font-size="14.00">id :integer</text>
<text text-anchor="start" x="197.182" y="-91.3" font-family="Times,serif" font-size="14.00">school :string</text>
<text text-anchor="start" x="197.182" y="-77.3" font-family="Times,serif" font-size="14.00">name :string</text>
<text text-anchor="start" x="197.182" y="-63.3" font-family="Times,serif" font-size="14.00">teacher_id :integer</text>
<text text-anchor="start" x="197.182" y="-49.3" font-family="Times,serif" font-size="14.00">student_id :integer</text>
<text text-anchor="start" x="197.182" y="-35.3" font-family="Times,serif" font-size="14.00">ta :string</text>
<text text-anchor="start" x="197.182" y="-21.3" font-family="Times,serif" font-size="14.00">created_at :datetime</text>
<text text-anchor="start" x="197.182" y="-7.3" font-family="Times,serif" font-size="14.00">updated_at :datetime</text>
</g>
<!-- Group&#45;&gt;Appointment -->
<g id="edge3" class="edge"><title>Group&#45;&gt;Appointment</title>
<path fill="none" stroke="#f0854d" d="M318.701,-149.697C323.963,-159.142 328.486,-169.002 331.688,-179 378.818,-326.181 343.886,-508.742 316.346,-611.477"/>
<ellipse fill="none" stroke="#f0854d" cx="316.556" cy="-146.016" rx="4.00002" ry="4.00002"/>
<polygon fill="#f0854d" stroke="#f0854d" points="316.335,-611.517 309.365,-619.983 315.021,-616.342 313.707,-621.166 313.707,-621.166 313.707,-621.166 315.021,-616.342 318.048,-622.348 316.335,-611.517 316.335,-611.517"/>
</g>
<!-- Group&#45;&gt;Student -->
<g id="edge2" class="edge"><title>Group&#45;&gt;Student</title>
<path fill="none" stroke="#4aeeec" d="M192.675,-149.697C187.412,-159.142 182.889,-169.002 179.688,-179 163.895,-228.319 162.46,-285.543 165.773,-334.037"/>
<ellipse fill="none" stroke="#4aeeec" cx="194.82" cy="-146.016" rx="4.00002" ry="4.00002"/>
<polygon fill="#4aeeec" stroke="#4aeeec" points="165.791,-334.276 162.061,-344.588 166.169,-339.261 166.548,-344.247 166.548,-344.247 166.548,-344.247 166.169,-339.261 171.035,-343.906 165.791,-334.276 165.791,-334.276"/>
</g>
<!-- Inquery -->
<g id="node4" class="node"><title>Inquery</title>
<path fill="none" stroke="black" d="M388.182,-628.5C388.182,-628.5 497.193,-628.5 497.193,-628.5 503.193,-628.5 509.193,-634.5 509.193,-640.5 509.193,-640.5 509.193,-744.5 509.193,-744.5 509.193,-750.5 503.193,-756.5 497.193,-756.5 497.193,-756.5 388.182,-756.5 388.182,-756.5 382.182,-756.5 376.182,-750.5 376.182,-744.5 376.182,-744.5 376.182,-640.5 376.182,-640.5 376.182,-634.5 382.182,-628.5 388.182,-628.5"/>
<text text-anchor="middle" x="442.688" y="-741.3" font-family="Times,serif" font-size="14.00">Inquery</text>
<polyline fill="none" stroke="black" points="376.182,-734.5 509.193,-734.5 "/>
<text text-anchor="start" x="384.182" y="-719.3" font-family="Times,serif" font-size="14.00">id :integer</text>
<text text-anchor="start" x="384.182" y="-705.3" font-family="Times,serif" font-size="14.00">name :string</text>
<text text-anchor="start" x="384.182" y="-691.3" font-family="Times,serif" font-size="14.00">email :string</text>
<text text-anchor="start" x="384.182" y="-677.3" font-family="Times,serif" font-size="14.00">phone :string</text>
<text text-anchor="start" x="384.182" y="-663.3" font-family="Times,serif" font-size="14.00">message :text</text>
<text text-anchor="start" x="384.182" y="-649.3" font-family="Times,serif" font-size="14.00">created_at :datetime</text>
<text text-anchor="start" x="384.182" y="-635.3" font-family="Times,serif" font-size="14.00">updated_at :datetime</text>
</g>
<!-- Photo -->
<g id="node5" class="node"><title>Photo</title>
<path fill="none" stroke="black" d="M575.182,-393.5C575.182,-393.5 684.193,-393.5 684.193,-393.5 690.193,-393.5 696.193,-399.5 696.193,-405.5 696.193,-405.5 696.193,-481.5 696.193,-481.5 696.193,-487.5 690.193,-493.5 684.193,-493.5 684.193,-493.5 575.182,-493.5 575.182,-493.5 569.182,-493.5 563.182,-487.5 563.182,-481.5 563.182,-481.5 563.182,-405.5 563.182,-405.5 563.182,-399.5 569.182,-393.5 575.182,-393.5"/>
<text text-anchor="middle" x="629.688" y="-478.3" font-family="Times,serif" font-size="14.00">Photo</text>
<polyline fill="none" stroke="black" points="563.182,-471.5 696.193,-471.5 "/>
<text text-anchor="start" x="571.182" y="-456.3" font-family="Times,serif" font-size="14.00">id :integer</text>
<text text-anchor="start" x="571.182" y="-442.3" font-family="Times,serif" font-size="14.00">description :string</text>
<text text-anchor="start" x="571.182" y="-428.3" font-family="Times,serif" font-size="14.00">created_at :datetime</text>
<text text-anchor="start" x="571.182" y="-414.3" font-family="Times,serif" font-size="14.00">updated_at :datetime</text>
<text text-anchor="start" x="571.182" y="-400.3" font-family="Times,serif" font-size="14.00">user_id :integer</text>
</g>
<!-- Teacher -->
<g id="node7" class="node"><title>Teacher</title>
<path fill="none" stroke="black" d="M201.182,-179.5C201.182,-179.5 310.193,-179.5 310.193,-179.5 316.193,-179.5 322.193,-185.5 322.193,-191.5 322.193,-191.5 322.193,-295.5 322.193,-295.5 322.193,-301.5 316.193,-307.5 310.193,-307.5 310.193,-307.5 201.182,-307.5 201.182,-307.5 195.182,-307.5 189.182,-301.5 189.182,-295.5 189.182,-295.5 189.182,-191.5 189.182,-191.5 189.182,-185.5 195.182,-179.5 201.182,-179.5"/>
<text text-anchor="middle" x="255.688" y="-292.3" font-family="Times,serif" font-size="14.00">Teacher</text>
<polyline fill="none" stroke="black" points="189.182,-285.5 322.193,-285.5 "/>
<text text-anchor="start" x="197.182" y="-270.3" font-family="Times,serif" font-size="14.00">id :integer</text>
<text text-anchor="start" x="197.182" y="-256.3" font-family="Times,serif" font-size="14.00">ename :string</text>
<text text-anchor="start" x="197.182" y="-242.3" font-family="Times,serif" font-size="14.00">cname :string</text>
<text text-anchor="start" x="197.182" y="-228.3" font-family="Times,serif" font-size="14.00">dob :date</text>
<text text-anchor="start" x="197.182" y="-214.3" font-family="Times,serif" font-size="14.00">group_id :integer</text>
<text text-anchor="start" x="197.182" y="-200.3" font-family="Times,serif" font-size="14.00">created_at :datetime</text>
<text text-anchor="start" x="197.182" y="-186.3" font-family="Times,serif" font-size="14.00">updated_at :datetime</text>
</g>
<!-- Student&#45;&gt;Teacher -->
<g id="edge4" class="edge"><title>Student&#45;&gt;Teacher</title>
<path fill="none" stroke="#a82961" d="M221.957,-334.753C224.161,-328.855 226.35,-322.999 228.491,-317.269"/>
<polygon fill="#a82961" stroke="#a82961" points="221.863,-335.003 214.147,-342.795 220.113,-339.687 218.363,-344.37 218.363,-344.37 218.363,-344.37 220.113,-339.687 222.578,-345.946 221.863,-335.003 221.863,-335.003"/>
<polygon fill="#a82961" stroke="#a82961" points="228.544,-317.128 236.26,-309.336 230.294,-312.445 232.045,-307.761 232.045,-307.761 232.045,-307.761 230.294,-312.445 227.83,-306.186 228.544,-317.128 228.544,-317.128"/>
</g>
<!-- Teacher&#45;&gt;Appointment -->
<g id="edge6" class="edge"><title>Teacher&#45;&gt;Appointment</title>
<path fill="none" stroke="#848b43" d="M268.836,-315.493C270.308,-325.052 271.648,-334.748 272.688,-344 282.947,-435.278 287.721,-540.692 289.908,-611.263"/>
<ellipse fill="none" stroke="#848b43" cx="268.198" cy="-311.46" rx="4.00001" ry="4.00001"/>
<polygon fill="#848b43" stroke="#848b43" points="289.912,-611.421 285.714,-621.552 290.062,-616.419 290.212,-621.417 290.212,-621.417 290.212,-621.417 290.062,-616.419 294.71,-621.282 289.912,-611.421 289.912,-611.421"/>
</g>
<!-- Teacher&#45;&gt;Group -->
<g id="edge5" class="edge"><title>Teacher&#45;&gt;Group</title>
<path fill="none" stroke="#332ca5" d="M255.688,-171.032C255.688,-165.028 255.688,-158.931 255.688,-152.867"/>
<ellipse fill="none" stroke="#332ca5" cx="255.688" cy="-175.198" rx="4" ry="4"/>
<polygon fill="#332ca5" stroke="#332ca5" points="255.688,-152.711 260.188,-142.711 255.688,-147.711 255.688,-142.711 255.688,-142.711 255.688,-142.711 255.688,-147.711 251.188,-142.711 255.688,-152.711 255.688,-152.711"/>
</g>
<!-- User -->
<g id="node8" class="node"><title>User</title>
<path fill="none" stroke="black" d="M539.41,-579.5C539.41,-579.5 719.966,-579.5 719.966,-579.5 725.966,-579.5 731.966,-585.5 731.966,-591.5 731.966,-591.5 731.966,-793.5 731.966,-793.5 731.966,-799.5 725.966,-805.5 719.966,-805.5 719.966,-805.5 539.41,-805.5 539.41,-805.5 533.41,-805.5 527.41,-799.5 527.41,-793.5 527.41,-793.5 527.41,-591.5 527.41,-591.5 527.41,-585.5 533.41,-579.5 539.41,-579.5"/>
<text text-anchor="middle" x="629.688" y="-790.3" font-family="Times,serif" font-size="14.00">User</text>
<polyline fill="none" stroke="black" points="527.41,-783.5 731.966,-783.5 "/>
<text text-anchor="start" x="535.41" y="-768.3" font-family="Times,serif" font-size="14.00">id :integer</text>
<text text-anchor="start" x="535.41" y="-754.3" font-family="Times,serif" font-size="14.00">email :string</text>
<text text-anchor="start" x="535.41" y="-740.3" font-family="Times,serif" font-size="14.00">encrypted_password :string</text>
<text text-anchor="start" x="535.41" y="-726.3" font-family="Times,serif" font-size="14.00">reset_password_token :string</text>
<text text-anchor="start" x="535.41" y="-712.3" font-family="Times,serif" font-size="14.00">reset_password_sent_at :datetime</text>
<text text-anchor="start" x="535.41" y="-698.3" font-family="Times,serif" font-size="14.00">remember_created_at :datetime</text>
<text text-anchor="start" x="535.41" y="-684.3" font-family="Times,serif" font-size="14.00">sign_in_count :integer</text>
<text text-anchor="start" x="535.41" y="-670.3" font-family="Times,serif" font-size="14.00">current_sign_in_at :datetime</text>
<text text-anchor="start" x="535.41" y="-656.3" font-family="Times,serif" font-size="14.00">last_sign_in_at :datetime</text>
<text text-anchor="start" x="535.41" y="-642.3" font-family="Times,serif" font-size="14.00">current_sign_in_ip :string</text>
<text text-anchor="start" x="535.41" y="-628.3" font-family="Times,serif" font-size="14.00">last_sign_in_ip :string</text>
<text text-anchor="start" x="535.41" y="-614.3" font-family="Times,serif" font-size="14.00">created_at :datetime</text>
<text text-anchor="start" x="535.41" y="-600.3" font-family="Times,serif" font-size="14.00">updated_at :datetime</text>
<text text-anchor="start" x="535.41" y="-586.3" font-family="Times,serif" font-size="14.00">admin :boolean</text>
</g>
<!-- User&#45;&gt;Photo -->
<g id="edge7" class="edge"><title>User&#45;&gt;Photo</title>
<path fill="none" stroke="#686e18" d="M629.688,-571.08C629.688,-547.583 629.688,-523.938 629.688,-503.548"/>
<ellipse fill="none" stroke="#686e18" cx="629.688" cy="-575.203" rx="4" ry="4"/>
<polygon fill="#686e18" stroke="#686e18" points="629.688,-503.509 634.188,-493.509 629.688,-498.509 629.688,-493.509 629.688,-493.509 629.688,-493.509 629.688,-498.509 625.188,-493.509 629.688,-503.509 629.688,-503.509"/>
</g>
</g>
</svg>
