<?xml version="1.0" encoding="UTF-8" standalone="no"?>
<!DOCTYPE svg PUBLIC "-//W3C//DTD SVG 1.1//EN"
 "http://www.w3.org/Graphics/SVG/1.1/DTD/svg11.dtd">
<!-- Generated by graphviz version 2.38.0 (20140413.2041)
 -->
<!-- Title: models_diagram Pages: 1 -->
<svg width="1397pt" height="1150pt"
 viewBox="0.00 0.00 1396.80 1150.00" xmlns="http://www.w3.org/2000/svg" xmlns:xlink="http://www.w3.org/1999/xlink">
<g id="graph0" class="graph" transform="scale(1 1) rotate(0) translate(4 1146)">
<title>models_diagram</title>
<polygon fill="white" stroke="none" points="-4,4 -4,-1146 1392.8,-1146 1392.8,4 -4,4"/>
<!-- _diagram_info -->
<g id="node1" class="node"><title>_diagram_info</title>
<text text-anchor="start" x="8" y="-1043.6" font-family="Times,serif" font-size="13.00">Models diagram</text>
<text text-anchor="start" x="8" y="-1030.6" font-family="Times,serif" font-size="13.00">Date: Jun 21 2015 &#45; 19:06</text>
<text text-anchor="start" x="8" y="-1017.6" font-family="Times,serif" font-size="13.00">Migration version: 20150418105322</text>
<text text-anchor="start" x="8" y="-1004.6" font-family="Times,serif" font-size="13.00">Generated by RailRoady 1.3.0</text>
<text text-anchor="start" x="8" y="-991.6" font-family="Times,serif" font-size="13.00">http://railroady.prestonlee.com</text>
</g>
<!-- Event -->
<g id="node2" class="node"><title>Event</title>
<path fill="none" stroke="black" d="M237.182,-936.5C237.182,-936.5 346.193,-936.5 346.193,-936.5 352.193,-936.5 358.193,-942.5 358.193,-948.5 358.193,-948.5 358.193,-1094.5 358.193,-1094.5 358.193,-1100.5 352.193,-1106.5 346.193,-1106.5 346.193,-1106.5 237.182,-1106.5 237.182,-1106.5 231.182,-1106.5 225.182,-1100.5 225.182,-1094.5 225.182,-1094.5 225.182,-948.5 225.182,-948.5 225.182,-942.5 231.182,-936.5 237.182,-936.5"/>
<text text-anchor="middle" x="291.688" y="-1091.3" font-family="Times,serif" font-size="14.00">Event</text>
<polyline fill="none" stroke="black" points="225.182,-1084.5 358.193,-1084.5 "/>
<text text-anchor="start" x="233.182" y="-1069.3" font-family="Times,serif" font-size="14.00">id :integer</text>
<text text-anchor="start" x="233.182" y="-1055.3" font-family="Times,serif" font-size="14.00">title :string</text>
<text text-anchor="start" x="233.182" y="-1041.3" font-family="Times,serif" font-size="14.00">description :text</text>
<text text-anchor="start" x="233.182" y="-1027.3" font-family="Times,serif" font-size="14.00">start_time :datetime</text>
<text text-anchor="start" x="233.182" y="-1013.3" font-family="Times,serif" font-size="14.00">end_time :datetime</text>
<text text-anchor="start" x="233.182" y="-999.3" font-family="Times,serif" font-size="14.00">teacher_id :integer</text>
<text text-anchor="start" x="233.182" y="-985.3" font-family="Times,serif" font-size="14.00">group_id :integer</text>
<text text-anchor="start" x="233.182" y="-971.3" font-family="Times,serif" font-size="14.00">ta :string</text>
<text text-anchor="start" x="233.182" y="-957.3" font-family="Times,serif" font-size="14.00">created_at :datetime</text>
<text text-anchor="start" x="233.182" y="-943.3" font-family="Times,serif" font-size="14.00">updated_at :datetime</text>
</g>
<!-- Student -->
<g id="node9" class="node"><title>Student</title>
<path fill="none" stroke="black" d="M331.586,-568.5C331.586,-568.5 481.79,-568.5 481.79,-568.5 487.79,-568.5 493.79,-574.5 493.79,-580.5 493.79,-580.5 493.79,-838.5 493.79,-838.5 493.79,-844.5 487.79,-850.5 481.79,-850.5 481.79,-850.5 331.586,-850.5 331.586,-850.5 325.586,-850.5 319.586,-844.5 319.586,-838.5 319.586,-838.5 319.586,-580.5 319.586,-580.5 319.586,-574.5 325.586,-568.5 331.586,-568.5"/>
<text text-anchor="middle" x="406.688" y="-835.3" font-family="Times,serif" font-size="14.00">Student</text>
<polyline fill="none" stroke="black" points="319.586,-828.5 493.79,-828.5 "/>
<text text-anchor="start" x="327.586" y="-813.3" font-family="Times,serif" font-size="14.00">id :integer</text>
<text text-anchor="start" x="327.586" y="-799.3" font-family="Times,serif" font-size="14.00">ename :string</text>
<text text-anchor="start" x="327.586" y="-785.3" font-family="Times,serif" font-size="14.00">cname :string</text>
<text text-anchor="start" x="327.586" y="-771.3" font-family="Times,serif" font-size="14.00">emergency_contact :string</text>
<text text-anchor="start" x="327.586" y="-757.3" font-family="Times,serif" font-size="14.00">email :string</text>
<text text-anchor="start" x="327.586" y="-743.3" font-family="Times,serif" font-size="14.00">address :string</text>
<text text-anchor="start" x="327.586" y="-729.3" font-family="Times,serif" font-size="14.00">dob :date</text>
<text text-anchor="start" x="327.586" y="-715.3" font-family="Times,serif" font-size="14.00">contract_start :date</text>
<text text-anchor="start" x="327.586" y="-701.3" font-family="Times,serif" font-size="14.00">contract_length :integer</text>
<text text-anchor="start" x="327.586" y="-687.3" font-family="Times,serif" font-size="14.00">points :integer</text>
<text text-anchor="start" x="327.586" y="-673.3" font-family="Times,serif" font-size="14.00">group_id :integer</text>
<text text-anchor="start" x="327.586" y="-659.3" font-family="Times,serif" font-size="14.00">user_id :integer</text>
<text text-anchor="start" x="327.586" y="-645.3" font-family="Times,serif" font-size="14.00">created_at :datetime</text>
<text text-anchor="start" x="327.586" y="-631.3" font-family="Times,serif" font-size="14.00">updated_at :datetime</text>
<text text-anchor="start" x="327.586" y="-617.3" font-family="Times,serif" font-size="14.00">avatar_file_name :string</text>
<text text-anchor="start" x="327.586" y="-603.3" font-family="Times,serif" font-size="14.00">avatar_content_type :string</text>
<text text-anchor="start" x="327.586" y="-589.3" font-family="Times,serif" font-size="14.00">avatar_file_size :integer</text>
<text text-anchor="start" x="327.586" y="-575.3" font-family="Times,serif" font-size="14.00">avatar_updated_at :datetime</text>
</g>
<!-- Event&#45;&gt;Student -->
<g id="edge1" class="edge"><title>Event&#45;&gt;Student</title>
<path fill="none" stroke="#e1f543" d="M325.752,-928.674C333.749,-907.118 342.475,-883.594 351.142,-860.231"/>
<ellipse fill="none" stroke="#e1f543" cx="324.351" cy="-932.45" rx="4.00001" ry="4.00001"/>
<polygon fill="#e1f543" stroke="#e1f543" points="351.241,-859.965 358.938,-852.154 352.98,-855.277 354.719,-850.589 354.719,-850.589 354.719,-850.589 352.98,-855.277 350.5,-849.024 351.241,-859.965 351.241,-859.965"/>
</g>
<!-- Group -->
<g id="node3" class="node"><title>Group</title>
<path fill="none" stroke="black" d="M268.182,-180.5C268.182,-180.5 377.193,-180.5 377.193,-180.5 383.193,-180.5 389.193,-186.5 389.193,-192.5 389.193,-192.5 389.193,-310.5 389.193,-310.5 389.193,-316.5 383.193,-322.5 377.193,-322.5 377.193,-322.5 268.182,-322.5 268.182,-322.5 262.182,-322.5 256.182,-316.5 256.182,-310.5 256.182,-310.5 256.182,-192.5 256.182,-192.5 256.182,-186.5 262.182,-180.5 268.182,-180.5"/>
<text text-anchor="middle" x="322.688" y="-307.3" font-family="Times,serif" font-size="14.00">Group</text>
<polyline fill="none" stroke="black" points="256.182,-300.5 389.193,-300.5 "/>
<text text-anchor="start" x="264.182" y="-285.3" font-family="Times,serif" font-size="14.00">id :integer</text>
<text text-anchor="start" x="264.182" y="-271.3" font-family="Times,serif" font-size="14.00">school :string</text>
<text text-anchor="start" x="264.182" y="-257.3" font-family="Times,serif" font-size="14.00">name :string</text>
<text text-anchor="start" x="264.182" y="-243.3" font-family="Times,serif" font-size="14.00">teacher_id :integer</text>
<text text-anchor="start" x="264.182" y="-229.3" font-family="Times,serif" font-size="14.00">student_id :integer</text>
<text text-anchor="start" x="264.182" y="-215.3" font-family="Times,serif" font-size="14.00">pa :string</text>
<text text-anchor="start" x="264.182" y="-201.3" font-family="Times,serif" font-size="14.00">created_at :datetime</text>
<text text-anchor="start" x="264.182" y="-187.3" font-family="Times,serif" font-size="14.00">updated_at :datetime</text>
</g>
<!-- Group&#45;&gt;Event -->
<g id="edge4" class="edge"><title>Group&#45;&gt;Event</title>
<path fill="none" stroke="#979823" d="M260.102,-329.695C254.656,-339.455 249.974,-349.658 246.688,-360 185.027,-554.03 230.241,-795.778 263.951,-926.312"/>
<ellipse fill="none" stroke="#979823" cx="262.18" cy="-326.127" rx="4.00002" ry="4.00002"/>
<polygon fill="#979823" stroke="#979823" points="264.029,-926.61 262.207,-937.424 265.295,-931.447 266.56,-936.285 266.56,-936.285 266.56,-936.285 265.295,-931.447 270.914,-935.146 264.029,-926.61 264.029,-926.61"/>
</g>
<!-- Homework -->
<g id="node4" class="node"><title>Homework</title>
<path fill="none" stroke="black" d="M268.182,-0.5C268.182,-0.5 377.193,-0.5 377.193,-0.5 383.193,-0.5 389.193,-6.5 389.193,-12.5 389.193,-12.5 389.193,-130.5 389.193,-130.5 389.193,-136.5 383.193,-142.5 377.193,-142.5 377.193,-142.5 268.182,-142.5 268.182,-142.5 262.182,-142.5 256.182,-136.5 256.182,-130.5 256.182,-130.5 256.182,-12.5 256.182,-12.5 256.182,-6.5 262.182,-0.5 268.182,-0.5"/>
<text text-anchor="middle" x="322.688" y="-127.3" font-family="Times,serif" font-size="14.00">Homework</text>
<polyline fill="none" stroke="black" points="256.182,-120.5 389.193,-120.5 "/>
<text text-anchor="start" x="264.182" y="-105.3" font-family="Times,serif" font-size="14.00">id :integer</text>
<text text-anchor="start" x="264.182" y="-91.3" font-family="Times,serif" font-size="14.00">group_id :integer</text>
<text text-anchor="start" x="264.182" y="-77.3" font-family="Times,serif" font-size="14.00">title :string</text>
<text text-anchor="start" x="264.182" y="-63.3" font-family="Times,serif" font-size="14.00">assigned :date</text>
<text text-anchor="start" x="264.182" y="-49.3" font-family="Times,serif" font-size="14.00">due :datetime</text>
<text text-anchor="start" x="264.182" y="-35.3" font-family="Times,serif" font-size="14.00">instructions :string</text>
<text text-anchor="start" x="264.182" y="-21.3" font-family="Times,serif" font-size="14.00">created_at :datetime</text>
<text text-anchor="start" x="264.182" y="-7.3" font-family="Times,serif" font-size="14.00">updated_at :datetime</text>
</g>
<!-- Group&#45;&gt;Homework -->
<g id="edge3" class="edge"><title>Group&#45;&gt;Homework</title>
<path fill="none" stroke="#501994" d="M322.688,-172.17C322.688,-165.694 322.688,-159.143 322.688,-152.655"/>
<ellipse fill="none" stroke="#501994" cx="322.688" cy="-176.405" rx="4" ry="4"/>
<polygon fill="#501994" stroke="#501994" points="322.688,-152.531 327.188,-142.531 322.688,-147.531 322.688,-142.531 322.688,-142.531 322.688,-142.531 322.688,-147.531 318.188,-142.531 322.688,-152.531 322.688,-152.531"/>
</g>
<!-- Group&#45;&gt;Student -->
<g id="edge2" class="edge"><title>Group&#45;&gt;Student</title>
<path fill="none" stroke="#8cd815" d="M385.038,-329.771C390.527,-339.518 395.283,-349.697 398.688,-360 419.419,-422.734 423.924,-495.341 422.271,-557.991"/>
<ellipse fill="none" stroke="#8cd815" cx="382.945" cy="-326.205" rx="4.00002" ry="4.00002"/>
<polygon fill="#8cd815" stroke="#8cd815" points="422.259,-558.363 417.442,-568.214 422.099,-563.361 421.939,-568.358 421.939,-568.358 421.939,-568.358 422.099,-563.361 426.437,-568.502 422.259,-558.363 422.259,-558.363"/>
</g>
<!-- Inquery -->
<g id="node5" class="node"><title>Inquery</title>
<path fill="none" stroke="black" d="M968.182,-957.5C968.182,-957.5 1077.19,-957.5 1077.19,-957.5 1083.19,-957.5 1089.19,-963.5 1089.19,-969.5 1089.19,-969.5 1089.19,-1073.5 1089.19,-1073.5 1089.19,-1079.5 1083.19,-1085.5 1077.19,-1085.5 1077.19,-1085.5 968.182,-1085.5 968.182,-1085.5 962.182,-1085.5 956.182,-1079.5 956.182,-1073.5 956.182,-1073.5 956.182,-969.5 956.182,-969.5 956.182,-963.5 962.182,-957.5 968.182,-957.5"/>
<text text-anchor="middle" x="1022.69" y="-1070.3" font-family="Times,serif" font-size="14.00">Inquery</text>
<polyline fill="none" stroke="black" points="956.182,-1063.5 1089.19,-1063.5 "/>
<text text-anchor="start" x="964.182" y="-1048.3" font-family="Times,serif" font-size="14.00">id :integer</text>
<text text-anchor="start" x="964.182" y="-1034.3" font-family="Times,serif" font-size="14.00">name :string</text>
<text text-anchor="start" x="964.182" y="-1020.3" font-family="Times,serif" font-size="14.00">email :string</text>
<text text-anchor="start" x="964.182" y="-1006.3" font-family="Times,serif" font-size="14.00">phone :string</text>
<text text-anchor="start" x="964.182" y="-992.3" font-family="Times,serif" font-size="14.00">message :text</text>
<text text-anchor="start" x="964.182" y="-978.3" font-family="Times,serif" font-size="14.00">created_at :datetime</text>
<text text-anchor="start" x="964.182" y="-964.3" font-family="Times,serif" font-size="14.00">updated_at :datetime</text>
</g>
<!-- LessonPlan -->
<g id="node6" class="node"><title>LessonPlan</title>
<path fill="none" stroke="black" d="M1034.58,-631.5C1034.58,-631.5 1184.8,-631.5 1184.8,-631.5 1190.8,-631.5 1196.8,-637.5 1196.8,-643.5 1196.8,-643.5 1196.8,-775.5 1196.8,-775.5 1196.8,-781.5 1190.8,-787.5 1184.8,-787.5 1184.8,-787.5 1034.58,-787.5 1034.58,-787.5 1028.58,-787.5 1022.58,-781.5 1022.58,-775.5 1022.58,-775.5 1022.58,-643.5 1022.58,-643.5 1022.58,-637.5 1028.58,-631.5 1034.58,-631.5"/>
<text text-anchor="middle" x="1109.69" y="-772.3" font-family="Times,serif" font-size="14.00">LessonPlan</text>
<polyline fill="none" stroke="black" points="1022.58,-765.5 1196.8,-765.5 "/>
<text text-anchor="start" x="1030.58" y="-750.3" font-family="Times,serif" font-size="14.00">id :integer</text>
<text text-anchor="start" x="1030.58" y="-736.3" font-family="Times,serif" font-size="14.00">level :string</text>
<text text-anchor="start" x="1030.58" y="-722.3" font-family="Times,serif" font-size="14.00">class_number :integer</text>
<text text-anchor="start" x="1030.58" y="-708.3" font-family="Times,serif" font-size="14.00">created_at :datetime</text>
<text text-anchor="start" x="1030.58" y="-694.3" font-family="Times,serif" font-size="14.00">updated_at :datetime</text>
<text text-anchor="start" x="1030.58" y="-680.3" font-family="Times,serif" font-size="14.00">image_file_name :string</text>
<text text-anchor="start" x="1030.58" y="-666.3" font-family="Times,serif" font-size="14.00">image_content_type :string</text>
<text text-anchor="start" x="1030.58" y="-652.3" font-family="Times,serif" font-size="14.00">image_file_size :integer</text>
<text text-anchor="start" x="1030.58" y="-638.3" font-family="Times,serif" font-size="14.00">image_updated_at :datetime</text>
</g>
<!-- Photo -->
<g id="node7" class="node"><title>Photo</title>
<path fill="none" stroke="black" d="M1226.58,-631.5C1226.58,-631.5 1376.8,-631.5 1376.8,-631.5 1382.8,-631.5 1388.8,-637.5 1388.8,-643.5 1388.8,-643.5 1388.8,-775.5 1388.8,-775.5 1388.8,-781.5 1382.8,-787.5 1376.8,-787.5 1376.8,-787.5 1226.58,-787.5 1226.58,-787.5 1220.58,-787.5 1214.58,-781.5 1214.58,-775.5 1214.58,-775.5 1214.58,-643.5 1214.58,-643.5 1214.58,-637.5 1220.58,-631.5 1226.58,-631.5"/>
<text text-anchor="middle" x="1301.69" y="-772.3" font-family="Times,serif" font-size="14.00">Photo</text>
<polyline fill="none" stroke="black" points="1214.58,-765.5 1388.8,-765.5 "/>
<text text-anchor="start" x="1222.58" y="-750.3" font-family="Times,serif" font-size="14.00">id :integer</text>
<text text-anchor="start" x="1222.58" y="-736.3" font-family="Times,serif" font-size="14.00">description :string</text>
<text text-anchor="start" x="1222.58" y="-722.3" font-family="Times,serif" font-size="14.00">created_at :datetime</text>
<text text-anchor="start" x="1222.58" y="-708.3" font-family="Times,serif" font-size="14.00">updated_at :datetime</text>
<text text-anchor="start" x="1222.58" y="-694.3" font-family="Times,serif" font-size="14.00">user_id :integer</text>
<text text-anchor="start" x="1222.58" y="-680.3" font-family="Times,serif" font-size="14.00">image_file_name :string</text>
<text text-anchor="start" x="1222.58" y="-666.3" font-family="Times,serif" font-size="14.00">image_content_type :string</text>
<text text-anchor="start" x="1222.58" y="-652.3" font-family="Times,serif" font-size="14.00">image_file_size :integer</text>
<text text-anchor="start" x="1222.58" y="-638.3" font-family="Times,serif" font-size="14.00">image_updated_at :datetime</text>
</g>
<!-- Resource -->
<g id="node8" class="node"><title>Resource</title>
<path fill="none" stroke="black" d="M524.182,-631.5C524.182,-631.5 633.193,-631.5 633.193,-631.5 639.193,-631.5 645.193,-637.5 645.193,-643.5 645.193,-643.5 645.193,-775.5 645.193,-775.5 645.193,-781.5 639.193,-787.5 633.193,-787.5 633.193,-787.5 524.182,-787.5 524.182,-787.5 518.182,-787.5 512.182,-781.5 512.182,-775.5 512.182,-775.5 512.182,-643.5 512.182,-643.5 512.182,-637.5 518.182,-631.5 524.182,-631.5"/>
<text text-anchor="middle" x="578.688" y="-772.3" font-family="Times,serif" font-size="14.00">Resource</text>
<polyline fill="none" stroke="black" points="512.182,-765.5 645.193,-765.5 "/>
<text text-anchor="start" x="520.182" y="-750.3" font-family="Times,serif" font-size="14.00">id :integer</text>
<text text-anchor="start" x="520.182" y="-736.3" font-family="Times,serif" font-size="14.00">title :string</text>
<text text-anchor="start" x="520.182" y="-722.3" font-family="Times,serif" font-size="14.00">url :string</text>
<text text-anchor="start" x="520.182" y="-708.3" font-family="Times,serif" font-size="14.00">focus :string</text>
<text text-anchor="start" x="520.182" y="-694.3" font-family="Times,serif" font-size="14.00">notes :string</text>
<text text-anchor="start" x="520.182" y="-680.3" font-family="Times,serif" font-size="14.00">level :string</text>
<text text-anchor="start" x="520.182" y="-666.3" font-family="Times,serif" font-size="14.00">user_id :integer</text>
<text text-anchor="start" x="520.182" y="-652.3" font-family="Times,serif" font-size="14.00">created_at :datetime</text>
<text text-anchor="start" x="520.182" y="-638.3" font-family="Times,serif" font-size="14.00">updated_at :datetime</text>
</g>
<!-- Teacher -->
<g id="node10" class="node"><title>Teacher</title>
<path fill="none" stroke="black" d="M268.182,-360.5C268.182,-360.5 377.193,-360.5 377.193,-360.5 383.193,-360.5 389.193,-366.5 389.193,-372.5 389.193,-372.5 389.193,-518.5 389.193,-518.5 389.193,-524.5 383.193,-530.5 377.193,-530.5 377.193,-530.5 268.182,-530.5 268.182,-530.5 262.182,-530.5 256.182,-524.5 256.182,-518.5 256.182,-518.5 256.182,-372.5 256.182,-372.5 256.182,-366.5 262.182,-360.5 268.182,-360.5"/>
<text text-anchor="middle" x="322.688" y="-515.3" font-family="Times,serif" font-size="14.00">Teacher</text>
<polyline fill="none" stroke="black" points="256.182,-508.5 389.193,-508.5 "/>
<text text-anchor="start" x="264.182" y="-493.3" font-family="Times,serif" font-size="14.00">id :integer</text>
<text text-anchor="start" x="264.182" y="-479.3" font-family="Times,serif" font-size="14.00">ename :string</text>
<text text-anchor="start" x="264.182" y="-465.3" font-family="Times,serif" font-size="14.00">cname :string</text>
<text text-anchor="start" x="264.182" y="-451.3" font-family="Times,serif" font-size="14.00">dob :date</text>
<text text-anchor="start" x="264.182" y="-437.3" font-family="Times,serif" font-size="14.00">phone :string</text>
<text text-anchor="start" x="264.182" y="-423.3" font-family="Times,serif" font-size="14.00">email :string</text>
<text text-anchor="start" x="264.182" y="-409.3" font-family="Times,serif" font-size="14.00">duration :date</text>
<text text-anchor="start" x="264.182" y="-395.3" font-family="Times,serif" font-size="14.00">group_id :integer</text>
<text text-anchor="start" x="264.182" y="-381.3" font-family="Times,serif" font-size="14.00">created_at :datetime</text>
<text text-anchor="start" x="264.182" y="-367.3" font-family="Times,serif" font-size="14.00">updated_at :datetime</text>
</g>
<!-- Student&#45;&gt;Teacher -->
<g id="edge5" class="edge"><title>Student&#45;&gt;Teacher</title>
<path fill="none" stroke="#29c189" d="M358.674,-558.744C356.72,-552.649 354.784,-546.61 352.883,-540.679"/>
<polygon fill="#29c189" stroke="#29c189" points="358.684,-558.773 357.452,-569.67 360.21,-563.535 361.737,-568.296 361.737,-568.296 361.737,-568.296 360.21,-563.535 366.022,-566.922 358.684,-558.773 358.684,-558.773"/>
<polygon fill="#29c189" stroke="#29c189" points="352.772,-540.335 354.004,-529.438 351.246,-535.574 349.719,-530.812 349.719,-530.812 349.719,-530.812 351.246,-535.574 345.434,-532.186 352.772,-540.335 352.772,-540.335"/>
</g>
<!-- Teacher&#45;&gt;Event -->
<g id="edge7" class="edge"><title>Teacher&#45;&gt;Event</title>
<path fill="none" stroke="#c82490" d="M313.006,-538.975C312.145,-548.768 311.35,-558.584 310.688,-568 301.996,-691.607 296.805,-834.508 294.099,-926.107"/>
<ellipse fill="none" stroke="#c82490" cx="313.386" cy="-534.748" rx="4" ry="4"/>
<polygon fill="#c82490" stroke="#c82490" points="294.096,-926.193 289.307,-936.058 293.951,-931.191 293.805,-936.189 293.805,-936.189 293.805,-936.189 293.951,-931.191 298.303,-936.32 294.096,-926.193 294.096,-926.193"/>
</g>
<!-- Teacher&#45;&gt;Group -->
<g id="edge6" class="edge"><title>Teacher&#45;&gt;Group</title>
<path fill="none" stroke="#bf82bc" d="M322.688,-351.991C322.688,-345.648 322.688,-339.285 322.688,-333.013"/>
<ellipse fill="none" stroke="#bf82bc" cx="322.688" cy="-356.286" rx="4" ry="4"/>
<polygon fill="#bf82bc" stroke="#bf82bc" points="322.688,-332.562 327.188,-322.562 322.688,-327.562 322.688,-322.562 322.688,-322.562 322.688,-322.562 322.688,-327.562 318.188,-322.562 322.688,-332.562 322.688,-332.562"/>
</g>
<!-- User -->
<g id="node11" class="node"><title>User</title>
<path fill="none" stroke="black" d="M745.41,-901.5C745.41,-901.5 925.966,-901.5 925.966,-901.5 931.966,-901.5 937.966,-907.5 937.966,-913.5 937.966,-913.5 937.966,-1129.5 937.966,-1129.5 937.966,-1135.5 931.966,-1141.5 925.966,-1141.5 925.966,-1141.5 745.41,-1141.5 745.41,-1141.5 739.41,-1141.5 733.41,-1135.5 733.41,-1129.5 733.41,-1129.5 733.41,-913.5 733.41,-913.5 733.41,-907.5 739.41,-901.5 745.41,-901.5"/>
<text text-anchor="middle" x="835.688" y="-1126.3" font-family="Times,serif" font-size="14.00">User</text>
<polyline fill="none" stroke="black" points="733.41,-1119.5 937.966,-1119.5 "/>
<text text-anchor="start" x="741.41" y="-1104.3" font-family="Times,serif" font-size="14.00">id :integer</text>
<text text-anchor="start" x="741.41" y="-1090.3" font-family="Times,serif" font-size="14.00">name :string</text>
<text text-anchor="start" x="741.41" y="-1076.3" font-family="Times,serif" font-size="14.00">email :string</text>
<text text-anchor="start" x="741.41" y="-1062.3" font-family="Times,serif" font-size="14.00">encrypted_password :string</text>
<text text-anchor="start" x="741.41" y="-1048.3" font-family="Times,serif" font-size="14.00">reset_password_token :string</text>
<text text-anchor="start" x="741.41" y="-1034.3" font-family="Times,serif" font-size="14.00">reset_password_sent_at :datetime</text>
<text text-anchor="start" x="741.41" y="-1020.3" font-family="Times,serif" font-size="14.00">remember_created_at :datetime</text>
<text text-anchor="start" x="741.41" y="-1006.3" font-family="Times,serif" font-size="14.00">sign_in_count :integer</text>
<text text-anchor="start" x="741.41" y="-992.3" font-family="Times,serif" font-size="14.00">current_sign_in_at :datetime</text>
<text text-anchor="start" x="741.41" y="-978.3" font-family="Times,serif" font-size="14.00">last_sign_in_at :datetime</text>
<text text-anchor="start" x="741.41" y="-964.3" font-family="Times,serif" font-size="14.00">current_sign_in_ip :string</text>
<text text-anchor="start" x="741.41" y="-950.3" font-family="Times,serif" font-size="14.00">last_sign_in_ip :string</text>
<text text-anchor="start" x="741.41" y="-936.3" font-family="Times,serif" font-size="14.00">created_at :datetime</text>
<text text-anchor="start" x="741.41" y="-922.3" font-family="Times,serif" font-size="14.00">updated_at :datetime</text>
<text text-anchor="start" x="741.41" y="-908.3" font-family="Times,serif" font-size="14.00">admin :boolean</text>
</g>
<!-- User&#45;&gt;LessonPlan -->
<g id="edge9" class="edge"><title>User&#45;&gt;LessonPlan</title>
<path fill="none" stroke="#928896" d="M944.019,-903.412C944.909,-902.602 945.799,-901.798 946.688,-901 974.333,-876.175 987.968,-877.815 1013.69,-851 1029.54,-834.471 1044.6,-815.067 1057.89,-796.046"/>
<ellipse fill="none" stroke="#928896" cx="941.078" cy="-906.125" rx="4.00002" ry="4.00002"/>
<polygon fill="#928896" stroke="#928896" points="1058,-795.879 1067.37,-790.187 1060.83,-791.758 1063.66,-787.638 1063.66,-787.638 1063.66,-787.638 1060.83,-791.758 1059.96,-785.089 1058,-795.879 1058,-795.879"/>
</g>
<!-- User&#45;&gt;Photo -->
<g id="edge8" class="edge"><title>User&#45;&gt;Photo</title>
<path fill="none" stroke="#ae0f96" d="M945.355,-901.748C945.799,-901.496 946.243,-901.247 946.688,-901 997.947,-872.564 1156.69,-883.175 1205.69,-851 1226.74,-837.175 1244.42,-816.977 1258.63,-796.182"/>
<ellipse fill="none" stroke="#ae0f96" cx="941.672" cy="-903.963" rx="4.00002" ry="4.00002"/>
<polygon fill="#ae0f96" stroke="#ae0f96" points="1258.81,-795.918 1268.07,-790.045 1261.56,-791.743 1264.31,-787.568 1264.31,-787.568 1264.31,-787.568 1261.56,-791.743 1260.55,-785.092 1258.81,-795.918 1258.81,-795.918"/>
</g>
<!-- User&#45;&gt;Resource -->
<g id="edge10" class="edge"><title>User&#45;&gt;Resource</title>
<path fill="none" stroke="#cecc44" d="M727.483,-930.76C701.583,-906.416 675.224,-879.001 653.688,-851 640.881,-834.35 629.071,-815.209 618.793,-796.522"/>
<ellipse fill="none" stroke="#cecc44" cx="730.424" cy="-933.502" rx="4.00002" ry="4.00002"/>
<polygon fill="#cecc44" stroke="#cecc44" points="618.776,-796.49 617.988,-785.552 616.402,-792.089 614.028,-787.689 614.028,-787.689 614.028,-787.689 616.402,-792.089 610.067,-789.826 618.776,-796.49 618.776,-796.49"/>
</g>
<!-- User&#45;&gt;Student -->
<g id="edge11" class="edge"><title>User&#45;&gt;Student</title>
<path fill="none" stroke="#4a920b" d="M725.545,-980.88C656.303,-952.215 568.032,-908.439 502.688,-851 501.752,-850.177 500.82,-849.343 499.894,-848.499"/>
<ellipse fill="none" stroke="#4a920b" cx="729.336" cy="-982.434" rx="4.00002" ry="4.00002"/>
<ellipse fill="#4a920b" stroke="#4a920b" cx="496.757" cy="-845.53" rx="4.00002" ry="4.00002"/>
</g>
<!-- Mailboxer::Message -->
<g id="node12" class="node"><title>Mailboxer::Message</title>
<ellipse fill="none" stroke="black" cx="745.688" cy="-709.5" rx="82.6045" ry="18"/>
<text text-anchor="middle" x="745.688" y="-705.3" font-family="Times,serif" font-size="14.00">Mailboxer::Message</text>
</g>
<!-- User&#45;&gt;Mailboxer::Message -->
<g id="edge12" class="edge"><title>User&#45;&gt;Mailboxer::Message</title>
<path fill="none" stroke="#b5d8e8" d="M798.769,-893.336C781.964,-835.453 763.605,-772.216 753.484,-737.355"/>
<ellipse fill="none" stroke="#b5d8e8" cx="799.905" cy="-897.248" rx="4.00001" ry="4.00001"/>
<polygon fill="#b5d8e8" stroke="#b5d8e8" points="753.407,-737.088 754.94,-726.23 752.013,-732.286 750.619,-727.485 750.619,-727.485 750.619,-727.485 752.013,-732.286 746.297,-728.739 753.407,-737.088 753.407,-737.088"/>
<text text-anchor="middle" x="819.126" y="-871.8" font-family="Times,serif" font-size="14.00">messages</text>
</g>
<!-- Mailboxer::Receipt -->
<g id="node13" class="node"><title>Mailboxer::Receipt</title>
<ellipse fill="none" stroke="black" cx="925.688" cy="-709.5" rx="78.7367" ry="18"/>
<text text-anchor="middle" x="925.688" y="-705.3" font-family="Times,serif" font-size="14.00">Mailboxer::Receipt</text>
</g>
<!-- User&#45;&gt;Mailboxer::Receipt -->
<g id="edge13" class="edge"><title>User&#45;&gt;Mailboxer::Receipt</title>
<path fill="none" stroke="#9e7d4f" d="M872.606,-893.336C889.411,-835.453 907.77,-772.216 917.891,-737.355"/>
<ellipse fill="none" stroke="#9e7d4f" cx="871.471" cy="-897.248" rx="4.00001" ry="4.00001"/>
<polygon fill="#9e7d4f" stroke="#9e7d4f" points="917.969,-737.088 925.078,-728.739 919.363,-732.286 920.757,-727.485 920.757,-727.485 920.757,-727.485 919.363,-732.286 916.435,-726.23 917.969,-737.088 917.969,-737.088"/>
<text text-anchor="middle" x="899.453" y="-871.8" font-family="Times,serif" font-size="14.00">receipts</text>
</g>
</g>
</svg>
