<?xml version="1.0" encoding="UTF-8" standalone="no"?>
<!DOCTYPE svg PUBLIC "-//W3C//DTD SVG 1.1//EN"
 "http://www.w3.org/Graphics/SVG/1.1/DTD/svg11.dtd">
<!-- Generated by graphviz version 2.38.0 (20140413.2041)
 -->
<!-- Title: models_diagram Pages: 1 -->
<svg width="589pt" height="551pt"
 viewBox="0.00 0.00 588.97 551.00" xmlns="http://www.w3.org/2000/svg" xmlns:xlink="http://www.w3.org/1999/xlink">
<g id="graph0" class="graph" transform="scale(1 1) rotate(0) translate(4 547)">
<title>models_diagram</title>
<polygon fill="white" stroke="none" points="-4,4 -4,-547 584.966,-547 584.966,4 -4,4"/>
<!-- _diagram_info -->
<g id="node1" class="node"><title>_diagram_info</title>
<text text-anchor="start" x="8" y="-458.6" font-family="Times,serif" font-size="13.00">Models diagram</text>
<text text-anchor="start" x="8" y="-445.6" font-family="Times,serif" font-size="13.00">Date: Jan 26 2015 &#45; 15:26</text>
<text text-anchor="start" x="8" y="-432.6" font-family="Times,serif" font-size="13.00">Migration version: 20150125152445</text>
<text text-anchor="start" x="8" y="-419.6" font-family="Times,serif" font-size="13.00">Generated by RailRoady 1.3.0</text>
<text text-anchor="start" x="8" y="-406.6" font-family="Times,serif" font-size="13.00">http://railroady.prestonlee.com</text>
</g>
<!-- Group -->
<g id="node2" class="node"><title>Group</title>
<path fill="none" stroke="black" d="M237.182,-0.5C237.182,-0.5 346.193,-0.5 346.193,-0.5 352.193,-0.5 358.193,-6.5 358.193,-12.5 358.193,-12.5 358.193,-116.5 358.193,-116.5 358.193,-122.5 352.193,-128.5 346.193,-128.5 346.193,-128.5 237.182,-128.5 237.182,-128.5 231.182,-128.5 225.182,-122.5 225.182,-116.5 225.182,-116.5 225.182,-12.5 225.182,-12.5 225.182,-6.5 231.182,-0.5 237.182,-0.5"/>
<text text-anchor="middle" x="291.688" y="-113.3" font-family="Times,serif" font-size="14.00">Group</text>
<polyline fill="none" stroke="black" points="225.182,-106.5 358.193,-106.5 "/>
<text text-anchor="start" x="233.182" y="-91.3" font-family="Times,serif" font-size="14.00">id :integer</text>
<text text-anchor="start" x="233.182" y="-77.3" font-family="Times,serif" font-size="14.00">school :string</text>
<text text-anchor="start" x="233.182" y="-63.3" font-family="Times,serif" font-size="14.00">name :string</text>
<text text-anchor="start" x="233.182" y="-49.3" font-family="Times,serif" font-size="14.00">nextclass :datetime</text>
<text text-anchor="start" x="233.182" y="-35.3" font-family="Times,serif" font-size="14.00">teacher_id :integer</text>
<text text-anchor="start" x="233.182" y="-21.3" font-family="Times,serif" font-size="14.00">created_at :datetime</text>
<text text-anchor="start" x="233.182" y="-7.3" font-family="Times,serif" font-size="14.00">updated_at :datetime</text>
</g>
<!-- Photo -->
<g id="node3" class="node"><title>Photo</title>
<path fill="none" stroke="black" d="M424.182,-179.5C424.182,-179.5 533.193,-179.5 533.193,-179.5 539.193,-179.5 545.193,-185.5 545.193,-191.5 545.193,-191.5 545.193,-267.5 545.193,-267.5 545.193,-273.5 539.193,-279.5 533.193,-279.5 533.193,-279.5 424.182,-279.5 424.182,-279.5 418.182,-279.5 412.182,-273.5 412.182,-267.5 412.182,-267.5 412.182,-191.5 412.182,-191.5 412.182,-185.5 418.182,-179.5 424.182,-179.5"/>
<text text-anchor="middle" x="478.688" y="-264.3" font-family="Times,serif" font-size="14.00">Photo</text>
<polyline fill="none" stroke="black" points="412.182,-257.5 545.193,-257.5 "/>
<text text-anchor="start" x="420.182" y="-242.3" font-family="Times,serif" font-size="14.00">id :integer</text>
<text text-anchor="start" x="420.182" y="-228.3" font-family="Times,serif" font-size="14.00">description :string</text>
<text text-anchor="start" x="420.182" y="-214.3" font-family="Times,serif" font-size="14.00">created_at :datetime</text>
<text text-anchor="start" x="420.182" y="-200.3" font-family="Times,serif" font-size="14.00">updated_at :datetime</text>
<text text-anchor="start" x="420.182" y="-186.3" font-family="Times,serif" font-size="14.00">user_id :integer</text>
</g>
<!-- Student -->
<g id="node4" class="node"><title>Student</title>
<path fill="none" stroke="black" d="M237.182,-372.5C237.182,-372.5 346.193,-372.5 346.193,-372.5 352.193,-372.5 358.193,-378.5 358.193,-384.5 358.193,-384.5 358.193,-488.5 358.193,-488.5 358.193,-494.5 352.193,-500.5 346.193,-500.5 346.193,-500.5 237.182,-500.5 237.182,-500.5 231.182,-500.5 225.182,-494.5 225.182,-488.5 225.182,-488.5 225.182,-384.5 225.182,-384.5 225.182,-378.5 231.182,-372.5 237.182,-372.5"/>
<text text-anchor="middle" x="291.688" y="-485.3" font-family="Times,serif" font-size="14.00">Student</text>
<polyline fill="none" stroke="black" points="225.182,-478.5 358.193,-478.5 "/>
<text text-anchor="start" x="233.182" y="-463.3" font-family="Times,serif" font-size="14.00">id :integer</text>
<text text-anchor="start" x="233.182" y="-449.3" font-family="Times,serif" font-size="14.00">ename :string</text>
<text text-anchor="start" x="233.182" y="-435.3" font-family="Times,serif" font-size="14.00">cname :string</text>
<text text-anchor="start" x="233.182" y="-421.3" font-family="Times,serif" font-size="14.00">dob :date</text>
<text text-anchor="start" x="233.182" y="-407.3" font-family="Times,serif" font-size="14.00">group_id :integer</text>
<text text-anchor="start" x="233.182" y="-393.3" font-family="Times,serif" font-size="14.00">created_at :datetime</text>
<text text-anchor="start" x="233.182" y="-379.3" font-family="Times,serif" font-size="14.00">updated_at :datetime</text>
</g>
<!-- Teacher -->
<g id="node5" class="node"><title>Teacher</title>
<path fill="none" stroke="black" d="M237.182,-165.5C237.182,-165.5 346.193,-165.5 346.193,-165.5 352.193,-165.5 358.193,-171.5 358.193,-177.5 358.193,-177.5 358.193,-281.5 358.193,-281.5 358.193,-287.5 352.193,-293.5 346.193,-293.5 346.193,-293.5 237.182,-293.5 237.182,-293.5 231.182,-293.5 225.182,-287.5 225.182,-281.5 225.182,-281.5 225.182,-177.5 225.182,-177.5 225.182,-171.5 231.182,-165.5 237.182,-165.5"/>
<text text-anchor="middle" x="291.688" y="-278.3" font-family="Times,serif" font-size="14.00">Teacher</text>
<polyline fill="none" stroke="black" points="225.182,-271.5 358.193,-271.5 "/>
<text text-anchor="start" x="233.182" y="-256.3" font-family="Times,serif" font-size="14.00">id :integer</text>
<text text-anchor="start" x="233.182" y="-242.3" font-family="Times,serif" font-size="14.00">ename :string</text>
<text text-anchor="start" x="233.182" y="-228.3" font-family="Times,serif" font-size="14.00">cname :string</text>
<text text-anchor="start" x="233.182" y="-214.3" font-family="Times,serif" font-size="14.00">dob :date</text>
<text text-anchor="start" x="233.182" y="-200.3" font-family="Times,serif" font-size="14.00">group_id :integer</text>
<text text-anchor="start" x="233.182" y="-186.3" font-family="Times,serif" font-size="14.00">created_at :datetime</text>
<text text-anchor="start" x="233.182" y="-172.3" font-family="Times,serif" font-size="14.00">updated_at :datetime</text>
</g>
<!-- Student&#45;&gt;Teacher -->
<g id="edge1" class="edge"><title>Student&#45;&gt;Teacher</title>
<path fill="none" stroke="#eb9f2a" d="M291.688,-362.207C291.688,-343.253 291.688,-322.846 291.688,-303.888"/>
<polygon fill="#eb9f2a" stroke="#eb9f2a" points="291.688,-362.321 287.188,-372.32 291.688,-367.321 291.688,-372.321 291.688,-372.321 291.688,-372.321 291.688,-367.321 296.188,-372.321 291.688,-362.321 291.688,-362.321"/>
<polygon fill="#eb9f2a" stroke="#eb9f2a" points="291.688,-303.824 296.188,-293.824 291.688,-298.824 291.688,-293.824 291.688,-293.824 291.688,-293.824 291.688,-298.824 287.188,-293.824 291.688,-303.824 291.688,-303.824"/>
</g>
<!-- Teacher&#45;&gt;Group -->
<g id="edge2" class="edge"><title>Teacher&#45;&gt;Group</title>
<path fill="none" stroke="#d48a6c" d="M291.688,-157.473C291.688,-151.322 291.688,-145.09 291.688,-138.92"/>
<ellipse fill="none" stroke="#d48a6c" cx="291.688" cy="-161.48" rx="4" ry="4"/>
<polygon fill="#d48a6c" stroke="#d48a6c" points="291.688,-138.621 296.188,-128.621 291.688,-133.621 291.688,-128.621 291.688,-128.621 291.688,-128.621 291.688,-133.621 287.188,-128.621 291.688,-138.621 291.688,-138.621"/>
</g>
<!-- User -->
<g id="node6" class="node"><title>User</title>
<path fill="none" stroke="black" d="M388.41,-330.5C388.41,-330.5 568.966,-330.5 568.966,-330.5 574.966,-330.5 580.966,-336.5 580.966,-342.5 580.966,-342.5 580.966,-530.5 580.966,-530.5 580.966,-536.5 574.966,-542.5 568.966,-542.5 568.966,-542.5 388.41,-542.5 388.41,-542.5 382.41,-542.5 376.41,-536.5 376.41,-530.5 376.41,-530.5 376.41,-342.5 376.41,-342.5 376.41,-336.5 382.41,-330.5 388.41,-330.5"/>
<text text-anchor="middle" x="478.688" y="-527.3" font-family="Times,serif" font-size="14.00">User</text>
<polyline fill="none" stroke="black" points="376.41,-520.5 580.966,-520.5 "/>
<text text-anchor="start" x="384.41" y="-505.3" font-family="Times,serif" font-size="14.00">id :integer</text>
<text text-anchor="start" x="384.41" y="-491.3" font-family="Times,serif" font-size="14.00">email :string</text>
<text text-anchor="start" x="384.41" y="-477.3" font-family="Times,serif" font-size="14.00">encrypted_password :string</text>
<text text-anchor="start" x="384.41" y="-463.3" font-family="Times,serif" font-size="14.00">reset_password_token :string</text>
<text text-anchor="start" x="384.41" y="-449.3" font-family="Times,serif" font-size="14.00">reset_password_sent_at :datetime</text>
<text text-anchor="start" x="384.41" y="-435.3" font-family="Times,serif" font-size="14.00">remember_created_at :datetime</text>
<text text-anchor="start" x="384.41" y="-421.3" font-family="Times,serif" font-size="14.00">sign_in_count :integer</text>
<text text-anchor="start" x="384.41" y="-407.3" font-family="Times,serif" font-size="14.00">current_sign_in_at :datetime</text>
<text text-anchor="start" x="384.41" y="-393.3" font-family="Times,serif" font-size="14.00">last_sign_in_at :datetime</text>
<text text-anchor="start" x="384.41" y="-379.3" font-family="Times,serif" font-size="14.00">current_sign_in_ip :string</text>
<text text-anchor="start" x="384.41" y="-365.3" font-family="Times,serif" font-size="14.00">last_sign_in_ip :string</text>
<text text-anchor="start" x="384.41" y="-351.3" font-family="Times,serif" font-size="14.00">created_at :datetime</text>
<text text-anchor="start" x="384.41" y="-337.3" font-family="Times,serif" font-size="14.00">updated_at :datetime</text>
</g>
<!-- User&#45;&gt;Photo -->
<g id="edge3" class="edge"><title>User&#45;&gt;Photo</title>
<path fill="none" stroke="#ecc3cd" d="M478.688,-322.019C478.688,-310.875 478.688,-299.906 478.688,-289.647"/>
<ellipse fill="none" stroke="#ecc3cd" cx="478.688" cy="-326.298" rx="4" ry="4"/>
<polygon fill="#ecc3cd" stroke="#ecc3cd" points="478.688,-289.645 483.188,-279.645 478.688,-284.645 478.688,-279.645 478.688,-279.645 478.688,-279.645 478.688,-284.645 474.188,-279.645 478.688,-289.645 478.688,-289.645"/>
</g>
</g>
</svg>
