<?xml version="1.0" encoding="UTF-8" standalone="no"?>
<!DOCTYPE svg PUBLIC "-//W3C//DTD SVG 1.1//EN"
 "http://www.w3.org/Graphics/SVG/1.1/DTD/svg11.dtd">
<!-- Generated by graphviz version 2.38.0 (20140413.2041)
 -->
<!-- Title: models_diagram Pages: 1 -->
<svg width="1397pt" height="1150pt"
 viewBox="0.00 0.00 1396.80 1150.00" xmlns="http://www.w3.org/2000/svg" xmlns:xlink="http://www.w3.org/1999/xlink">
<g id="graph0" class="graph" transform="scale(1 1) rotate(0) translate(4 1146)">
<title>models_diagram</title>
<polygon fill="white" stroke="none" points="-4,4 -4,-1146 1392.8,-1146 1392.8,4 -4,4"/>
<!-- _diagram_info -->
<g id="node1" class="node"><title>_diagram_info</title>
<text text-anchor="start" x="8" y="-1036.6" font-family="Times,serif" font-size="13.00">Models diagram</text>
<text text-anchor="start" x="8" y="-1023.6" font-family="Times,serif" font-size="13.00">Date: Apr 20 2015 &#45; 19:33</text>
<text text-anchor="start" x="8" y="-1010.6" font-family="Times,serif" font-size="13.00">Migration version: 20150418105322</text>
<text text-anchor="start" x="8" y="-997.6" font-family="Times,serif" font-size="13.00">Generated by RailRoady 1.3.0</text>
<text text-anchor="start" x="8" y="-984.6" font-family="Times,serif" font-size="13.00">http://railroady.prestonlee.com</text>
</g>
<!-- Event -->
<g id="node2" class="node"><title>Event</title>
<path fill="none" stroke="black" d="M237.182,-929.5C237.182,-929.5 346.193,-929.5 346.193,-929.5 352.193,-929.5 358.193,-935.5 358.193,-941.5 358.193,-941.5 358.193,-1087.5 358.193,-1087.5 358.193,-1093.5 352.193,-1099.5 346.193,-1099.5 346.193,-1099.5 237.182,-1099.5 237.182,-1099.5 231.182,-1099.5 225.182,-1093.5 225.182,-1087.5 225.182,-1087.5 225.182,-941.5 225.182,-941.5 225.182,-935.5 231.182,-929.5 237.182,-929.5"/>
<text text-anchor="middle" x="291.688" y="-1084.3" font-family="Times,serif" font-size="14.00">Event</text>
<polyline fill="none" stroke="black" points="225.182,-1077.5 358.193,-1077.5 "/>
<text text-anchor="start" x="233.182" y="-1062.3" font-family="Times,serif" font-size="14.00">id :integer</text>
<text text-anchor="start" x="233.182" y="-1048.3" font-family="Times,serif" font-size="14.00">title :string</text>
<text text-anchor="start" x="233.182" y="-1034.3" font-family="Times,serif" font-size="14.00">description :text</text>
<text text-anchor="start" x="233.182" y="-1020.3" font-family="Times,serif" font-size="14.00">start_time :datetime</text>
<text text-anchor="start" x="233.182" y="-1006.3" font-family="Times,serif" font-size="14.00">end_time :datetime</text>
<text text-anchor="start" x="233.182" y="-992.3" font-family="Times,serif" font-size="14.00">teacher_id :integer</text>
<text text-anchor="start" x="233.182" y="-978.3" font-family="Times,serif" font-size="14.00">group_id :integer</text>
<text text-anchor="start" x="233.182" y="-964.3" font-family="Times,serif" font-size="14.00">ta :string</text>
<text text-anchor="start" x="233.182" y="-950.3" font-family="Times,serif" font-size="14.00">created_at :datetime</text>
<text text-anchor="start" x="233.182" y="-936.3" font-family="Times,serif" font-size="14.00">updated_at :datetime</text>
</g>
<!-- Student -->
<g id="node9" class="node"><title>Student</title>
<path fill="none" stroke="black" d="M331.586,-568.5C331.586,-568.5 481.79,-568.5 481.79,-568.5 487.79,-568.5 493.79,-574.5 493.79,-580.5 493.79,-580.5 493.79,-824.5 493.79,-824.5 493.79,-830.5 487.79,-836.5 481.79,-836.5 481.79,-836.5 331.586,-836.5 331.586,-836.5 325.586,-836.5 319.586,-830.5 319.586,-824.5 319.586,-824.5 319.586,-580.5 319.586,-580.5 319.586,-574.5 325.586,-568.5 331.586,-568.5"/>
<text text-anchor="middle" x="406.688" y="-821.3" font-family="Times,serif" font-size="14.00">Student</text>
<polyline fill="none" stroke="black" points="319.586,-814.5 493.79,-814.5 "/>
<text text-anchor="start" x="327.586" y="-799.3" font-family="Times,serif" font-size="14.00">id :integer</text>
<text text-anchor="start" x="327.586" y="-785.3" font-family="Times,serif" font-size="14.00">ename :string</text>
<text text-anchor="start" x="327.586" y="-771.3" font-family="Times,serif" font-size="14.00">cname :string</text>
<text text-anchor="start" x="327.586" y="-757.3" font-family="Times,serif" font-size="14.00">emergency_contact :string</text>
<text text-anchor="start" x="327.586" y="-743.3" font-family="Times,serif" font-size="14.00">email :string</text>
<text text-anchor="start" x="327.586" y="-729.3" font-family="Times,serif" font-size="14.00">address :string</text>
<text text-anchor="start" x="327.586" y="-715.3" font-family="Times,serif" font-size="14.00">dob :date</text>
<text text-anchor="start" x="327.586" y="-701.3" font-family="Times,serif" font-size="14.00">contract_start :date</text>
<text text-anchor="start" x="327.586" y="-687.3" font-family="Times,serif" font-size="14.00">contract_length :integer</text>
<text text-anchor="start" x="327.586" y="-673.3" font-family="Times,serif" font-size="14.00">points :integer</text>
<text text-anchor="start" x="327.586" y="-659.3" font-family="Times,serif" font-size="14.00">group_id :integer</text>
<text text-anchor="start" x="327.586" y="-645.3" font-family="Times,serif" font-size="14.00">created_at :datetime</text>
<text text-anchor="start" x="327.586" y="-631.3" font-family="Times,serif" font-size="14.00">updated_at :datetime</text>
<text text-anchor="start" x="327.586" y="-617.3" font-family="Times,serif" font-size="14.00">avatar_file_name :string</text>
<text text-anchor="start" x="327.586" y="-603.3" font-family="Times,serif" font-size="14.00">avatar_content_type :string</text>
<text text-anchor="start" x="327.586" y="-589.3" font-family="Times,serif" font-size="14.00">avatar_file_size :integer</text>
<text text-anchor="start" x="327.586" y="-575.3" font-family="Times,serif" font-size="14.00">avatar_updated_at :datetime</text>
</g>
<!-- Event&#45;&gt;Student -->
<g id="edge1" class="edge"><title>Event&#45;&gt;Student</title>
<path fill="none" stroke="#ea5ac2" d="M325.846,-921.422C334.625,-897.757 344.278,-871.735 353.764,-846.163"/>
<ellipse fill="none" stroke="#ea5ac2" cx="324.351" cy="-925.45" rx="4.00001" ry="4.00001"/>
<polygon fill="#ea5ac2" stroke="#ea5ac2" points="353.772,-846.144 361.469,-838.333 355.511,-841.456 357.25,-836.768 357.25,-836.768 357.25,-836.768 355.511,-841.456 353.031,-835.203 353.772,-846.144 353.772,-846.144"/>
</g>
<!-- Group -->
<g id="node3" class="node"><title>Group</title>
<path fill="none" stroke="black" d="M268.182,-180.5C268.182,-180.5 377.193,-180.5 377.193,-180.5 383.193,-180.5 389.193,-186.5 389.193,-192.5 389.193,-192.5 389.193,-310.5 389.193,-310.5 389.193,-316.5 383.193,-322.5 377.193,-322.5 377.193,-322.5 268.182,-322.5 268.182,-322.5 262.182,-322.5 256.182,-316.5 256.182,-310.5 256.182,-310.5 256.182,-192.5 256.182,-192.5 256.182,-186.5 262.182,-180.5 268.182,-180.5"/>
<text text-anchor="middle" x="322.688" y="-307.3" font-family="Times,serif" font-size="14.00">Group</text>
<polyline fill="none" stroke="black" points="256.182,-300.5 389.193,-300.5 "/>
<text text-anchor="start" x="264.182" y="-285.3" font-family="Times,serif" font-size="14.00">id :integer</text>
<text text-anchor="start" x="264.182" y="-271.3" font-family="Times,serif" font-size="14.00">school :string</text>
<text text-anchor="start" x="264.182" y="-257.3" font-family="Times,serif" font-size="14.00">name :string</text>
<text text-anchor="start" x="264.182" y="-243.3" font-family="Times,serif" font-size="14.00">teacher_id :integer</text>
<text text-anchor="start" x="264.182" y="-229.3" font-family="Times,serif" font-size="14.00">student_id :integer</text>
<text text-anchor="start" x="264.182" y="-215.3" font-family="Times,serif" font-size="14.00">pa :string</text>
<text text-anchor="start" x="264.182" y="-201.3" font-family="Times,serif" font-size="14.00">created_at :datetime</text>
<text text-anchor="start" x="264.182" y="-187.3" font-family="Times,serif" font-size="14.00">updated_at :datetime</text>
</g>
<!-- Group&#45;&gt;Event -->
<g id="edge4" class="edge"><title>Group&#45;&gt;Event</title>
<path fill="none" stroke="#0a3653" d="M260.102,-329.695C254.656,-339.455 249.974,-349.658 246.688,-360 185.803,-551.587 230.457,-790.179 263.929,-919.512"/>
<ellipse fill="none" stroke="#0a3653" cx="262.18" cy="-326.127" rx="4.00002" ry="4.00002"/>
<polygon fill="#0a3653" stroke="#0a3653" points="263.984,-919.722 262.167,-930.536 265.252,-924.558 266.52,-929.395 266.52,-929.395 266.52,-929.395 265.252,-924.558 270.873,-928.254 263.984,-919.722 263.984,-919.722"/>
</g>
<!-- Homework -->
<g id="node4" class="node"><title>Homework</title>
<path fill="none" stroke="black" d="M268.182,-0.5C268.182,-0.5 377.193,-0.5 377.193,-0.5 383.193,-0.5 389.193,-6.5 389.193,-12.5 389.193,-12.5 389.193,-130.5 389.193,-130.5 389.193,-136.5 383.193,-142.5 377.193,-142.5 377.193,-142.5 268.182,-142.5 268.182,-142.5 262.182,-142.5 256.182,-136.5 256.182,-130.5 256.182,-130.5 256.182,-12.5 256.182,-12.5 256.182,-6.5 262.182,-0.5 268.182,-0.5"/>
<text text-anchor="middle" x="322.688" y="-127.3" font-family="Times,serif" font-size="14.00">Homework</text>
<polyline fill="none" stroke="black" points="256.182,-120.5 389.193,-120.5 "/>
<text text-anchor="start" x="264.182" y="-105.3" font-family="Times,serif" font-size="14.00">id :integer</text>
<text text-anchor="start" x="264.182" y="-91.3" font-family="Times,serif" font-size="14.00">group_id :integer</text>
<text text-anchor="start" x="264.182" y="-77.3" font-family="Times,serif" font-size="14.00">title :string</text>
<text text-anchor="start" x="264.182" y="-63.3" font-family="Times,serif" font-size="14.00">assigned :date</text>
<text text-anchor="start" x="264.182" y="-49.3" font-family="Times,serif" font-size="14.00">due :datetime</text>
<text text-anchor="start" x="264.182" y="-35.3" font-family="Times,serif" font-size="14.00">instructions :string</text>
<text text-anchor="start" x="264.182" y="-21.3" font-family="Times,serif" font-size="14.00">created_at :datetime</text>
<text text-anchor="start" x="264.182" y="-7.3" font-family="Times,serif" font-size="14.00">updated_at :datetime</text>
</g>
<!-- Group&#45;&gt;Homework -->
<g id="edge3" class="edge"><title>Group&#45;&gt;Homework</title>
<path fill="none" stroke="#573e99" d="M322.688,-172.17C322.688,-165.694 322.688,-159.143 322.688,-152.655"/>
<ellipse fill="none" stroke="#573e99" cx="322.688" cy="-176.405" rx="4" ry="4"/>
<polygon fill="#573e99" stroke="#573e99" points="322.688,-152.531 327.188,-142.531 322.688,-147.531 322.688,-142.531 322.688,-142.531 322.688,-142.531 322.688,-147.531 318.188,-142.531 322.688,-152.531 322.688,-152.531"/>
</g>
<!-- Group&#45;&gt;Student -->
<g id="edge2" class="edge"><title>Group&#45;&gt;Student</title>
<path fill="none" stroke="#1edeb4" d="M385.033,-329.773C390.523,-339.519 395.28,-349.697 398.688,-360 419.459,-422.803 423.648,-495.709 421.763,-557.991"/>
<ellipse fill="none" stroke="#1edeb4" cx="382.94" cy="-326.207" rx="4.00002" ry="4.00002"/>
<polygon fill="#1edeb4" stroke="#1edeb4" points="421.752,-558.297 416.896,-568.129 421.572,-563.294 421.393,-568.291 421.393,-568.291 421.393,-568.291 421.572,-563.294 425.89,-568.452 421.752,-558.297 421.752,-558.297"/>
</g>
<!-- Inquery -->
<g id="node5" class="node"><title>Inquery</title>
<path fill="none" stroke="black" d="M968.182,-950.5C968.182,-950.5 1077.19,-950.5 1077.19,-950.5 1083.19,-950.5 1089.19,-956.5 1089.19,-962.5 1089.19,-962.5 1089.19,-1066.5 1089.19,-1066.5 1089.19,-1072.5 1083.19,-1078.5 1077.19,-1078.5 1077.19,-1078.5 968.182,-1078.5 968.182,-1078.5 962.182,-1078.5 956.182,-1072.5 956.182,-1066.5 956.182,-1066.5 956.182,-962.5 956.182,-962.5 956.182,-956.5 962.182,-950.5 968.182,-950.5"/>
<text text-anchor="middle" x="1022.69" y="-1063.3" font-family="Times,serif" font-size="14.00">Inquery</text>
<polyline fill="none" stroke="black" points="956.182,-1056.5 1089.19,-1056.5 "/>
<text text-anchor="start" x="964.182" y="-1041.3" font-family="Times,serif" font-size="14.00">id :integer</text>
<text text-anchor="start" x="964.182" y="-1027.3" font-family="Times,serif" font-size="14.00">name :string</text>
<text text-anchor="start" x="964.182" y="-1013.3" font-family="Times,serif" font-size="14.00">email :string</text>
<text text-anchor="start" x="964.182" y="-999.3" font-family="Times,serif" font-size="14.00">phone :string</text>
<text text-anchor="start" x="964.182" y="-985.3" font-family="Times,serif" font-size="14.00">message :text</text>
<text text-anchor="start" x="964.182" y="-971.3" font-family="Times,serif" font-size="14.00">created_at :datetime</text>
<text text-anchor="start" x="964.182" y="-957.3" font-family="Times,serif" font-size="14.00">updated_at :datetime</text>
</g>
<!-- LessonPlan -->
<g id="node6" class="node"><title>LessonPlan</title>
<path fill="none" stroke="black" d="M1034.58,-624.5C1034.58,-624.5 1184.8,-624.5 1184.8,-624.5 1190.8,-624.5 1196.8,-630.5 1196.8,-636.5 1196.8,-636.5 1196.8,-768.5 1196.8,-768.5 1196.8,-774.5 1190.8,-780.5 1184.8,-780.5 1184.8,-780.5 1034.58,-780.5 1034.58,-780.5 1028.58,-780.5 1022.58,-774.5 1022.58,-768.5 1022.58,-768.5 1022.58,-636.5 1022.58,-636.5 1022.58,-630.5 1028.58,-624.5 1034.58,-624.5"/>
<text text-anchor="middle" x="1109.69" y="-765.3" font-family="Times,serif" font-size="14.00">LessonPlan</text>
<polyline fill="none" stroke="black" points="1022.58,-758.5 1196.8,-758.5 "/>
<text text-anchor="start" x="1030.58" y="-743.3" font-family="Times,serif" font-size="14.00">id :integer</text>
<text text-anchor="start" x="1030.58" y="-729.3" font-family="Times,serif" font-size="14.00">group_id :integer</text>
<text text-anchor="start" x="1030.58" y="-715.3" font-family="Times,serif" font-size="14.00">class_number :string</text>
<text text-anchor="start" x="1030.58" y="-701.3" font-family="Times,serif" font-size="14.00">created_at :datetime</text>
<text text-anchor="start" x="1030.58" y="-687.3" font-family="Times,serif" font-size="14.00">updated_at :datetime</text>
<text text-anchor="start" x="1030.58" y="-673.3" font-family="Times,serif" font-size="14.00">image_file_name :string</text>
<text text-anchor="start" x="1030.58" y="-659.3" font-family="Times,serif" font-size="14.00">image_content_type :string</text>
<text text-anchor="start" x="1030.58" y="-645.3" font-family="Times,serif" font-size="14.00">image_file_size :integer</text>
<text text-anchor="start" x="1030.58" y="-631.3" font-family="Times,serif" font-size="14.00">image_updated_at :datetime</text>
</g>
<!-- Photo -->
<g id="node7" class="node"><title>Photo</title>
<path fill="none" stroke="black" d="M1226.58,-624.5C1226.58,-624.5 1376.8,-624.5 1376.8,-624.5 1382.8,-624.5 1388.8,-630.5 1388.8,-636.5 1388.8,-636.5 1388.8,-768.5 1388.8,-768.5 1388.8,-774.5 1382.8,-780.5 1376.8,-780.5 1376.8,-780.5 1226.58,-780.5 1226.58,-780.5 1220.58,-780.5 1214.58,-774.5 1214.58,-768.5 1214.58,-768.5 1214.58,-636.5 1214.58,-636.5 1214.58,-630.5 1220.58,-624.5 1226.58,-624.5"/>
<text text-anchor="middle" x="1301.69" y="-765.3" font-family="Times,serif" font-size="14.00">Photo</text>
<polyline fill="none" stroke="black" points="1214.58,-758.5 1388.8,-758.5 "/>
<text text-anchor="start" x="1222.58" y="-743.3" font-family="Times,serif" font-size="14.00">id :integer</text>
<text text-anchor="start" x="1222.58" y="-729.3" font-family="Times,serif" font-size="14.00">description :string</text>
<text text-anchor="start" x="1222.58" y="-715.3" font-family="Times,serif" font-size="14.00">created_at :datetime</text>
<text text-anchor="start" x="1222.58" y="-701.3" font-family="Times,serif" font-size="14.00">updated_at :datetime</text>
<text text-anchor="start" x="1222.58" y="-687.3" font-family="Times,serif" font-size="14.00">user_id :integer</text>
<text text-anchor="start" x="1222.58" y="-673.3" font-family="Times,serif" font-size="14.00">image_file_name :string</text>
<text text-anchor="start" x="1222.58" y="-659.3" font-family="Times,serif" font-size="14.00">image_content_type :string</text>
<text text-anchor="start" x="1222.58" y="-645.3" font-family="Times,serif" font-size="14.00">image_file_size :integer</text>
<text text-anchor="start" x="1222.58" y="-631.3" font-family="Times,serif" font-size="14.00">image_updated_at :datetime</text>
</g>
<!-- Resource -->
<g id="node8" class="node"><title>Resource</title>
<path fill="none" stroke="black" d="M524.182,-624.5C524.182,-624.5 633.193,-624.5 633.193,-624.5 639.193,-624.5 645.193,-630.5 645.193,-636.5 645.193,-636.5 645.193,-768.5 645.193,-768.5 645.193,-774.5 639.193,-780.5 633.193,-780.5 633.193,-780.5 524.182,-780.5 524.182,-780.5 518.182,-780.5 512.182,-774.5 512.182,-768.5 512.182,-768.5 512.182,-636.5 512.182,-636.5 512.182,-630.5 518.182,-624.5 524.182,-624.5"/>
<text text-anchor="middle" x="578.688" y="-765.3" font-family="Times,serif" font-size="14.00">Resource</text>
<polyline fill="none" stroke="black" points="512.182,-758.5 645.193,-758.5 "/>
<text text-anchor="start" x="520.182" y="-743.3" font-family="Times,serif" font-size="14.00">id :integer</text>
<text text-anchor="start" x="520.182" y="-729.3" font-family="Times,serif" font-size="14.00">title :string</text>
<text text-anchor="start" x="520.182" y="-715.3" font-family="Times,serif" font-size="14.00">url :string</text>
<text text-anchor="start" x="520.182" y="-701.3" font-family="Times,serif" font-size="14.00">focus :string</text>
<text text-anchor="start" x="520.182" y="-687.3" font-family="Times,serif" font-size="14.00">notes :string</text>
<text text-anchor="start" x="520.182" y="-673.3" font-family="Times,serif" font-size="14.00">level :string</text>
<text text-anchor="start" x="520.182" y="-659.3" font-family="Times,serif" font-size="14.00">user_id :integer</text>
<text text-anchor="start" x="520.182" y="-645.3" font-family="Times,serif" font-size="14.00">created_at :datetime</text>
<text text-anchor="start" x="520.182" y="-631.3" font-family="Times,serif" font-size="14.00">updated_at :datetime</text>
</g>
<!-- Teacher -->
<g id="node10" class="node"><title>Teacher</title>
<path fill="none" stroke="black" d="M268.182,-360.5C268.182,-360.5 377.193,-360.5 377.193,-360.5 383.193,-360.5 389.193,-366.5 389.193,-372.5 389.193,-372.5 389.193,-518.5 389.193,-518.5 389.193,-524.5 383.193,-530.5 377.193,-530.5 377.193,-530.5 268.182,-530.5 268.182,-530.5 262.182,-530.5 256.182,-524.5 256.182,-518.5 256.182,-518.5 256.182,-372.5 256.182,-372.5 256.182,-366.5 262.182,-360.5 268.182,-360.5"/>
<text text-anchor="middle" x="322.688" y="-515.3" font-family="Times,serif" font-size="14.00">Teacher</text>
<polyline fill="none" stroke="black" points="256.182,-508.5 389.193,-508.5 "/>
<text text-anchor="start" x="264.182" y="-493.3" font-family="Times,serif" font-size="14.00">id :integer</text>
<text text-anchor="start" x="264.182" y="-479.3" font-family="Times,serif" font-size="14.00">ename :string</text>
<text text-anchor="start" x="264.182" y="-465.3" font-family="Times,serif" font-size="14.00">cname :string</text>
<text text-anchor="start" x="264.182" y="-451.3" font-family="Times,serif" font-size="14.00">dob :date</text>
<text text-anchor="start" x="264.182" y="-437.3" font-family="Times,serif" font-size="14.00">phone :string</text>
<text text-anchor="start" x="264.182" y="-423.3" font-family="Times,serif" font-size="14.00">email :string</text>
<text text-anchor="start" x="264.182" y="-409.3" font-family="Times,serif" font-size="14.00">duration :date</text>
<text text-anchor="start" x="264.182" y="-395.3" font-family="Times,serif" font-size="14.00">group_id :integer</text>
<text text-anchor="start" x="264.182" y="-381.3" font-family="Times,serif" font-size="14.00">created_at :datetime</text>
<text text-anchor="start" x="264.182" y="-367.3" font-family="Times,serif" font-size="14.00">updated_at :datetime</text>
</g>
<!-- Student&#45;&gt;Teacher -->
<g id="edge5" class="edge"><title>Student&#45;&gt;Teacher</title>
<path fill="none" stroke="#eec007" d="M359.687,-558.82C357.673,-552.704 355.673,-546.634 353.708,-540.67"/>
<polygon fill="#eec007" stroke="#eec007" points="359.714,-558.901 358.568,-569.807 361.278,-563.65 362.843,-568.399 362.843,-568.399 362.843,-568.399 361.278,-563.65 367.117,-566.991 359.714,-558.901 359.714,-558.901"/>
<polygon fill="#eec007" stroke="#eec007" points="353.566,-540.239 354.712,-529.333 352.002,-535.49 350.438,-530.741 350.438,-530.741 350.438,-530.741 352.002,-535.49 346.163,-532.149 353.566,-540.239 353.566,-540.239"/>
</g>
<!-- Teacher&#45;&gt;Event -->
<g id="edge7" class="edge"><title>Teacher&#45;&gt;Event</title>
<path fill="none" stroke="#a1c3f1" d="M313.012,-538.975C312.15,-548.768 311.353,-558.584 310.688,-568 302.138,-689.014 296.936,-828.812 294.187,-919.049"/>
<ellipse fill="none" stroke="#a1c3f1" cx="313.393" cy="-534.748" rx="4" ry="4"/>
<polygon fill="#a1c3f1" stroke="#a1c3f1" points="294.18,-919.262 289.382,-929.122 294.03,-924.26 293.88,-929.257 293.88,-929.257 293.88,-929.257 294.03,-924.26 298.378,-929.393 294.18,-919.262 294.18,-919.262"/>
</g>
<!-- Teacher&#45;&gt;Group -->
<g id="edge6" class="edge"><title>Teacher&#45;&gt;Group</title>
<path fill="none" stroke="#c59c84" d="M322.688,-351.991C322.688,-345.648 322.688,-339.285 322.688,-333.013"/>
<ellipse fill="none" stroke="#c59c84" cx="322.688" cy="-356.286" rx="4" ry="4"/>
<polygon fill="#c59c84" stroke="#c59c84" points="322.688,-332.562 327.188,-322.562 322.688,-327.562 322.688,-322.562 322.688,-322.562 322.688,-322.562 322.688,-327.562 318.188,-322.562 322.688,-332.562 322.688,-332.562"/>
</g>
<!-- User -->
<g id="node11" class="node"><title>User</title>
<path fill="none" stroke="black" d="M745.41,-887.5C745.41,-887.5 925.966,-887.5 925.966,-887.5 931.966,-887.5 937.966,-893.5 937.966,-899.5 937.966,-899.5 937.966,-1129.5 937.966,-1129.5 937.966,-1135.5 931.966,-1141.5 925.966,-1141.5 925.966,-1141.5 745.41,-1141.5 745.41,-1141.5 739.41,-1141.5 733.41,-1135.5 733.41,-1129.5 733.41,-1129.5 733.41,-899.5 733.41,-899.5 733.41,-893.5 739.41,-887.5 745.41,-887.5"/>
<text text-anchor="middle" x="835.688" y="-1126.3" font-family="Times,serif" font-size="14.00">User</text>
<polyline fill="none" stroke="black" points="733.41,-1119.5 937.966,-1119.5 "/>
<text text-anchor="start" x="741.41" y="-1104.3" font-family="Times,serif" font-size="14.00">id :integer</text>
<text text-anchor="start" x="741.41" y="-1090.3" font-family="Times,serif" font-size="14.00">name :string</text>
<text text-anchor="start" x="741.41" y="-1076.3" font-family="Times,serif" font-size="14.00">email :string</text>
<text text-anchor="start" x="741.41" y="-1062.3" font-family="Times,serif" font-size="14.00">encrypted_password :string</text>
<text text-anchor="start" x="741.41" y="-1048.3" font-family="Times,serif" font-size="14.00">reset_password_token :string</text>
<text text-anchor="start" x="741.41" y="-1034.3" font-family="Times,serif" font-size="14.00">reset_password_sent_at :datetime</text>
<text text-anchor="start" x="741.41" y="-1020.3" font-family="Times,serif" font-size="14.00">remember_created_at :datetime</text>
<text text-anchor="start" x="741.41" y="-1006.3" font-family="Times,serif" font-size="14.00">sign_in_count :integer</text>
<text text-anchor="start" x="741.41" y="-992.3" font-family="Times,serif" font-size="14.00">current_sign_in_at :datetime</text>
<text text-anchor="start" x="741.41" y="-978.3" font-family="Times,serif" font-size="14.00">last_sign_in_at :datetime</text>
<text text-anchor="start" x="741.41" y="-964.3" font-family="Times,serif" font-size="14.00">current_sign_in_ip :string</text>
<text text-anchor="start" x="741.41" y="-950.3" font-family="Times,serif" font-size="14.00">last_sign_in_ip :string</text>
<text text-anchor="start" x="741.41" y="-936.3" font-family="Times,serif" font-size="14.00">student_id :integer</text>
<text text-anchor="start" x="741.41" y="-922.3" font-family="Times,serif" font-size="14.00">created_at :datetime</text>
<text text-anchor="start" x="741.41" y="-908.3" font-family="Times,serif" font-size="14.00">updated_at :datetime</text>
<text text-anchor="start" x="741.41" y="-894.3" font-family="Times,serif" font-size="14.00">admin :boolean</text>
</g>
<!-- User&#45;&gt;LessonPlan -->
<g id="edge9" class="edge"><title>User&#45;&gt;LessonPlan</title>
<path fill="none" stroke="#aa2632" d="M943.971,-889.529C944.877,-888.68 945.782,-887.836 946.688,-887 973.979,-861.787 987.648,-863.504 1013.69,-837 1027.96,-822.475 1041.73,-805.68 1054.17,-789.008"/>
<ellipse fill="none" stroke="#aa2632" cx="940.891" cy="-892.464" rx="4.00002" ry="4.00002"/>
<polygon fill="#aa2632" stroke="#aa2632" points="1054.25,-788.903 1063.8,-783.508 1057.21,-784.873 1060.17,-780.844 1060.17,-780.844 1060.17,-780.844 1057.21,-784.873 1056.54,-778.18 1054.25,-788.903 1054.25,-788.903"/>
</g>
<!-- User&#45;&gt;Photo -->
<g id="edge8" class="edge"><title>User&#45;&gt;Photo</title>
<path fill="none" stroke="#cf2e82" d="M945.052,-887.951C945.596,-887.63 946.141,-887.313 946.688,-887 997.539,-857.841 1156.31,-868.585 1205.69,-837 1224.77,-824.795 1241.25,-807.33 1254.9,-789.039"/>
<ellipse fill="none" stroke="#cf2e82" cx="941.452" cy="-890.198" rx="4.00002" ry="4.00002"/>
<polygon fill="#cf2e82" stroke="#cf2e82" points="1255.13,-788.712 1264.62,-783.22 1258.05,-784.653 1260.97,-780.593 1260.97,-780.593 1260.97,-780.593 1258.05,-784.653 1257.32,-777.966 1255.13,-788.712 1255.13,-788.712"/>
</g>
<!-- User&#45;&gt;Resource -->
<g id="edge10" class="edge"><title>User&#45;&gt;Resource</title>
<path fill="none" stroke="#c2738d" d="M727.206,-918.317C701.575,-893.206 675.411,-865.205 653.688,-837 642.465,-822.428 631.83,-805.981 622.285,-789.738"/>
<ellipse fill="none" stroke="#c2738d" cx="730.143" cy="-921.174" rx="4.00002" ry="4.00002"/>
<polygon fill="#c2738d" stroke="#c2738d" points="622.095,-789.409 620.995,-778.499 619.596,-785.079 617.097,-780.748 617.097,-780.748 617.097,-780.748 619.596,-785.079 613.2,-782.997 622.095,-789.409 622.095,-789.409"/>
</g>
<!-- User&#45;&gt;Student -->
<g id="edge11" class="edge"><title>User&#45;&gt;Student</title>
<path fill="none" stroke="#4363a9" d="M725.703,-970.636C656.728,-940.21 568.693,-894.585 502.688,-837 501.78,-836.208 500.877,-835.406 499.977,-834.595"/>
<ellipse fill="none" stroke="#4363a9" cx="729.5" cy="-972.297" rx="4.00002" ry="4.00002"/>
<ellipse fill="#4363a9" stroke="#4363a9" cx="497.021" cy="-831.835" rx="4.00002" ry="4.00002"/>
</g>
<!-- Mailboxer::Message -->
<g id="node12" class="node"><title>Mailboxer::Message</title>
<ellipse fill="none" stroke="black" cx="745.688" cy="-702.5" rx="82.6045" ry="18"/>
<text text-anchor="middle" x="745.688" y="-698.3" font-family="Times,serif" font-size="14.00">Mailboxer::Message</text>
</g>
<!-- User&#45;&gt;Mailboxer::Message -->
<g id="edge12" class="edge"><title>User&#45;&gt;Mailboxer::Message</title>
<path fill="none" stroke="#c758b1" d="M796.785,-879.501C780.577,-823.672 763.293,-764.141 753.556,-730.602"/>
<ellipse fill="none" stroke="#c758b1" cx="797.966" cy="-883.57" rx="4.00001" ry="4.00001"/>
<polygon fill="#c758b1" stroke="#c758b1" points="753.459,-730.268 754.992,-719.409 752.065,-725.466 750.671,-720.664 750.671,-720.664 750.671,-720.664 752.065,-725.466 746.349,-721.919 753.459,-730.268 753.459,-730.268"/>
<text text-anchor="middle" x="819.126" y="-857.8" font-family="Times,serif" font-size="14.00">messages</text>
</g>
<!-- Mailboxer::Receipt -->
<g id="node13" class="node"><title>Mailboxer::Receipt</title>
<ellipse fill="none" stroke="black" cx="925.688" cy="-702.5" rx="78.7367" ry="18"/>
<text text-anchor="middle" x="925.688" y="-698.3" font-family="Times,serif" font-size="14.00">Mailboxer::Receipt</text>
</g>
<!-- User&#45;&gt;Mailboxer::Receipt -->
<g id="edge13" class="edge"><title>User&#45;&gt;Mailboxer::Receipt</title>
<path fill="none" stroke="#2e30c3" d="M874.591,-879.501C890.799,-823.672 908.082,-764.141 917.819,-730.602"/>
<ellipse fill="none" stroke="#2e30c3" cx="873.409" cy="-883.57" rx="4.00001" ry="4.00001"/>
<polygon fill="#2e30c3" stroke="#2e30c3" points="917.916,-730.268 925.026,-721.919 919.311,-725.466 920.705,-720.664 920.705,-720.664 920.705,-720.664 919.311,-725.466 916.383,-719.409 917.916,-730.268 917.916,-730.268"/>
<text text-anchor="middle" x="902.453" y="-857.8" font-family="Times,serif" font-size="14.00">receipts</text>
</g>
</g>
</svg>
