<?xml version="1.0" encoding="UTF-8" standalone="no"?>
<!DOCTYPE svg PUBLIC "-//W3C//DTD SVG 1.1//EN"
 "http://www.w3.org/Graphics/SVG/1.1/DTD/svg11.dtd">
<!-- Generated by graphviz version 2.38.0 (20140413.2041)
 -->
<!-- Title: models_diagram Pages: 1 -->
<svg width="1029pt" height="386pt"
 viewBox="0.00 0.00 1029.44 386.00" xmlns="http://www.w3.org/2000/svg" xmlns:xlink="http://www.w3.org/1999/xlink">
<g id="graph0" class="graph" transform="scale(1 1) rotate(0) translate(4 382)">
<title>models_diagram</title>
<polygon fill="white" stroke="none" points="-4,4 -4,-382 1025.44,-382 1025.44,4 -4,4"/>
<!-- _diagram_info -->
<g id="node1" class="node"><title>_diagram_info</title>
<text text-anchor="start" x="8" y="-363.6" font-family="Times,serif" font-size="13.00">Models diagram</text>
<text text-anchor="start" x="8" y="-350.6" font-family="Times,serif" font-size="13.00">Date: Jun 21 2015 &#45; 19:06</text>
<text text-anchor="start" x="8" y="-337.6" font-family="Times,serif" font-size="13.00">Migration version: 20150418105322</text>
<text text-anchor="start" x="8" y="-324.6" font-family="Times,serif" font-size="13.00">Generated by RailRoady 1.3.0</text>
<text text-anchor="start" x="8" y="-311.6" font-family="Times,serif" font-size="13.00">http://railroady.prestonlee.com</text>
</g>
<!-- Event -->
<g id="node2" class="node"><title>Event</title>
<ellipse fill="none" stroke="black" cx="255.688" cy="-341.5" rx="30.9706" ry="18"/>
<text text-anchor="middle" x="255.688" y="-337.3" font-family="Times,serif" font-size="14.00">Event</text>
</g>
<!-- Student -->
<g id="node9" class="node"><title>Student</title>
<ellipse fill="none" stroke="black" cx="320.688" cy="-237" rx="37.2594" ry="18"/>
<text text-anchor="middle" x="320.688" y="-232.8" font-family="Times,serif" font-size="14.00">Student</text>
</g>
<!-- Event&#45;&gt;Student -->
<g id="edge1" class="edge"><title>Event&#45;&gt;Student</title>
<path fill="none" stroke="#500768" d="M270.229,-317.569C280.457,-301.44 294.145,-279.856 304.683,-263.238"/>
<ellipse fill="none" stroke="#500768" cx="267.986" cy="-321.106" rx="4.00002" ry="4.00002"/>
<polygon fill="#500768" stroke="#500768" points="304.817,-263.027 313.972,-256.992 307.494,-258.805 310.172,-254.582 310.172,-254.582 310.172,-254.582 307.494,-258.805 306.372,-252.172 304.817,-263.027 304.817,-263.027"/>
</g>
<!-- Group -->
<g id="node3" class="node"><title>Group</title>
<ellipse fill="none" stroke="black" cx="268.688" cy="-91" rx="32.9081" ry="18"/>
<text text-anchor="middle" x="268.688" y="-86.8" font-family="Times,serif" font-size="14.00">Group</text>
</g>
<!-- Group&#45;&gt;Event -->
<g id="edge4" class="edge"><title>Group&#45;&gt;Event</title>
<path fill="none" stroke="#7d3d40" d="M244.92,-112.184C235.818,-121.442 226.476,-133.205 221.688,-146 200.015,-203.911 225.765,-276.778 242.867,-314.772"/>
<ellipse fill="none" stroke="#7d3d40" cx="247.942" cy="-109.258" rx="4.00002" ry="4.00002"/>
<polygon fill="#7d3d40" stroke="#7d3d40" points="242.984,-315.022 243.126,-325.987 245.095,-319.555 247.205,-324.087 247.205,-324.087 247.205,-324.087 245.095,-319.555 251.285,-322.187 242.984,-315.022 242.984,-315.022"/>
</g>
<!-- Homework -->
<g id="node4" class="node"><title>Homework</title>
<ellipse fill="none" stroke="black" cx="268.688" cy="-18" rx="49.7878" ry="18"/>
<text text-anchor="middle" x="268.688" y="-13.8" font-family="Times,serif" font-size="14.00">Homework</text>
</g>
<!-- Group&#45;&gt;Homework -->
<g id="edge3" class="edge"><title>Group&#45;&gt;Homework</title>
<path fill="none" stroke="#4744aa" d="M268.688,-64.791C268.688,-58.832 268.688,-52.4496 268.688,-46.3988"/>
<ellipse fill="none" stroke="#4744aa" cx="268.688" cy="-68.8129" rx="4" ry="4"/>
<polygon fill="#4744aa" stroke="#4744aa" points="268.688,-46.0288 273.188,-36.0288 268.688,-41.0288 268.688,-36.0288 268.688,-36.0288 268.688,-36.0288 268.688,-41.0288 264.188,-36.0289 268.688,-46.0288 268.688,-46.0288"/>
</g>
<!-- Group&#45;&gt;Student -->
<g id="edge2" class="edge"><title>Group&#45;&gt;Student</title>
<path fill="none" stroke="#719628" d="M292.111,-112.318C301.155,-121.599 310.546,-133.343 315.688,-146 323.762,-165.877 324.622,-190.275 323.679,-208.652"/>
<ellipse fill="none" stroke="#719628" cx="289.123" cy="-109.39" rx="4.00002" ry="4.00002"/>
<polygon fill="#719628" stroke="#719628" points="323.674,-208.722 318.469,-218.374 323.316,-213.709 322.957,-218.696 322.957,-218.696 322.957,-218.696 323.316,-213.709 327.445,-219.019 323.674,-208.722 323.674,-208.722"/>
</g>
<!-- Inquery -->
<g id="node5" class="node"><title>Inquery</title>
<ellipse fill="none" stroke="black" cx="735.688" cy="-341.5" rx="37.7179" ry="18"/>
<text text-anchor="middle" x="735.688" y="-337.3" font-family="Times,serif" font-size="14.00">Inquery</text>
</g>
<!-- LessonPlan -->
<g id="node6" class="node"><title>LessonPlan</title>
<ellipse fill="none" stroke="black" cx="890.688" cy="-237" rx="50.7655" ry="18"/>
<text text-anchor="middle" x="890.688" y="-232.8" font-family="Times,serif" font-size="14.00">LessonPlan</text>
</g>
<!-- Photo -->
<g id="node7" class="node"><title>Photo</title>
<ellipse fill="none" stroke="black" cx="990.688" cy="-237" rx="30.9967" ry="18"/>
<text text-anchor="middle" x="990.688" y="-232.8" font-family="Times,serif" font-size="14.00">Photo</text>
</g>
<!-- Resource -->
<g id="node8" class="node"><title>Resource</title>
<ellipse fill="none" stroke="black" cx="418.688" cy="-237" rx="43.0215" ry="18"/>
<text text-anchor="middle" x="418.688" y="-232.8" font-family="Times,serif" font-size="14.00">Resource</text>
</g>
<!-- Teacher -->
<g id="node10" class="node"><title>Teacher</title>
<ellipse fill="none" stroke="black" cx="268.688" cy="-164" rx="37.9172" ry="18"/>
<text text-anchor="middle" x="268.688" y="-159.8" font-family="Times,serif" font-size="14.00">Teacher</text>
</g>
<!-- Student&#45;&gt;Teacher -->
<g id="edge5" class="edge"><title>Student&#45;&gt;Teacher</title>
<path fill="none" stroke="#a132f2" d="M302.813,-211.593C297.705,-204.62 292.133,-197.012 287,-190.004"/>
<polygon fill="#a132f2" stroke="#a132f2" points="302.979,-211.821 305.258,-222.548 305.934,-215.855 308.888,-219.889 308.888,-219.889 308.888,-219.889 305.934,-215.855 312.519,-217.23 302.979,-211.821 302.979,-211.821"/>
<polygon fill="#a132f2" stroke="#a132f2" points="286.71,-189.608 284.432,-178.881 283.756,-185.574 280.802,-181.54 280.802,-181.54 280.802,-181.54 283.756,-185.574 277.171,-184.199 286.71,-189.608 286.71,-189.608"/>
</g>
<!-- Teacher&#45;&gt;Event -->
<g id="edge7" class="edge"><title>Teacher&#45;&gt;Event</title>
<path fill="none" stroke="#7882d4" d="M266.81,-190.348C264.397,-222.928 260.222,-279.29 257.731,-312.917"/>
<ellipse fill="none" stroke="#7882d4" cx="267.117" cy="-186.206" rx="4" ry="4"/>
<polygon fill="#7882d4" stroke="#7882d4" points="257.697,-313.38 252.47,-323.02 257.327,-318.366 256.958,-323.353 256.958,-323.353 256.958,-323.353 257.327,-318.366 261.446,-323.685 257.697,-313.38 257.697,-313.38"/>
</g>
<!-- Teacher&#45;&gt;Group -->
<g id="edge6" class="edge"><title>Teacher&#45;&gt;Group</title>
<path fill="none" stroke="#468cbe" d="M268.688,-137.791C268.688,-131.832 268.688,-125.45 268.688,-119.399"/>
<ellipse fill="none" stroke="#468cbe" cx="268.688" cy="-141.813" rx="4" ry="4"/>
<polygon fill="#468cbe" stroke="#468cbe" points="268.688,-119.029 273.188,-109.029 268.688,-114.029 268.688,-109.029 268.688,-109.029 268.688,-109.029 268.688,-114.029 264.188,-109.029 268.688,-119.029 268.688,-119.029"/>
</g>
<!-- User -->
<g id="node11" class="node"><title>User</title>
<ellipse fill="none" stroke="black" cx="652.688" cy="-341.5" rx="27" ry="18"/>
<text text-anchor="middle" x="652.688" y="-337.3" font-family="Times,serif" font-size="14.00">User</text>
</g>
<!-- User&#45;&gt;LessonPlan -->
<g id="edge9" class="edge"><title>User&#45;&gt;LessonPlan</title>
<path fill="none" stroke="#451930" d="M670.761,-319.027C676.072,-313.801 682.209,-308.667 688.688,-305 716.644,-289.177 728.033,-296.602 758.688,-287 789.301,-277.41 823.216,-264.776 849.003,-254.738"/>
<ellipse fill="none" stroke="#451930" cx="667.699" cy="-322.23" rx="4.00002" ry="4.00002"/>
<polygon fill="#451930" stroke="#451930" points="849.154,-254.679 860.106,-255.22 853.809,-252.855 858.464,-251.03 858.464,-251.03 858.464,-251.03 853.809,-252.855 856.822,-246.841 849.154,-254.679 849.154,-254.679"/>
</g>
<!-- User&#45;&gt;Photo -->
<g id="edge8" class="edge"><title>User&#45;&gt;Photo</title>
<path fill="none" stroke="#7455d1" d="M669.952,-319.287C675.399,-313.846 681.808,-308.537 688.688,-305 730.406,-283.551 746.584,-295.657 792.688,-287 863.105,-273.778 882.258,-276.232 950.688,-255 953.084,-254.257 955.533,-253.419 957.979,-252.525"/>
<ellipse fill="none" stroke="#7455d1" cx="667.177" cy="-322.247" rx="4.00002" ry="4.00002"/>
<polygon fill="#7455d1" stroke="#7455d1" points="957.984,-252.524 968.936,-253.064 962.639,-250.699 967.294,-248.874 967.294,-248.874 967.294,-248.874 962.639,-250.699 965.652,-244.685 957.984,-252.524 957.984,-252.524"/>
</g>
<!-- User&#45;&gt;Resource -->
<g id="edge10" class="edge"><title>User&#45;&gt;Resource</title>
<path fill="none" stroke="#222186" d="M623.251,-327.606C581.037,-309.115 503.278,-275.054 456.745,-254.67"/>
<ellipse fill="none" stroke="#222186" cx="627.01" cy="-329.252" rx="4.00002" ry="4.00002"/>
<polygon fill="#222186" stroke="#222186" points="456.473,-254.551 449.119,-246.417 451.893,-252.545 447.313,-250.539 447.313,-250.539 447.313,-250.539 451.893,-252.545 445.507,-254.661 456.473,-254.551 456.473,-254.551"/>
</g>
<!-- User&#45;&gt;Student -->
<g id="edge11" class="edge"><title>User&#45;&gt;Student</title>
<path fill="none" stroke="#0097a4" d="M620.292,-331.54C567.052,-316.654 457.863,-285.442 366.688,-255 363.508,-253.938 360.218,-252.801 356.927,-251.637"/>
<ellipse fill="none" stroke="#0097a4" cx="624.185" cy="-332.626" rx="4.00001" ry="4.00001"/>
<ellipse fill="#0097a4" stroke="#0097a4" cx="353.062" cy="-250.247" rx="4.00001" ry="4.00001"/>
</g>
<!-- Mailboxer::Message -->
<g id="node12" class="node"><title>Mailboxer::Message</title>
<ellipse fill="none" stroke="black" cx="562.688" cy="-237" rx="82.6045" ry="18"/>
<text text-anchor="middle" x="562.688" y="-232.8" font-family="Times,serif" font-size="14.00">Mailboxer::Message</text>
</g>
<!-- User&#45;&gt;Mailboxer::Message -->
<g id="edge12" class="edge"><title>User&#45;&gt;Mailboxer::Message</title>
<path fill="none" stroke="#490767" d="M634.037,-319.258C619.634,-302.856 599.673,-280.122 584.525,-262.87"/>
<ellipse fill="none" stroke="#490767" cx="636.769" cy="-322.37" rx="4.00002" ry="4.00002"/>
<polygon fill="#490767" stroke="#490767" points="584.119,-262.408 580.903,-251.924 580.82,-258.651 577.521,-254.893 577.521,-254.893 577.521,-254.893 580.82,-258.651 574.14,-257.863 584.119,-262.408 584.119,-262.408"/>
<text text-anchor="middle" x="631.126" y="-275.8" font-family="Times,serif" font-size="14.00">messages</text>
</g>
<!-- Mailboxer::Receipt -->
<g id="node13" class="node"><title>Mailboxer::Receipt</title>
<ellipse fill="none" stroke="black" cx="742.688" cy="-237" rx="78.7367" ry="18"/>
<text text-anchor="middle" x="742.688" y="-232.8" font-family="Times,serif" font-size="14.00">Mailboxer::Receipt</text>
</g>
<!-- User&#45;&gt;Mailboxer::Receipt -->
<g id="edge13" class="edge"><title>User&#45;&gt;Mailboxer::Receipt</title>
<path fill="none" stroke="#efaf37" d="M671.339,-319.258C685.741,-302.856 705.703,-280.122 720.851,-262.87"/>
<ellipse fill="none" stroke="#efaf37" cx="668.607" cy="-322.37" rx="4.00002" ry="4.00002"/>
<polygon fill="#efaf37" stroke="#efaf37" points="721.256,-262.408 731.236,-257.863 724.555,-258.651 727.854,-254.893 727.854,-254.893 727.854,-254.893 724.555,-258.651 724.473,-251.924 721.256,-262.408 721.256,-262.408"/>
<text text-anchor="middle" x="732.453" y="-275.8" font-family="Times,serif" font-size="14.00">receipts</text>
</g>
</g>
</svg>
