<?xml version="1.0" encoding="UTF-8" standalone="no"?>
<!DOCTYPE svg PUBLIC "-//W3C//DTD SVG 1.1//EN"
 "http://www.w3.org/Graphics/SVG/1.1/DTD/svg11.dtd">
<!-- Generated by graphviz version 2.38.0 (20140413.2041)
 -->
<!-- Title: models_diagram Pages: 1 -->
<svg width="740pt" height="716pt"
 viewBox="0.00 0.00 739.73 716.00" xmlns="http://www.w3.org/2000/svg" xmlns:xlink="http://www.w3.org/1999/xlink">
<g id="graph0" class="graph" transform="scale(1 1) rotate(0) translate(4 712)">
<title>models_diagram</title>
<polygon fill="white" stroke="none" points="-4,4 -4,-712 735.728,-712 735.728,4 -4,4"/>
<!-- _diagram_info -->
<g id="node1" class="node"><title>_diagram_info</title>
<text text-anchor="start" x="8" y="-623.6" font-family="Times,serif" font-size="13.00">Models diagram</text>
<text text-anchor="start" x="8" y="-610.6" font-family="Times,serif" font-size="13.00">Date: Jan 28 2015 &#45; 00:01</text>
<text text-anchor="start" x="8" y="-597.6" font-family="Times,serif" font-size="13.00">Migration version: 20150127114849</text>
<text text-anchor="start" x="8" y="-584.6" font-family="Times,serif" font-size="13.00">Generated by RailRoady 1.3.0</text>
<text text-anchor="start" x="8" y="-571.6" font-family="Times,serif" font-size="13.00">http://railroady.prestonlee.com</text>
</g>
<!-- Appointment -->
<g id="node2" class="node"><title>Appointment</title>
<path fill="none" stroke="black" d="M236.944,-530.5C236.944,-530.5 345.955,-530.5 345.955,-530.5 351.955,-530.5 357.955,-536.5 357.955,-542.5 357.955,-542.5 357.955,-660.5 357.955,-660.5 357.955,-666.5 351.955,-672.5 345.955,-672.5 345.955,-672.5 236.944,-672.5 236.944,-672.5 230.944,-672.5 224.944,-666.5 224.944,-660.5 224.944,-660.5 224.944,-542.5 224.944,-542.5 224.944,-536.5 230.944,-530.5 236.944,-530.5"/>
<text text-anchor="middle" x="291.45" y="-657.3" font-family="Times,serif" font-size="14.00">Appointment</text>
<polyline fill="none" stroke="black" points="224.944,-650.5 357.955,-650.5 "/>
<text text-anchor="start" x="232.944" y="-635.3" font-family="Times,serif" font-size="14.00">id :integer</text>
<text text-anchor="start" x="232.944" y="-621.3" font-family="Times,serif" font-size="14.00">start :datetime</text>
<text text-anchor="start" x="232.944" y="-607.3" font-family="Times,serif" font-size="14.00">teacher_id :integer</text>
<text text-anchor="start" x="232.944" y="-593.3" font-family="Times,serif" font-size="14.00">group_id :integer</text>
<text text-anchor="start" x="232.944" y="-579.3" font-family="Times,serif" font-size="14.00">ta :string</text>
<text text-anchor="start" x="232.944" y="-565.3" font-family="Times,serif" font-size="14.00">note :text</text>
<text text-anchor="start" x="232.944" y="-551.3" font-family="Times,serif" font-size="14.00">created_at :datetime</text>
<text text-anchor="start" x="232.944" y="-537.3" font-family="Times,serif" font-size="14.00">updated_at :datetime</text>
</g>
<!-- Student -->
<g id="node6" class="node"><title>Student</title>
<path fill="none" stroke="black" d="M141.944,-330.5C141.944,-330.5 250.955,-330.5 250.955,-330.5 256.955,-330.5 262.955,-336.5 262.955,-342.5 262.955,-342.5 262.955,-446.5 262.955,-446.5 262.955,-452.5 256.955,-458.5 250.955,-458.5 250.955,-458.5 141.944,-458.5 141.944,-458.5 135.944,-458.5 129.944,-452.5 129.944,-446.5 129.944,-446.5 129.944,-342.5 129.944,-342.5 129.944,-336.5 135.944,-330.5 141.944,-330.5"/>
<text text-anchor="middle" x="196.45" y="-443.3" font-family="Times,serif" font-size="14.00">Student</text>
<polyline fill="none" stroke="black" points="129.944,-436.5 262.955,-436.5 "/>
<text text-anchor="start" x="137.944" y="-421.3" font-family="Times,serif" font-size="14.00">id :integer</text>
<text text-anchor="start" x="137.944" y="-407.3" font-family="Times,serif" font-size="14.00">ename :string</text>
<text text-anchor="start" x="137.944" y="-393.3" font-family="Times,serif" font-size="14.00">cname :string</text>
<text text-anchor="start" x="137.944" y="-379.3" font-family="Times,serif" font-size="14.00">dob :date</text>
<text text-anchor="start" x="137.944" y="-365.3" font-family="Times,serif" font-size="14.00">group_id :integer</text>
<text text-anchor="start" x="137.944" y="-351.3" font-family="Times,serif" font-size="14.00">created_at :datetime</text>
<text text-anchor="start" x="137.944" y="-337.3" font-family="Times,serif" font-size="14.00">updated_at :datetime</text>
</g>
<!-- Appointment&#45;&gt;Student -->
<g id="edge1" class="edge"><title>Appointment&#45;&gt;Student</title>
<path fill="none" stroke="#17ad75" d="M255.455,-522.827C247.111,-504.822 238.263,-485.729 230.028,-467.958"/>
<ellipse fill="none" stroke="#17ad75" cx="257.207" cy="-526.608" rx="4.00002" ry="4.00002"/>
<polygon fill="#17ad75" stroke="#17ad75" points="229.987,-467.871 229.866,-456.905 227.885,-463.334 225.783,-458.798 225.783,-458.798 225.783,-458.798 227.885,-463.334 221.7,-460.69 229.987,-467.871 229.987,-467.871"/>
</g>
<!-- Group -->
<g id="node3" class="node"><title>Group</title>
<path fill="none" stroke="black" d="M207.944,-0.5C207.944,-0.5 316.955,-0.5 316.955,-0.5 322.955,-0.5 328.955,-6.5 328.955,-12.5 328.955,-12.5 328.955,-116.5 328.955,-116.5 328.955,-122.5 322.955,-128.5 316.955,-128.5 316.955,-128.5 207.944,-128.5 207.944,-128.5 201.944,-128.5 195.944,-122.5 195.944,-116.5 195.944,-116.5 195.944,-12.5 195.944,-12.5 195.944,-6.5 201.944,-0.5 207.944,-0.5"/>
<text text-anchor="middle" x="262.45" y="-113.3" font-family="Times,serif" font-size="14.00">Group</text>
<polyline fill="none" stroke="black" points="195.944,-106.5 328.955,-106.5 "/>
<text text-anchor="start" x="203.944" y="-91.3" font-family="Times,serif" font-size="14.00">id :integer</text>
<text text-anchor="start" x="203.944" y="-77.3" font-family="Times,serif" font-size="14.00">school :string</text>
<text text-anchor="start" x="203.944" y="-63.3" font-family="Times,serif" font-size="14.00">name :string</text>
<text text-anchor="start" x="203.944" y="-49.3" font-family="Times,serif" font-size="14.00">teacher_id :integer</text>
<text text-anchor="start" x="203.944" y="-35.3" font-family="Times,serif" font-size="14.00">student_id :integer</text>
<text text-anchor="start" x="203.944" y="-21.3" font-family="Times,serif" font-size="14.00">created_at :datetime</text>
<text text-anchor="start" x="203.944" y="-7.3" font-family="Times,serif" font-size="14.00">updated_at :datetime</text>
</g>
<!-- Group&#45;&gt;Appointment -->
<g id="edge3" class="edge"><title>Group&#45;&gt;Appointment</title>
<path fill="none" stroke="#e0ed8f" d="M324.299,-135.389C330.049,-144.841 335.003,-154.81 338.45,-165 378.784,-284.255 347.3,-431.386 320.014,-520.473"/>
<ellipse fill="none" stroke="#e0ed8f" cx="322.128" cy="-131.977" rx="4.00002" ry="4.00002"/>
<polygon fill="#e0ed8f" stroke="#e0ed8f" points="319.945,-520.697 312.672,-528.903 318.456,-525.47 316.967,-530.243 316.967,-530.243 316.967,-530.243 318.456,-525.47 321.263,-531.583 319.945,-520.697 319.945,-520.697"/>
</g>
<!-- Group&#45;&gt;Student -->
<g id="edge2" class="edge"><title>Group&#45;&gt;Student</title>
<path fill="none" stroke="#8c6994" d="M200.6,-135.389C194.85,-144.841 189.896,-154.81 186.45,-165 169.595,-214.832 172.863,-274.282 179.941,-320.05"/>
<ellipse fill="none" stroke="#8c6994" cx="202.771" cy="-131.977" rx="4.00002" ry="4.00002"/>
<polygon fill="#8c6994" stroke="#8c6994" points="179.985,-320.321 177.164,-330.918 180.795,-325.255 181.605,-330.189 181.605,-330.189 181.605,-330.189 180.795,-325.255 186.046,-329.46 179.985,-320.321 179.985,-320.321"/>
</g>
<!-- Inquery -->
<g id="node4" class="node"><title>Inquery</title>
<path fill="none" stroke="black" d="M387.944,-537.5C387.944,-537.5 496.955,-537.5 496.955,-537.5 502.955,-537.5 508.955,-543.5 508.955,-549.5 508.955,-549.5 508.955,-653.5 508.955,-653.5 508.955,-659.5 502.955,-665.5 496.955,-665.5 496.955,-665.5 387.944,-665.5 387.944,-665.5 381.944,-665.5 375.944,-659.5 375.944,-653.5 375.944,-653.5 375.944,-549.5 375.944,-549.5 375.944,-543.5 381.944,-537.5 387.944,-537.5"/>
<text text-anchor="middle" x="442.45" y="-650.3" font-family="Times,serif" font-size="14.00">Inquery</text>
<polyline fill="none" stroke="black" points="375.944,-643.5 508.955,-643.5 "/>
<text text-anchor="start" x="383.944" y="-628.3" font-family="Times,serif" font-size="14.00">id :integer</text>
<text text-anchor="start" x="383.944" y="-614.3" font-family="Times,serif" font-size="14.00">name :string</text>
<text text-anchor="start" x="383.944" y="-600.3" font-family="Times,serif" font-size="14.00">email :string</text>
<text text-anchor="start" x="383.944" y="-586.3" font-family="Times,serif" font-size="14.00">phone :string</text>
<text text-anchor="start" x="383.944" y="-572.3" font-family="Times,serif" font-size="14.00">message :text</text>
<text text-anchor="start" x="383.944" y="-558.3" font-family="Times,serif" font-size="14.00">created_at :datetime</text>
<text text-anchor="start" x="383.944" y="-544.3" font-family="Times,serif" font-size="14.00">updated_at :datetime</text>
</g>
<!-- Photo -->
<g id="node5" class="node"><title>Photo</title>
<path fill="none" stroke="black" d="M574.944,-344.5C574.944,-344.5 683.955,-344.5 683.955,-344.5 689.955,-344.5 695.955,-350.5 695.955,-356.5 695.955,-356.5 695.955,-432.5 695.955,-432.5 695.955,-438.5 689.955,-444.5 683.955,-444.5 683.955,-444.5 574.944,-444.5 574.944,-444.5 568.944,-444.5 562.944,-438.5 562.944,-432.5 562.944,-432.5 562.944,-356.5 562.944,-356.5 562.944,-350.5 568.944,-344.5 574.944,-344.5"/>
<text text-anchor="middle" x="629.45" y="-429.3" font-family="Times,serif" font-size="14.00">Photo</text>
<polyline fill="none" stroke="black" points="562.944,-422.5 695.955,-422.5 "/>
<text text-anchor="start" x="570.944" y="-407.3" font-family="Times,serif" font-size="14.00">id :integer</text>
<text text-anchor="start" x="570.944" y="-393.3" font-family="Times,serif" font-size="14.00">description :string</text>
<text text-anchor="start" x="570.944" y="-379.3" font-family="Times,serif" font-size="14.00">created_at :datetime</text>
<text text-anchor="start" x="570.944" y="-365.3" font-family="Times,serif" font-size="14.00">updated_at :datetime</text>
<text text-anchor="start" x="570.944" y="-351.3" font-family="Times,serif" font-size="14.00">user_id :integer</text>
</g>
<!-- Teacher -->
<g id="node7" class="node"><title>Teacher</title>
<path fill="none" stroke="black" d="M207.944,-165.5C207.944,-165.5 316.955,-165.5 316.955,-165.5 322.955,-165.5 328.955,-171.5 328.955,-177.5 328.955,-177.5 328.955,-281.5 328.955,-281.5 328.955,-287.5 322.955,-293.5 316.955,-293.5 316.955,-293.5 207.944,-293.5 207.944,-293.5 201.944,-293.5 195.944,-287.5 195.944,-281.5 195.944,-281.5 195.944,-177.5 195.944,-177.5 195.944,-171.5 201.944,-165.5 207.944,-165.5"/>
<text text-anchor="middle" x="262.45" y="-278.3" font-family="Times,serif" font-size="14.00">Teacher</text>
<polyline fill="none" stroke="black" points="195.944,-271.5 328.955,-271.5 "/>
<text text-anchor="start" x="203.944" y="-256.3" font-family="Times,serif" font-size="14.00">id :integer</text>
<text text-anchor="start" x="203.944" y="-242.3" font-family="Times,serif" font-size="14.00">ename :string</text>
<text text-anchor="start" x="203.944" y="-228.3" font-family="Times,serif" font-size="14.00">cname :string</text>
<text text-anchor="start" x="203.944" y="-214.3" font-family="Times,serif" font-size="14.00">dob :date</text>
<text text-anchor="start" x="203.944" y="-200.3" font-family="Times,serif" font-size="14.00">group_id :integer</text>
<text text-anchor="start" x="203.944" y="-186.3" font-family="Times,serif" font-size="14.00">created_at :datetime</text>
<text text-anchor="start" x="203.944" y="-172.3" font-family="Times,serif" font-size="14.00">updated_at :datetime</text>
</g>
<!-- Student&#45;&gt;Teacher -->
<g id="edge4" class="edge"><title>Student&#45;&gt;Teacher</title>
<path fill="none" stroke="#6b6c81" d="M225.793,-321.031C228.221,-315.034 230.677,-308.97 233.105,-302.973"/>
<polygon fill="#6b6c81" stroke="#6b6c81" points="225.72,-321.211 217.796,-328.791 223.844,-325.845 221.967,-330.48 221.967,-330.48 221.967,-330.48 223.844,-325.845 226.138,-332.169 225.72,-321.211 225.72,-321.211"/>
<polygon fill="#6b6c81" stroke="#6b6c81" points="233.138,-302.89 241.062,-295.31 235.015,-298.256 236.891,-293.621 236.891,-293.621 236.891,-293.621 235.015,-298.256 232.72,-291.932 233.138,-302.89 233.138,-302.89"/>
</g>
<!-- Teacher&#45;&gt;Appointment -->
<g id="edge6" class="edge"><title>Teacher&#45;&gt;Appointment</title>
<path fill="none" stroke="#becbac" d="M269.859,-301.609C270.776,-311.15 271.665,-320.81 272.45,-330 277.903,-393.897 282.933,-466.384 286.445,-520.226"/>
<ellipse fill="none" stroke="#becbac" cx="269.471" cy="-297.618" rx="4" ry="4"/>
<polygon fill="#becbac" stroke="#becbac" points="286.458,-520.418 282.615,-530.689 286.782,-525.408 287.105,-530.397 287.105,-530.397 287.105,-530.397 286.782,-525.408 291.596,-530.106 286.458,-520.418 286.458,-520.418"/>
</g>
<!-- Teacher&#45;&gt;Group -->
<g id="edge5" class="edge"><title>Teacher&#45;&gt;Group</title>
<path fill="none" stroke="#c5c252" d="M262.45,-157.473C262.45,-151.322 262.45,-145.09 262.45,-138.92"/>
<ellipse fill="none" stroke="#c5c252" cx="262.45" cy="-161.48" rx="4" ry="4"/>
<polygon fill="#c5c252" stroke="#c5c252" points="262.45,-138.621 266.95,-128.621 262.45,-133.621 262.45,-128.621 262.45,-128.621 262.45,-128.621 262.45,-133.621 257.95,-128.621 262.45,-138.621 262.45,-138.621"/>
</g>
<!-- User -->
<g id="node8" class="node"><title>User</title>
<path fill="none" stroke="black" d="M539.172,-495.5C539.172,-495.5 719.728,-495.5 719.728,-495.5 725.728,-495.5 731.728,-501.5 731.728,-507.5 731.728,-507.5 731.728,-695.5 731.728,-695.5 731.728,-701.5 725.728,-707.5 719.728,-707.5 719.728,-707.5 539.172,-707.5 539.172,-707.5 533.172,-707.5 527.172,-701.5 527.172,-695.5 527.172,-695.5 527.172,-507.5 527.172,-507.5 527.172,-501.5 533.172,-495.5 539.172,-495.5"/>
<text text-anchor="middle" x="629.45" y="-692.3" font-family="Times,serif" font-size="14.00">User</text>
<polyline fill="none" stroke="black" points="527.172,-685.5 731.728,-685.5 "/>
<text text-anchor="start" x="535.172" y="-670.3" font-family="Times,serif" font-size="14.00">id :integer</text>
<text text-anchor="start" x="535.172" y="-656.3" font-family="Times,serif" font-size="14.00">email :string</text>
<text text-anchor="start" x="535.172" y="-642.3" font-family="Times,serif" font-size="14.00">encrypted_password :string</text>
<text text-anchor="start" x="535.172" y="-628.3" font-family="Times,serif" font-size="14.00">reset_password_token :string</text>
<text text-anchor="start" x="535.172" y="-614.3" font-family="Times,serif" font-size="14.00">reset_password_sent_at :datetime</text>
<text text-anchor="start" x="535.172" y="-600.3" font-family="Times,serif" font-size="14.00">remember_created_at :datetime</text>
<text text-anchor="start" x="535.172" y="-586.3" font-family="Times,serif" font-size="14.00">sign_in_count :integer</text>
<text text-anchor="start" x="535.172" y="-572.3" font-family="Times,serif" font-size="14.00">current_sign_in_at :datetime</text>
<text text-anchor="start" x="535.172" y="-558.3" font-family="Times,serif" font-size="14.00">last_sign_in_at :datetime</text>
<text text-anchor="start" x="535.172" y="-544.3" font-family="Times,serif" font-size="14.00">current_sign_in_ip :string</text>
<text text-anchor="start" x="535.172" y="-530.3" font-family="Times,serif" font-size="14.00">last_sign_in_ip :string</text>
<text text-anchor="start" x="535.172" y="-516.3" font-family="Times,serif" font-size="14.00">created_at :datetime</text>
<text text-anchor="start" x="535.172" y="-502.3" font-family="Times,serif" font-size="14.00">updated_at :datetime</text>
</g>
<!-- User&#45;&gt;Photo -->
<g id="edge7" class="edge"><title>User&#45;&gt;Photo</title>
<path fill="none" stroke="#dd7f76" d="M629.45,-487.019C629.45,-475.875 629.45,-464.906 629.45,-454.647"/>
<ellipse fill="none" stroke="#dd7f76" cx="629.45" cy="-491.298" rx="4" ry="4"/>
<polygon fill="#dd7f76" stroke="#dd7f76" points="629.45,-454.645 633.95,-444.645 629.45,-449.645 629.45,-444.645 629.45,-444.645 629.45,-444.645 629.45,-449.645 624.95,-444.645 629.45,-454.645 629.45,-454.645"/>
</g>
</g>
</svg>
