<?xml version="1.0" encoding="UTF-8" standalone="no"?>
<!DOCTYPE svg PUBLIC "-//W3C//DTD SVG 1.1//EN"
 "http://www.w3.org/Graphics/SVG/1.1/DTD/svg11.dtd">
<!-- Generated by graphviz version 2.38.0 (20140413.2041)
 -->
<!-- Title: models_diagram Pages: 1 -->
<svg width="1003pt" height="313pt"
 viewBox="0.00 0.00 1002.56 313.00" xmlns="http://www.w3.org/2000/svg" xmlns:xlink="http://www.w3.org/1999/xlink">
<g id="graph0" class="graph" transform="scale(1 1) rotate(0) translate(4 309)">
<title>models_diagram</title>
<polygon fill="white" stroke="none" points="-4,4 -4,-309 998.556,-309 998.556,4 -4,4"/>
<!-- _diagram_info -->
<g id="node1" class="node"><title>_diagram_info</title>
<text text-anchor="start" x="8" y="-290.6" font-family="Times,serif" font-size="13.00">Models diagram</text>
<text text-anchor="start" x="8" y="-277.6" font-family="Times,serif" font-size="13.00">Date: Apr 18 2015 &#45; 23:24</text>
<text text-anchor="start" x="8" y="-264.6" font-family="Times,serif" font-size="13.00">Migration version: 20150418105322</text>
<text text-anchor="start" x="8" y="-251.6" font-family="Times,serif" font-size="13.00">Generated by RailRoady 1.3.0</text>
<text text-anchor="start" x="8" y="-238.6" font-family="Times,serif" font-size="13.00">http://railroady.prestonlee.com</text>
</g>
<!-- Event -->
<g id="node2" class="node"><title>Event</title>
<ellipse fill="none" stroke="black" cx="255.688" cy="-268.5" rx="30.9706" ry="18"/>
<text text-anchor="middle" x="255.688" y="-264.3" font-family="Times,serif" font-size="14.00">Event</text>
</g>
<!-- Student -->
<g id="node9" class="node"><title>Student</title>
<ellipse fill="none" stroke="black" cx="255.688" cy="-164" rx="37.2594" ry="18"/>
<text text-anchor="middle" x="255.688" y="-159.8" font-family="Times,serif" font-size="14.00">Student</text>
</g>
<!-- Event&#45;&gt;Student -->
<g id="edge1" class="edge"><title>Event&#45;&gt;Student</title>
<path fill="none" stroke="#8c07ee" d="M255.688,-242.017C255.688,-226.986 255.688,-207.959 255.688,-192.577"/>
<ellipse fill="none" stroke="#8c07ee" cx="255.688" cy="-246.112" rx="4" ry="4"/>
<polygon fill="#8c07ee" stroke="#8c07ee" points="255.688,-192.131 260.188,-182.131 255.688,-187.131 255.688,-182.131 255.688,-182.131 255.688,-182.131 255.688,-187.131 251.188,-182.131 255.688,-192.131 255.688,-192.131"/>
</g>
<!-- Group -->
<g id="node3" class="node"><title>Group</title>
<ellipse fill="none" stroke="black" cx="238.688" cy="-18" rx="32.9081" ry="18"/>
<text text-anchor="middle" x="238.688" y="-13.8" font-family="Times,serif" font-size="14.00">Group</text>
</g>
<!-- Group&#45;&gt;Event -->
<g id="edge3" class="edge"><title>Group&#45;&gt;Event</title>
<path fill="none" stroke="#e19938" d="M227.958,-43.4007C215.306,-75.4735 197.453,-133.437 209.688,-182 215.282,-204.204 227.891,-226.918 238.496,-243.349"/>
<ellipse fill="none" stroke="#e19938" cx="229.533" cy="-39.5307" rx="4.00001" ry="4.00001"/>
<polygon fill="#e19938" stroke="#e19938" points="238.576,-243.468 240.38,-254.285 241.35,-247.628 244.124,-251.788 244.124,-251.788 244.124,-251.788 241.35,-247.628 247.868,-249.291 238.576,-243.468 238.576,-243.468"/>
</g>
<!-- Group&#45;&gt;Student -->
<g id="edge2" class="edge"><title>Group&#45;&gt;Student</title>
<path fill="none" stroke="#1e1531" d="M241.662,-44.1954C244.695,-69.8808 249.382,-109.591 252.492,-135.933"/>
<ellipse fill="none" stroke="#1e1531" cx="241.171" cy="-40.0344" rx="4.00001" ry="4.00001"/>
<polygon fill="#1e1531" stroke="#1e1531" points="252.498,-135.985 249.202,-146.443 253.085,-140.95 253.671,-145.916 253.671,-145.916 253.671,-145.916 253.085,-140.95 258.14,-145.388 252.498,-135.985 252.498,-135.985"/>
</g>
<!-- Homework -->
<g id="node4" class="node"><title>Homework</title>
<ellipse fill="none" stroke="black" cx="366.688" cy="-268.5" rx="49.7878" ry="18"/>
<text text-anchor="middle" x="366.688" y="-264.3" font-family="Times,serif" font-size="14.00">Homework</text>
</g>
<!-- Inquery -->
<g id="node5" class="node"><title>Inquery</title>
<ellipse fill="none" stroke="black" cx="496.688" cy="-268.5" rx="37.7179" ry="18"/>
<text text-anchor="middle" x="496.688" y="-264.3" font-family="Times,serif" font-size="14.00">Inquery</text>
</g>
<!-- LessonPlan -->
<g id="node6" class="node"><title>LessonPlan</title>
<ellipse fill="none" stroke="black" cx="399.688" cy="-164" rx="50.7655" ry="18"/>
<text text-anchor="middle" x="399.688" y="-159.8" font-family="Times,serif" font-size="14.00">LessonPlan</text>
</g>
<!-- Photo -->
<g id="node7" class="node"><title>Photo</title>
<ellipse fill="none" stroke="black" cx="499.688" cy="-164" rx="30.9967" ry="18"/>
<text text-anchor="middle" x="499.688" y="-159.8" font-family="Times,serif" font-size="14.00">Photo</text>
</g>
<!-- Resource -->
<g id="node8" class="node"><title>Resource</title>
<ellipse fill="none" stroke="black" cx="591.688" cy="-164" rx="43.0215" ry="18"/>
<text text-anchor="middle" x="591.688" y="-159.8" font-family="Times,serif" font-size="14.00">Resource</text>
</g>
<!-- Teacher -->
<g id="node10" class="node"><title>Teacher</title>
<ellipse fill="none" stroke="black" cx="304.688" cy="-91" rx="37.9172" ry="18"/>
<text text-anchor="middle" x="304.688" y="-86.8" font-family="Times,serif" font-size="14.00">Teacher</text>
</g>
<!-- Student&#45;&gt;Teacher -->
<g id="edge4" class="edge"><title>Student&#45;&gt;Teacher</title>
<path fill="none" stroke="#e2d071" d="M272.772,-138.245C277.572,-131.29 282.791,-123.728 287.591,-116.773"/>
<polygon fill="#e2d071" stroke="#e2d071" points="272.733,-138.302 263.349,-143.977 269.893,-142.418 267.052,-146.533 267.052,-146.533 267.052,-146.533 269.893,-142.418 270.756,-149.089 272.733,-138.302 272.733,-138.302"/>
<polygon fill="#e2d071" stroke="#e2d071" points="287.705,-116.608 297.088,-110.934 290.545,-112.493 293.385,-108.378 293.385,-108.378 293.385,-108.378 290.545,-112.493 289.681,-105.822 287.705,-116.608 287.705,-116.608"/>
</g>
<!-- Teacher&#45;&gt;Event -->
<g id="edge6" class="edge"><title>Teacher&#45;&gt;Event</title>
<path fill="none" stroke="#0910dc" d="M306.908,-117.643C307.751,-135.905 307.391,-160.856 301.688,-182 295.725,-204.107 283.138,-226.828 272.635,-243.285"/>
<ellipse fill="none" stroke="#0910dc" cx="306.65" cy="-113.255" rx="4" ry="4"/>
<polygon fill="#0910dc" stroke="#0910dc" points="272.568,-243.387 263.312,-249.267 269.819,-247.564 267.071,-251.741 267.071,-251.741 267.071,-251.741 269.819,-247.564 270.83,-254.214 272.568,-243.387 272.568,-243.387"/>
</g>
<!-- Teacher&#45;&gt;Group -->
<g id="edge5" class="edge"><title>Teacher&#45;&gt;Group</title>
<path fill="none" stroke="#39366e" d="M284.373,-68.1467C276.681,-59.8717 267.904,-50.4299 260.113,-42.0484"/>
<ellipse fill="none" stroke="#39366e" cx="287.317" cy="-71.3131" rx="4.00002" ry="4.00002"/>
<polygon fill="#39366e" stroke="#39366e" points="260.103,-42.0374 256.59,-31.6493 256.699,-38.3753 253.294,-34.7132 253.294,-34.7132 253.294,-34.7132 256.699,-38.3753 249.998,-37.777 260.103,-42.0374 260.103,-42.0374"/>
</g>
<!-- User -->
<g id="node11" class="node"><title>User</title>
<ellipse fill="none" stroke="black" cx="591.688" cy="-268.5" rx="27" ry="18"/>
<text text-anchor="middle" x="591.688" y="-264.3" font-family="Times,serif" font-size="14.00">User</text>
</g>
<!-- User&#45;&gt;LessonPlan -->
<g id="edge8" class="edge"><title>User&#45;&gt;LessonPlan</title>
<path fill="none" stroke="#83ae66" d="M568.641,-248.995C560.934,-243.207 552.147,-237.027 543.688,-232 510.784,-212.448 471.226,-194.401 441.903,-181.975"/>
<ellipse fill="none" stroke="#83ae66" cx="572.201" cy="-251.722" rx="4.00002" ry="4.00002"/>
<polygon fill="#83ae66" stroke="#83ae66" points="441.599,-181.848 434.115,-173.832 436.988,-179.915 432.376,-177.982 432.376,-177.982 432.376,-177.982 436.988,-179.915 430.637,-182.133 441.599,-181.848 441.599,-181.848"/>
</g>
<!-- User&#45;&gt;Photo -->
<g id="edge7" class="edge"><title>User&#45;&gt;Photo</title>
<path fill="none" stroke="#70d88c" d="M572.68,-246.323C557.334,-229.225 535.784,-205.216 520.079,-187.719"/>
<ellipse fill="none" stroke="#70d88c" cx="575.441" cy="-249.399" rx="4.00002" ry="4.00002"/>
<polygon fill="#70d88c" stroke="#70d88c" points="519.998,-187.628 516.667,-177.18 516.658,-183.907 513.318,-180.186 513.318,-180.186 513.318,-180.186 516.658,-183.907 509.969,-183.192 519.998,-187.628 519.998,-187.628"/>
</g>
<!-- User&#45;&gt;Resource -->
<g id="edge9" class="edge"><title>User&#45;&gt;Resource</title>
<path fill="none" stroke="#67b297" d="M591.688,-242.017C591.688,-226.986 591.688,-207.959 591.688,-192.577"/>
<ellipse fill="none" stroke="#67b297" cx="591.688" cy="-246.112" rx="4" ry="4"/>
<polygon fill="#67b297" stroke="#67b297" points="591.688,-192.131 596.188,-182.131 591.688,-187.131 591.688,-182.131 591.688,-182.131 591.688,-182.131 591.688,-187.131 587.188,-182.131 591.688,-192.131 591.688,-192.131"/>
</g>
<!-- Mailboxer::Message -->
<g id="node12" class="node"><title>Mailboxer::Message</title>
<ellipse fill="none" stroke="black" cx="735.688" cy="-164" rx="82.6045" ry="18"/>
<text text-anchor="middle" x="735.688" y="-159.8" font-family="Times,serif" font-size="14.00">Mailboxer::Message</text>
</g>
<!-- User&#45;&gt;Mailboxer::Message -->
<g id="edge10" class="edge"><title>User&#45;&gt;Mailboxer::Message</title>
<path fill="none" stroke="#b4fc19" d="M616.481,-249.852C640.886,-232.48 678.23,-205.898 704.607,-187.124"/>
<ellipse fill="none" stroke="#b4fc19" cx="612.893" cy="-252.406" rx="4.00002" ry="4.00002"/>
<polygon fill="#b4fc19" stroke="#b4fc19" points="704.608,-187.123 715.364,-184.99 708.681,-184.223 712.755,-181.324 712.755,-181.324 712.755,-181.324 708.681,-184.223 710.145,-177.658 704.608,-187.123 704.608,-187.123"/>
<text text-anchor="middle" x="711.126" y="-202.8" font-family="Times,serif" font-size="14.00">messages</text>
</g>
<!-- Mailboxer::Receipt -->
<g id="node13" class="node"><title>Mailboxer::Receipt</title>
<ellipse fill="none" stroke="black" cx="915.688" cy="-164" rx="78.7367" ry="18"/>
<text text-anchor="middle" x="915.688" y="-159.8" font-family="Times,serif" font-size="14.00">Mailboxer::Receipt</text>
</g>
<!-- User&#45;&gt;Mailboxer::Receipt -->
<g id="edge11" class="edge"><title>User&#45;&gt;Mailboxer::Receipt</title>
<path fill="none" stroke="#2176c2" d="M623.251,-257.515C678.559,-240.018 793.573,-203.632 861.721,-182.073"/>
<ellipse fill="none" stroke="#2176c2" cx="619.326" cy="-258.756" rx="4.00001" ry="4.00001"/>
<polygon fill="#2176c2" stroke="#2176c2" points="861.888,-182.02 872.78,-183.294 866.656,-180.512 871.423,-179.004 871.423,-179.004 871.423,-179.004 866.656,-180.512 870.065,-174.713 861.888,-182.02 861.888,-182.02"/>
<text text-anchor="middle" x="822.453" y="-202.8" font-family="Times,serif" font-size="14.00">receipts</text>
</g>
</g>
</svg>
