<?xml version="1.0" encoding="UTF-8" standalone="no"?>
<!DOCTYPE svg PUBLIC "-//W3C//DTD SVG 1.1//EN"
 "http://www.w3.org/Graphics/SVG/1.1/DTD/svg11.dtd">
<!-- Generated by graphviz version 2.38.0 (20140413.2041)
 -->
<!-- Title: models_diagram Pages: 1 -->
<svg width="779pt" height="313pt"
 viewBox="0.00 0.00 778.56 313.00" xmlns="http://www.w3.org/2000/svg" xmlns:xlink="http://www.w3.org/1999/xlink">
<g id="graph0" class="graph" transform="scale(1 1) rotate(0) translate(4 309)">
<title>models_diagram</title>
<polygon fill="white" stroke="none" points="-4,4 -4,-309 774.556,-309 774.556,4 -4,4"/>
<!-- _diagram_info -->
<g id="node1" class="node"><title>_diagram_info</title>
<text text-anchor="start" x="8" y="-290.6" font-family="Times,serif" font-size="13.00">Models diagram</text>
<text text-anchor="start" x="8" y="-277.6" font-family="Times,serif" font-size="13.00">Date: Mar 19 2015 &#45; 14:10</text>
<text text-anchor="start" x="8" y="-264.6" font-family="Times,serif" font-size="13.00">Migration version: 20150318073001</text>
<text text-anchor="start" x="8" y="-251.6" font-family="Times,serif" font-size="13.00">Generated by RailRoady 1.3.0</text>
<text text-anchor="start" x="8" y="-238.6" font-family="Times,serif" font-size="13.00">http://railroady.prestonlee.com</text>
</g>
<!-- Event -->
<g id="node2" class="node"><title>Event</title>
<ellipse fill="none" stroke="black" cx="255.688" cy="-268.5" rx="30.9706" ry="18"/>
<text text-anchor="middle" x="255.688" y="-264.3" font-family="Times,serif" font-size="14.00">Event</text>
</g>
<!-- Student -->
<g id="node6" class="node"><title>Student</title>
<ellipse fill="none" stroke="black" cx="255.688" cy="-164" rx="37.2594" ry="18"/>
<text text-anchor="middle" x="255.688" y="-159.8" font-family="Times,serif" font-size="14.00">Student</text>
</g>
<!-- Event&#45;&gt;Student -->
<g id="edge1" class="edge"><title>Event&#45;&gt;Student</title>
<path fill="none" stroke="#aebd84" d="M255.688,-242.017C255.688,-226.986 255.688,-207.959 255.688,-192.577"/>
<ellipse fill="none" stroke="#aebd84" cx="255.688" cy="-246.112" rx="4" ry="4"/>
<polygon fill="#aebd84" stroke="#aebd84" points="255.688,-192.131 260.188,-182.131 255.688,-187.131 255.688,-182.131 255.688,-182.131 255.688,-182.131 255.688,-187.131 251.188,-182.131 255.688,-192.131 255.688,-192.131"/>
</g>
<!-- Group -->
<g id="node3" class="node"><title>Group</title>
<ellipse fill="none" stroke="black" cx="238.688" cy="-18" rx="32.9081" ry="18"/>
<text text-anchor="middle" x="238.688" y="-13.8" font-family="Times,serif" font-size="14.00">Group</text>
</g>
<!-- Group&#45;&gt;Event -->
<g id="edge3" class="edge"><title>Group&#45;&gt;Event</title>
<path fill="none" stroke="#679aee" d="M227.958,-43.4007C215.306,-75.4735 197.453,-133.437 209.688,-182 215.282,-204.204 227.891,-226.918 238.496,-243.349"/>
<ellipse fill="none" stroke="#679aee" cx="229.533" cy="-39.5307" rx="4.00001" ry="4.00001"/>
<polygon fill="#679aee" stroke="#679aee" points="238.576,-243.468 240.38,-254.285 241.35,-247.628 244.124,-251.788 244.124,-251.788 244.124,-251.788 241.35,-247.628 247.868,-249.291 238.576,-243.468 238.576,-243.468"/>
</g>
<!-- Group&#45;&gt;Student -->
<g id="edge2" class="edge"><title>Group&#45;&gt;Student</title>
<path fill="none" stroke="#ce505e" d="M241.662,-44.1954C244.695,-69.8808 249.382,-109.591 252.492,-135.933"/>
<ellipse fill="none" stroke="#ce505e" cx="241.171" cy="-40.0344" rx="4.00001" ry="4.00001"/>
<polygon fill="#ce505e" stroke="#ce505e" points="252.498,-135.985 249.202,-146.443 253.085,-140.95 253.671,-145.916 253.671,-145.916 253.671,-145.916 253.085,-140.95 258.14,-145.388 252.498,-135.985 252.498,-135.985"/>
</g>
<!-- Inquery -->
<g id="node4" class="node"><title>Inquery</title>
<ellipse fill="none" stroke="black" cx="385.688" cy="-268.5" rx="37.7179" ry="18"/>
<text text-anchor="middle" x="385.688" y="-264.3" font-family="Times,serif" font-size="14.00">Inquery</text>
</g>
<!-- Photo -->
<g id="node5" class="node"><title>Photo</title>
<ellipse fill="none" stroke="black" cx="379.688" cy="-164" rx="30.9967" ry="18"/>
<text text-anchor="middle" x="379.688" y="-159.8" font-family="Times,serif" font-size="14.00">Photo</text>
</g>
<!-- Teacher -->
<g id="node7" class="node"><title>Teacher</title>
<ellipse fill="none" stroke="black" cx="304.688" cy="-91" rx="37.9172" ry="18"/>
<text text-anchor="middle" x="304.688" y="-86.8" font-family="Times,serif" font-size="14.00">Teacher</text>
</g>
<!-- Student&#45;&gt;Teacher -->
<g id="edge4" class="edge"><title>Student&#45;&gt;Teacher</title>
<path fill="none" stroke="#76f2e7" d="M272.772,-138.245C277.572,-131.29 282.791,-123.728 287.591,-116.773"/>
<polygon fill="#76f2e7" stroke="#76f2e7" points="272.733,-138.302 263.349,-143.977 269.893,-142.418 267.052,-146.533 267.052,-146.533 267.052,-146.533 269.893,-142.418 270.756,-149.089 272.733,-138.302 272.733,-138.302"/>
<polygon fill="#76f2e7" stroke="#76f2e7" points="287.705,-116.608 297.088,-110.934 290.545,-112.493 293.385,-108.378 293.385,-108.378 293.385,-108.378 290.545,-112.493 289.681,-105.822 287.705,-116.608 287.705,-116.608"/>
</g>
<!-- Teacher&#45;&gt;Event -->
<g id="edge6" class="edge"><title>Teacher&#45;&gt;Event</title>
<path fill="none" stroke="#6ab92c" d="M306.908,-117.643C307.751,-135.905 307.391,-160.856 301.688,-182 295.725,-204.107 283.138,-226.828 272.635,-243.285"/>
<ellipse fill="none" stroke="#6ab92c" cx="306.65" cy="-113.255" rx="4" ry="4"/>
<polygon fill="#6ab92c" stroke="#6ab92c" points="272.568,-243.387 263.312,-249.267 269.819,-247.564 267.071,-251.741 267.071,-251.741 267.071,-251.741 269.819,-247.564 270.83,-254.214 272.568,-243.387 272.568,-243.387"/>
</g>
<!-- Teacher&#45;&gt;Group -->
<g id="edge5" class="edge"><title>Teacher&#45;&gt;Group</title>
<path fill="none" stroke="#4fa3f0" d="M284.373,-68.1467C276.681,-59.8717 267.904,-50.4299 260.113,-42.0484"/>
<ellipse fill="none" stroke="#4fa3f0" cx="287.317" cy="-71.3131" rx="4.00002" ry="4.00002"/>
<polygon fill="#4fa3f0" stroke="#4fa3f0" points="260.103,-42.0374 256.59,-31.6493 256.699,-38.3753 253.294,-34.7132 253.294,-34.7132 253.294,-34.7132 256.699,-38.3753 249.998,-37.777 260.103,-42.0374 260.103,-42.0374"/>
</g>
<!-- User -->
<g id="node8" class="node"><title>User</title>
<ellipse fill="none" stroke="black" cx="511.688" cy="-268.5" rx="27" ry="18"/>
<text text-anchor="middle" x="511.688" y="-264.3" font-family="Times,serif" font-size="14.00">User</text>
</g>
<!-- User&#45;&gt;Photo -->
<g id="edge7" class="edge"><title>User&#45;&gt;Photo</title>
<path fill="none" stroke="#428522" d="M488.12,-249.199C464.861,-231.138 429.397,-203.6 405.416,-184.978"/>
<ellipse fill="none" stroke="#428522" cx="491.542" cy="-251.856" rx="4.00002" ry="4.00002"/>
<polygon fill="#428522" stroke="#428522" points="405.35,-184.927 400.211,-175.239 401.4,-181.86 397.451,-178.794 397.451,-178.794 397.451,-178.794 401.4,-181.86 394.691,-182.348 405.35,-184.927 405.35,-184.927"/>
</g>
<!-- Mailboxer::Message -->
<g id="node9" class="node"><title>Mailboxer::Message</title>
<ellipse fill="none" stroke="black" cx="511.688" cy="-164" rx="82.6045" ry="18"/>
<text text-anchor="middle" x="511.688" y="-159.8" font-family="Times,serif" font-size="14.00">Mailboxer::Message</text>
</g>
<!-- User&#45;&gt;Mailboxer::Message -->
<g id="edge8" class="edge"><title>User&#45;&gt;Mailboxer::Message</title>
<path fill="none" stroke="#a74b73" d="M511.688,-242.017C511.688,-226.986 511.688,-207.959 511.688,-192.577"/>
<ellipse fill="none" stroke="#a74b73" cx="511.688" cy="-246.112" rx="4" ry="4"/>
<polygon fill="#a74b73" stroke="#a74b73" points="511.688,-192.131 516.188,-182.131 511.688,-187.131 511.688,-182.131 511.688,-182.131 511.688,-182.131 511.688,-187.131 507.188,-182.131 511.688,-192.131 511.688,-192.131"/>
<text text-anchor="middle" x="538.126" y="-202.8" font-family="Times,serif" font-size="14.00">messages</text>
</g>
<!-- Mailboxer::Receipt -->
<g id="node10" class="node"><title>Mailboxer::Receipt</title>
<ellipse fill="none" stroke="black" cx="691.688" cy="-164" rx="78.7367" ry="18"/>
<text text-anchor="middle" x="691.688" y="-159.8" font-family="Times,serif" font-size="14.00">Mailboxer::Receipt</text>
</g>
<!-- User&#45;&gt;Mailboxer::Receipt -->
<g id="edge9" class="edge"><title>User&#45;&gt;Mailboxer::Receipt</title>
<path fill="none" stroke="#596c44" d="M538.858,-252.028C569.773,-234.423 620.428,-205.578 654.874,-185.964"/>
<ellipse fill="none" stroke="#596c44" cx="535.115" cy="-254.16" rx="4.00002" ry="4.00002"/>
<polygon fill="#596c44" stroke="#596c44" points="655.004,-185.889 665.921,-184.851 659.349,-183.415 663.694,-180.941 663.694,-180.941 663.694,-180.941 659.349,-183.415 661.467,-177.03 655.004,-185.889 655.004,-185.889"/>
<text text-anchor="middle" x="649.453" y="-202.8" font-family="Times,serif" font-size="14.00">receipts</text>
</g>
</g>
</svg>
