<?xml version="1.0" encoding="UTF-8" standalone="no"?>
<!DOCTYPE svg PUBLIC "-//W3C//DTD SVG 1.1//EN"
 "http://www.w3.org/Graphics/SVG/1.1/DTD/svg11.dtd">
<!-- Generated by graphviz version 2.38.0 (20140413.2041)
 -->
<!-- Title: models_diagram Pages: 1 -->
<svg width="515pt" height="297pt"
 viewBox="0.00 0.00 515.44 297.00" xmlns="http://www.w3.org/2000/svg" xmlns:xlink="http://www.w3.org/1999/xlink">
<g id="graph0" class="graph" transform="scale(1 1) rotate(0) translate(4 293)">
<title>models_diagram</title>
<polygon fill="white" stroke="none" points="-4,4 -4,-293 511.435,-293 511.435,4 -4,4"/>
<!-- _diagram_info -->
<g id="node1" class="node"><title>_diagram_info</title>
<text text-anchor="start" x="8" y="-274.6" font-family="Times,serif" font-size="13.00">Models diagram</text>
<text text-anchor="start" x="8" y="-261.6" font-family="Times,serif" font-size="13.00">Date: Feb 24 2015 &#45; 18:03</text>
<text text-anchor="start" x="8" y="-248.6" font-family="Times,serif" font-size="13.00">Migration version: 20150223064202</text>
<text text-anchor="start" x="8" y="-235.6" font-family="Times,serif" font-size="13.00">Generated by RailRoady 1.3.0</text>
<text text-anchor="start" x="8" y="-222.6" font-family="Times,serif" font-size="13.00">http://railroady.prestonlee.com</text>
</g>
<!-- Appointment -->
<g id="node2" class="node"><title>Appointment</title>
<ellipse fill="none" stroke="black" cx="281.688" cy="-252.5" rx="56.5545" ry="18"/>
<text text-anchor="middle" x="281.688" y="-248.3" font-family="Times,serif" font-size="14.00">Appointment</text>
</g>
<!-- Student -->
<g id="node6" class="node"><title>Student</title>
<ellipse fill="none" stroke="black" cx="216.688" cy="-162" rx="37.2594" ry="18"/>
<text text-anchor="middle" x="216.688" y="-157.8" font-family="Times,serif" font-size="14.00">Student</text>
</g>
<!-- Appointment&#45;&gt;Student -->
<g id="edge1" class="edge"><title>Appointment&#45;&gt;Student</title>
<path fill="none" stroke="#6b2533" d="M264.521,-228.127C255.336,-215.621 244.031,-200.229 234.718,-187.549"/>
<ellipse fill="none" stroke="#6b2533" cx="267.094" cy="-231.63" rx="4.00002" ry="4.00002"/>
<polygon fill="#6b2533" stroke="#6b2533" points="234.559,-187.332 232.266,-176.609 231.599,-183.302 228.639,-179.273 228.639,-179.273 228.639,-179.273 231.599,-183.302 225.012,-181.936 234.559,-187.332 234.559,-187.332"/>
</g>
<!-- Group -->
<g id="node3" class="node"><title>Group</title>
<ellipse fill="none" stroke="black" cx="267.688" cy="-18" rx="32.9081" ry="18"/>
<text text-anchor="middle" x="267.688" y="-13.8" font-family="Times,serif" font-size="14.00">Group</text>
</g>
<!-- Group&#45;&gt;Appointment -->
<g id="edge3" class="edge"><title>Group&#45;&gt;Appointment</title>
<path fill="none" stroke="#e1bc64" d="M291.448,-38.731C300.548,-47.8046 309.891,-59.3612 314.688,-72 334.522,-124.26 311.349,-189.735 295.024,-225.394"/>
<ellipse fill="none" stroke="#e1bc64" cx="288.455" cy="-35.893" rx="4.00002" ry="4.00002"/>
<polygon fill="#e1bc64" stroke="#e1bc64" points="294.93,-225.591 286.577,-232.696 292.786,-230.108 290.642,-234.625 290.642,-234.625 290.642,-234.625 292.786,-230.108 294.707,-236.555 294.93,-225.591 294.93,-225.591"/>
</g>
<!-- Group&#45;&gt;Student -->
<g id="edge2" class="edge"><title>Group&#45;&gt;Student</title>
<path fill="none" stroke="#f67f89" d="M244.204,-38.8393C235.15,-47.9311 225.767,-59.4721 220.688,-72 212.758,-91.5587 212.145,-115.553 213.302,-133.697"/>
<ellipse fill="none" stroke="#f67f89" cx="247.169" cy="-35.9995" rx="4.00002" ry="4.00002"/>
<polygon fill="#f67f89" stroke="#f67f89" points="213.321,-133.923 209.69,-144.27 213.747,-138.905 214.173,-143.886 214.173,-143.886 214.173,-143.886 213.747,-138.905 218.657,-143.503 213.321,-133.923 213.321,-133.923"/>
</g>
<!-- Inquery -->
<g id="node4" class="node"><title>Inquery</title>
<ellipse fill="none" stroke="black" cx="393.688" cy="-252.5" rx="37.7179" ry="18"/>
<text text-anchor="middle" x="393.688" y="-248.3" font-family="Times,serif" font-size="14.00">Inquery</text>
</g>
<!-- Photo -->
<g id="node5" class="node"><title>Photo</title>
<ellipse fill="none" stroke="black" cx="476.688" cy="-162" rx="30.9967" ry="18"/>
<text text-anchor="middle" x="476.688" y="-157.8" font-family="Times,serif" font-size="14.00">Photo</text>
</g>
<!-- Teacher -->
<g id="node7" class="node"><title>Teacher</title>
<ellipse fill="none" stroke="black" cx="267.688" cy="-90" rx="37.9172" ry="18"/>
<text text-anchor="middle" x="267.688" y="-85.8" font-family="Times,serif" font-size="14.00">Teacher</text>
</g>
<!-- Student&#45;&gt;Teacher -->
<g id="edge4" class="edge"><title>Student&#45;&gt;Teacher</title>
<path fill="none" stroke="#0a81d1" d="M234.47,-136.593C239.465,-129.737 244.897,-122.281 249.893,-115.424"/>
<polygon fill="#0a81d1" stroke="#0a81d1" points="234.405,-136.682 224.879,-142.115 231.461,-140.723 228.516,-144.765 228.516,-144.765 228.516,-144.765 231.461,-140.723 232.153,-147.415 234.405,-136.682 234.405,-136.682"/>
<polygon fill="#0a81d1" stroke="#0a81d1" points="250.035,-115.23 259.56,-109.797 252.979,-111.188 255.923,-107.147 255.923,-107.147 255.923,-107.147 252.979,-111.188 252.286,-104.497 250.035,-115.23 250.035,-115.23"/>
</g>
<!-- Teacher&#45;&gt;Appointment -->
<g id="edge6" class="edge"><title>Teacher&#45;&gt;Appointment</title>
<path fill="none" stroke="#e8ad63" d="M269.88,-116.136C272.435,-145.423 276.642,-193.653 279.284,-223.94"/>
<ellipse fill="none" stroke="#e8ad63" cx="269.523" cy="-112.038" rx="4" ry="4"/>
<polygon fill="#e8ad63" stroke="#e8ad63" points="279.32,-224.362 275.707,-234.715 279.755,-229.343 280.189,-234.324 280.189,-234.324 280.189,-234.324 279.755,-229.343 284.672,-233.933 279.32,-224.362 279.32,-224.362"/>
</g>
<!-- Teacher&#45;&gt;Group -->
<g id="edge5" class="edge"><title>Teacher&#45;&gt;Group</title>
<path fill="none" stroke="#2e2420" d="M267.688,-63.6398C267.688,-58.0629 267.688,-52.1319 267.688,-46.4761"/>
<ellipse fill="none" stroke="#2e2420" cx="267.688" cy="-67.6966" rx="4" ry="4"/>
<polygon fill="#2e2420" stroke="#2e2420" points="267.688,-46.1043 272.188,-36.1043 267.688,-41.1043 267.688,-36.1043 267.688,-36.1043 267.688,-36.1043 267.688,-41.1043 263.188,-36.1044 267.688,-46.1043 267.688,-46.1043"/>
</g>
<!-- User -->
<g id="node8" class="node"><title>User</title>
<ellipse fill="none" stroke="black" cx="476.688" cy="-252.5" rx="27" ry="18"/>
<text text-anchor="middle" x="476.688" y="-248.3" font-family="Times,serif" font-size="14.00">User</text>
</g>
<!-- User&#45;&gt;Photo -->
<g id="edge7" class="edge"><title>User&#45;&gt;Photo</title>
<path fill="none" stroke="#a48980" d="M476.688,-226.189C476.688,-214.971 476.688,-201.752 476.688,-190.311"/>
<ellipse fill="none" stroke="#a48980" cx="476.688" cy="-230.436" rx="4" ry="4"/>
<polygon fill="#a48980" stroke="#a48980" points="476.688,-190.011 481.188,-180.011 476.688,-185.011 476.688,-180.011 476.688,-180.011 476.688,-180.011 476.688,-185.011 472.188,-180.011 476.688,-190.011 476.688,-190.011"/>
</g>
</g>
</svg>
