<?xml version="1.0" encoding="UTF-8" standalone="no"?>
<!DOCTYPE svg PUBLIC "-//W3C//DTD SVG 1.1//EN"
 "http://www.w3.org/Graphics/SVG/1.1/DTD/svg11.dtd">
<!-- Generated by graphviz version 2.38.0 (20140413.2041)
 -->
<!-- Title: models_diagram Pages: 1 -->
<svg width="972pt" height="844pt"
 viewBox="0.00 0.00 971.56 844.00" xmlns="http://www.w3.org/2000/svg" xmlns:xlink="http://www.w3.org/1999/xlink">
<g id="graph0" class="graph" transform="scale(1 1) rotate(0) translate(4 840)">
<title>models_diagram</title>
<polygon fill="white" stroke="none" points="-4,4 -4,-840 967.556,-840 967.556,4 -4,4"/>
<!-- _diagram_info -->
<g id="node1" class="node"><title>_diagram_info</title>
<text text-anchor="start" x="8" y="-737.6" font-family="Times,serif" font-size="13.00">Models diagram</text>
<text text-anchor="start" x="8" y="-724.6" font-family="Times,serif" font-size="13.00">Date: Mar 19 2015 &#45; 14:10</text>
<text text-anchor="start" x="8" y="-711.6" font-family="Times,serif" font-size="13.00">Migration version: 20150318073001</text>
<text text-anchor="start" x="8" y="-698.6" font-family="Times,serif" font-size="13.00">Generated by RailRoady 1.3.0</text>
<text text-anchor="start" x="8" y="-685.6" font-family="Times,serif" font-size="13.00">http://railroady.prestonlee.com</text>
</g>
<!-- Event -->
<g id="node2" class="node"><title>Event</title>
<path fill="none" stroke="black" d="M237.182,-630.5C237.182,-630.5 346.193,-630.5 346.193,-630.5 352.193,-630.5 358.193,-636.5 358.193,-642.5 358.193,-642.5 358.193,-788.5 358.193,-788.5 358.193,-794.5 352.193,-800.5 346.193,-800.5 346.193,-800.5 237.182,-800.5 237.182,-800.5 231.182,-800.5 225.182,-794.5 225.182,-788.5 225.182,-788.5 225.182,-642.5 225.182,-642.5 225.182,-636.5 231.182,-630.5 237.182,-630.5"/>
<text text-anchor="middle" x="291.688" y="-785.3" font-family="Times,serif" font-size="14.00">Event</text>
<polyline fill="none" stroke="black" points="225.182,-778.5 358.193,-778.5 "/>
<text text-anchor="start" x="233.182" y="-763.3" font-family="Times,serif" font-size="14.00">id :integer</text>
<text text-anchor="start" x="233.182" y="-749.3" font-family="Times,serif" font-size="14.00">title :string</text>
<text text-anchor="start" x="233.182" y="-735.3" font-family="Times,serif" font-size="14.00">description :text</text>
<text text-anchor="start" x="233.182" y="-721.3" font-family="Times,serif" font-size="14.00">start_time :datetime</text>
<text text-anchor="start" x="233.182" y="-707.3" font-family="Times,serif" font-size="14.00">end_time :datetime</text>
<text text-anchor="start" x="233.182" y="-693.3" font-family="Times,serif" font-size="14.00">teacher_id :integer</text>
<text text-anchor="start" x="233.182" y="-679.3" font-family="Times,serif" font-size="14.00">group_id :integer</text>
<text text-anchor="start" x="233.182" y="-665.3" font-family="Times,serif" font-size="14.00">ta :string</text>
<text text-anchor="start" x="233.182" y="-651.3" font-family="Times,serif" font-size="14.00">created_at :datetime</text>
<text text-anchor="start" x="233.182" y="-637.3" font-family="Times,serif" font-size="14.00">updated_at :datetime</text>
</g>
<!-- Student -->
<g id="node6" class="node"><title>Student</title>
<path fill="none" stroke="black" d="M221.757,-346.5C221.757,-346.5 361.618,-346.5 361.618,-346.5 367.618,-346.5 373.618,-352.5 373.618,-358.5 373.618,-358.5 373.618,-532.5 373.618,-532.5 373.618,-538.5 367.618,-544.5 361.618,-544.5 361.618,-544.5 221.757,-544.5 221.757,-544.5 215.757,-544.5 209.757,-538.5 209.757,-532.5 209.757,-532.5 209.757,-358.5 209.757,-358.5 209.757,-352.5 215.757,-346.5 221.757,-346.5"/>
<text text-anchor="middle" x="291.688" y="-529.3" font-family="Times,serif" font-size="14.00">Student</text>
<polyline fill="none" stroke="black" points="209.757,-522.5 373.618,-522.5 "/>
<text text-anchor="start" x="217.757" y="-507.3" font-family="Times,serif" font-size="14.00">id :integer</text>
<text text-anchor="start" x="217.757" y="-493.3" font-family="Times,serif" font-size="14.00">ename :string</text>
<text text-anchor="start" x="217.757" y="-479.3" font-family="Times,serif" font-size="14.00">cname :string</text>
<text text-anchor="start" x="217.757" y="-465.3" font-family="Times,serif" font-size="14.00">emergency_contact :string</text>
<text text-anchor="start" x="217.757" y="-451.3" font-family="Times,serif" font-size="14.00">email :string</text>
<text text-anchor="start" x="217.757" y="-437.3" font-family="Times,serif" font-size="14.00">address :string</text>
<text text-anchor="start" x="217.757" y="-423.3" font-family="Times,serif" font-size="14.00">dob :date</text>
<text text-anchor="start" x="217.757" y="-409.3" font-family="Times,serif" font-size="14.00">contract_start :date</text>
<text text-anchor="start" x="217.757" y="-395.3" font-family="Times,serif" font-size="14.00">contract_length :integer</text>
<text text-anchor="start" x="217.757" y="-381.3" font-family="Times,serif" font-size="14.00">group_id :integer</text>
<text text-anchor="start" x="217.757" y="-367.3" font-family="Times,serif" font-size="14.00">created_at :datetime</text>
<text text-anchor="start" x="217.757" y="-353.3" font-family="Times,serif" font-size="14.00">updated_at :datetime</text>
</g>
<!-- Event&#45;&gt;Student -->
<g id="edge1" class="edge"><title>Event&#45;&gt;Student</title>
<path fill="none" stroke="#5149ab" d="M291.688,-622.392C291.688,-600.683 291.688,-577.343 291.688,-554.987"/>
<ellipse fill="none" stroke="#5149ab" cx="291.688" cy="-626.438" rx="4" ry="4"/>
<polygon fill="#5149ab" stroke="#5149ab" points="291.688,-554.794 296.188,-544.794 291.688,-549.794 291.688,-544.794 291.688,-544.794 291.688,-544.794 291.688,-549.794 287.188,-544.794 291.688,-554.794 291.688,-554.794"/>
</g>
<!-- Group -->
<g id="node3" class="node"><title>Group</title>
<path fill="none" stroke="black" d="M194.182,-0.5C194.182,-0.5 303.193,-0.5 303.193,-0.5 309.193,-0.5 315.193,-6.5 315.193,-12.5 315.193,-12.5 315.193,-130.5 315.193,-130.5 315.193,-136.5 309.193,-142.5 303.193,-142.5 303.193,-142.5 194.182,-142.5 194.182,-142.5 188.182,-142.5 182.182,-136.5 182.182,-130.5 182.182,-130.5 182.182,-12.5 182.182,-12.5 182.182,-6.5 188.182,-0.5 194.182,-0.5"/>
<text text-anchor="middle" x="248.688" y="-127.3" font-family="Times,serif" font-size="14.00">Group</text>
<polyline fill="none" stroke="black" points="182.182,-120.5 315.193,-120.5 "/>
<text text-anchor="start" x="190.182" y="-105.3" font-family="Times,serif" font-size="14.00">id :integer</text>
<text text-anchor="start" x="190.182" y="-91.3" font-family="Times,serif" font-size="14.00">school :string</text>
<text text-anchor="start" x="190.182" y="-77.3" font-family="Times,serif" font-size="14.00">name :string</text>
<text text-anchor="start" x="190.182" y="-63.3" font-family="Times,serif" font-size="14.00">teacher_id :integer</text>
<text text-anchor="start" x="190.182" y="-49.3" font-family="Times,serif" font-size="14.00">student_id :integer</text>
<text text-anchor="start" x="190.182" y="-35.3" font-family="Times,serif" font-size="14.00">pa :string</text>
<text text-anchor="start" x="190.182" y="-21.3" font-family="Times,serif" font-size="14.00">created_at :datetime</text>
<text text-anchor="start" x="190.182" y="-7.3" font-family="Times,serif" font-size="14.00">updated_at :datetime</text>
</g>
<!-- Group&#45;&gt;Event -->
<g id="edge3" class="edge"><title>Group&#45;&gt;Event</title>
<path fill="none" stroke="#5bcd37" d="M224.49,-150.667C198.877,-245.358 166.51,-409.084 200.688,-545 207.224,-570.993 218.605,-597.346 231.15,-621.279"/>
<ellipse fill="none" stroke="#5bcd37" cx="225.576" cy="-146.705" rx="4.00001" ry="4.00001"/>
<polygon fill="#5bcd37" stroke="#5bcd37" points="231.277,-621.516 232.042,-632.455 233.642,-625.922 236.007,-630.327 236.007,-630.327 236.007,-630.327 233.642,-625.922 239.972,-628.198 231.277,-621.516 231.277,-621.516"/>
</g>
<!-- Group&#45;&gt;Student -->
<g id="edge2" class="edge"><title>Group&#45;&gt;Student</title>
<path fill="none" stroke="#4caba5" d="M253.095,-150.7C256.164,-196.869 260.931,-256.391 267.688,-309 268.828,-317.875 270.148,-327.053 271.571,-336.256"/>
<ellipse fill="none" stroke="#4caba5" cx="252.822" cy="-146.524" rx="4" ry="4"/>
<polygon fill="#4caba5" stroke="#4caba5" points="271.587,-336.362 268.707,-346.943 272.369,-341.3 273.152,-346.239 273.152,-346.239 273.152,-346.239 272.369,-341.3 277.596,-345.535 271.587,-336.362 271.587,-336.362"/>
</g>
<!-- Inquery -->
<g id="node4" class="node"><title>Inquery</title>
<path fill="none" stroke="black" d="M426.182,-651.5C426.182,-651.5 535.193,-651.5 535.193,-651.5 541.193,-651.5 547.193,-657.5 547.193,-663.5 547.193,-663.5 547.193,-767.5 547.193,-767.5 547.193,-773.5 541.193,-779.5 535.193,-779.5 535.193,-779.5 426.182,-779.5 426.182,-779.5 420.182,-779.5 414.182,-773.5 414.182,-767.5 414.182,-767.5 414.182,-663.5 414.182,-663.5 414.182,-657.5 420.182,-651.5 426.182,-651.5"/>
<text text-anchor="middle" x="480.688" y="-764.3" font-family="Times,serif" font-size="14.00">Inquery</text>
<polyline fill="none" stroke="black" points="414.182,-757.5 547.193,-757.5 "/>
<text text-anchor="start" x="422.182" y="-742.3" font-family="Times,serif" font-size="14.00">id :integer</text>
<text text-anchor="start" x="422.182" y="-728.3" font-family="Times,serif" font-size="14.00">name :string</text>
<text text-anchor="start" x="422.182" y="-714.3" font-family="Times,serif" font-size="14.00">email :string</text>
<text text-anchor="start" x="422.182" y="-700.3" font-family="Times,serif" font-size="14.00">phone :string</text>
<text text-anchor="start" x="422.182" y="-686.3" font-family="Times,serif" font-size="14.00">message :text</text>
<text text-anchor="start" x="422.182" y="-672.3" font-family="Times,serif" font-size="14.00">created_at :datetime</text>
<text text-anchor="start" x="422.182" y="-658.3" font-family="Times,serif" font-size="14.00">updated_at :datetime</text>
</g>
<!-- Photo -->
<g id="node5" class="node"><title>Photo</title>
<path fill="none" stroke="black" d="M441.579,-367.5C441.579,-367.5 591.797,-367.5 591.797,-367.5 597.797,-367.5 603.797,-373.5 603.797,-379.5 603.797,-379.5 603.797,-511.5 603.797,-511.5 603.797,-517.5 597.797,-523.5 591.797,-523.5 591.797,-523.5 441.579,-523.5 441.579,-523.5 435.579,-523.5 429.579,-517.5 429.579,-511.5 429.579,-511.5 429.579,-379.5 429.579,-379.5 429.579,-373.5 435.579,-367.5 441.579,-367.5"/>
<text text-anchor="middle" x="516.688" y="-508.3" font-family="Times,serif" font-size="14.00">Photo</text>
<polyline fill="none" stroke="black" points="429.579,-501.5 603.797,-501.5 "/>
<text text-anchor="start" x="437.579" y="-486.3" font-family="Times,serif" font-size="14.00">id :integer</text>
<text text-anchor="start" x="437.579" y="-472.3" font-family="Times,serif" font-size="14.00">description :string</text>
<text text-anchor="start" x="437.579" y="-458.3" font-family="Times,serif" font-size="14.00">created_at :datetime</text>
<text text-anchor="start" x="437.579" y="-444.3" font-family="Times,serif" font-size="14.00">updated_at :datetime</text>
<text text-anchor="start" x="437.579" y="-430.3" font-family="Times,serif" font-size="14.00">user_id :integer</text>
<text text-anchor="start" x="437.579" y="-416.3" font-family="Times,serif" font-size="14.00">image_file_name :string</text>
<text text-anchor="start" x="437.579" y="-402.3" font-family="Times,serif" font-size="14.00">image_content_type :string</text>
<text text-anchor="start" x="437.579" y="-388.3" font-family="Times,serif" font-size="14.00">image_file_size :integer</text>
<text text-anchor="start" x="437.579" y="-374.3" font-family="Times,serif" font-size="14.00">image_updated_at :datetime</text>
</g>
<!-- Teacher -->
<g id="node7" class="node"><title>Teacher</title>
<path fill="none" stroke="black" d="M289.182,-180.5C289.182,-180.5 398.193,-180.5 398.193,-180.5 404.193,-180.5 410.193,-186.5 410.193,-192.5 410.193,-192.5 410.193,-296.5 410.193,-296.5 410.193,-302.5 404.193,-308.5 398.193,-308.5 398.193,-308.5 289.182,-308.5 289.182,-308.5 283.182,-308.5 277.182,-302.5 277.182,-296.5 277.182,-296.5 277.182,-192.5 277.182,-192.5 277.182,-186.5 283.182,-180.5 289.182,-180.5"/>
<text text-anchor="middle" x="343.688" y="-293.3" font-family="Times,serif" font-size="14.00">Teacher</text>
<polyline fill="none" stroke="black" points="277.182,-286.5 410.193,-286.5 "/>
<text text-anchor="start" x="285.182" y="-271.3" font-family="Times,serif" font-size="14.00">id :integer</text>
<text text-anchor="start" x="285.182" y="-257.3" font-family="Times,serif" font-size="14.00">ename :string</text>
<text text-anchor="start" x="285.182" y="-243.3" font-family="Times,serif" font-size="14.00">cname :string</text>
<text text-anchor="start" x="285.182" y="-229.3" font-family="Times,serif" font-size="14.00">dob :date</text>
<text text-anchor="start" x="285.182" y="-215.3" font-family="Times,serif" font-size="14.00">group_id :integer</text>
<text text-anchor="start" x="285.182" y="-201.3" font-family="Times,serif" font-size="14.00">created_at :datetime</text>
<text text-anchor="start" x="285.182" y="-187.3" font-family="Times,serif" font-size="14.00">updated_at :datetime</text>
</g>
<!-- Student&#45;&gt;Teacher -->
<g id="edge4" class="edge"><title>Student&#45;&gt;Teacher</title>
<path fill="none" stroke="#52244b" d="M319.902,-336.525C321.494,-330.434 323.075,-324.385 324.62,-318.471"/>
<polygon fill="#52244b" stroke="#52244b" points="319.835,-336.782 312.953,-345.32 318.571,-341.62 317.307,-346.457 317.307,-346.457 317.307,-346.457 318.571,-341.62 321.661,-347.595 319.835,-336.782 319.835,-336.782"/>
<polygon fill="#52244b" stroke="#52244b" points="324.655,-318.337 331.537,-309.8 325.919,-313.499 327.183,-308.662 327.183,-308.662 327.183,-308.662 325.919,-313.499 322.829,-307.524 324.655,-318.337 324.655,-318.337"/>
</g>
<!-- Teacher&#45;&gt;Event -->
<g id="edge6" class="edge"><title>Teacher&#45;&gt;Event</title>
<path fill="none" stroke="#504fa9" d="M374.874,-316.324C378.094,-326.131 380.853,-336.202 382.688,-346 398.964,-432.934 404.257,-459.226 382.688,-545 376.151,-570.993 364.771,-597.346 352.226,-621.279"/>
<ellipse fill="none" stroke="#504fa9" cx="373.499" cy="-312.31" rx="4.00001" ry="4.00001"/>
<polygon fill="#504fa9" stroke="#504fa9" points="352.098,-621.516 343.404,-628.198 349.733,-625.922 347.368,-630.327 347.368,-630.327 347.368,-630.327 349.733,-625.922 351.333,-632.455 352.098,-621.516 352.098,-621.516"/>
</g>
<!-- Teacher&#45;&gt;Group -->
<g id="edge5" class="edge"><title>Teacher&#45;&gt;Group</title>
<path fill="none" stroke="#7a2615" d="M304.551,-173.053C300.625,-165.988 296.621,-158.78 292.65,-151.632"/>
<ellipse fill="none" stroke="#7a2615" cx="306.641" cy="-176.815" rx="4.00002" ry="4.00002"/>
<polygon fill="#7a2615" stroke="#7a2615" points="292.503,-151.367 291.58,-140.44 290.075,-146.996 287.646,-142.626 287.646,-142.626 287.646,-142.626 290.075,-146.996 283.713,-144.811 292.503,-151.367 292.503,-151.367"/>
</g>
<!-- User -->
<g id="node8" class="node"><title>User</title>
<path fill="none" stroke="black" d="M614.41,-595.5C614.41,-595.5 794.966,-595.5 794.966,-595.5 800.966,-595.5 806.966,-601.5 806.966,-607.5 806.966,-607.5 806.966,-823.5 806.966,-823.5 806.966,-829.5 800.966,-835.5 794.966,-835.5 794.966,-835.5 614.41,-835.5 614.41,-835.5 608.41,-835.5 602.41,-829.5 602.41,-823.5 602.41,-823.5 602.41,-607.5 602.41,-607.5 602.41,-601.5 608.41,-595.5 614.41,-595.5"/>
<text text-anchor="middle" x="704.688" y="-820.3" font-family="Times,serif" font-size="14.00">User</text>
<polyline fill="none" stroke="black" points="602.41,-813.5 806.966,-813.5 "/>
<text text-anchor="start" x="610.41" y="-798.3" font-family="Times,serif" font-size="14.00">id :integer</text>
<text text-anchor="start" x="610.41" y="-784.3" font-family="Times,serif" font-size="14.00">name :string</text>
<text text-anchor="start" x="610.41" y="-770.3" font-family="Times,serif" font-size="14.00">email :string</text>
<text text-anchor="start" x="610.41" y="-756.3" font-family="Times,serif" font-size="14.00">encrypted_password :string</text>
<text text-anchor="start" x="610.41" y="-742.3" font-family="Times,serif" font-size="14.00">reset_password_token :string</text>
<text text-anchor="start" x="610.41" y="-728.3" font-family="Times,serif" font-size="14.00">reset_password_sent_at :datetime</text>
<text text-anchor="start" x="610.41" y="-714.3" font-family="Times,serif" font-size="14.00">remember_created_at :datetime</text>
<text text-anchor="start" x="610.41" y="-700.3" font-family="Times,serif" font-size="14.00">sign_in_count :integer</text>
<text text-anchor="start" x="610.41" y="-686.3" font-family="Times,serif" font-size="14.00">current_sign_in_at :datetime</text>
<text text-anchor="start" x="610.41" y="-672.3" font-family="Times,serif" font-size="14.00">last_sign_in_at :datetime</text>
<text text-anchor="start" x="610.41" y="-658.3" font-family="Times,serif" font-size="14.00">current_sign_in_ip :string</text>
<text text-anchor="start" x="610.41" y="-644.3" font-family="Times,serif" font-size="14.00">last_sign_in_ip :string</text>
<text text-anchor="start" x="610.41" y="-630.3" font-family="Times,serif" font-size="14.00">created_at :datetime</text>
<text text-anchor="start" x="610.41" y="-616.3" font-family="Times,serif" font-size="14.00">updated_at :datetime</text>
<text text-anchor="start" x="610.41" y="-602.3" font-family="Times,serif" font-size="14.00">admin :boolean</text>
</g>
<!-- User&#45;&gt;Photo -->
<g id="edge7" class="edge"><title>User&#45;&gt;Photo</title>
<path fill="none" stroke="#bd4fdc" d="M616.525,-588.821C603.005,-569.548 589.324,-550.046 576.606,-531.916"/>
<ellipse fill="none" stroke="#bd4fdc" cx="618.836" cy="-592.116" rx="4.00002" ry="4.00002"/>
<polygon fill="#bd4fdc" stroke="#bd4fdc" points="576.577,-531.875 574.519,-521.104 573.706,-527.781 570.835,-523.688 570.835,-523.688 570.835,-523.688 573.706,-527.781 567.151,-526.272 576.577,-531.875 576.577,-531.875"/>
</g>
<!-- Mailboxer::Message -->
<g id="node9" class="node"><title>Mailboxer::Message</title>
<ellipse fill="none" stroke="black" cx="704.688" cy="-445.5" rx="82.6045" ry="18"/>
<text text-anchor="middle" x="704.688" y="-441.3" font-family="Times,serif" font-size="14.00">Mailboxer::Message</text>
</g>
<!-- User&#45;&gt;Mailboxer::Message -->
<g id="edge8" class="edge"><title>User&#45;&gt;Mailboxer::Message</title>
<path fill="none" stroke="#cc7200" d="M704.688,-587.32C704.688,-544.769 704.688,-501.298 704.688,-474.13"/>
<ellipse fill="none" stroke="#cc7200" cx="704.688" cy="-591.391" rx="4" ry="4"/>
<polygon fill="#cc7200" stroke="#cc7200" points="704.688,-473.875 709.188,-463.874 704.688,-468.875 704.688,-463.875 704.688,-463.875 704.688,-463.875 704.688,-468.875 700.188,-463.875 704.688,-473.875 704.688,-473.875"/>
<text text-anchor="middle" x="731.126" y="-565.8" font-family="Times,serif" font-size="14.00">messages</text>
</g>
<!-- Mailboxer::Receipt -->
<g id="node10" class="node"><title>Mailboxer::Receipt</title>
<ellipse fill="none" stroke="black" cx="884.688" cy="-445.5" rx="78.7367" ry="18"/>
<text text-anchor="middle" x="884.688" y="-441.3" font-family="Times,serif" font-size="14.00">Mailboxer::Receipt</text>
</g>
<!-- User&#45;&gt;Mailboxer::Receipt -->
<g id="edge9" class="edge"><title>User&#45;&gt;Mailboxer::Receipt</title>
<path fill="none" stroke="#97d921" d="M789.328,-588.48C818.932,-544.402 849.313,-499.169 867.596,-471.948"/>
<ellipse fill="none" stroke="#97d921" cx="786.917" cy="-592.07" rx="4.00002" ry="4.00002"/>
<polygon fill="#97d921" stroke="#97d921" points="867.738,-471.736 877.049,-465.944 870.526,-467.585 873.314,-463.434 873.314,-463.434 873.314,-463.434 870.526,-467.585 869.578,-460.925 867.738,-471.736 867.738,-471.736"/>
<text text-anchor="middle" x="826.453" y="-565.8" font-family="Times,serif" font-size="14.00">receipts</text>
</g>
</g>
</svg>
