<?xml version="1.0" encoding="UTF-8" standalone="no"?>
<!DOCTYPE svg PUBLIC "-//W3C//DTD SVG 1.1//EN"
 "http://www.w3.org/Graphics/SVG/1.1/DTD/svg11.dtd">
<!-- Generated by graphviz version 2.38.0 (20140413.2041)
 -->
<!-- Title: models_diagram Pages: 1 -->
<svg width="977pt" height="914pt"
 viewBox="0.00 0.00 976.56 914.00" xmlns="http://www.w3.org/2000/svg" xmlns:xlink="http://www.w3.org/1999/xlink">
<g id="graph0" class="graph" transform="scale(1 1) rotate(0) translate(4 910)">
<title>models_diagram</title>
<polygon fill="white" stroke="none" points="-4,4 -4,-910 972.556,-910 972.556,4 -4,4"/>
<!-- _diagram_info -->
<g id="node1" class="node"><title>_diagram_info</title>
<text text-anchor="start" x="8" y="-807.6" font-family="Times,serif" font-size="13.00">Models diagram</text>
<text text-anchor="start" x="8" y="-794.6" font-family="Times,serif" font-size="13.00">Date: Apr 08 2015 &#45; 10:28</text>
<text text-anchor="start" x="8" y="-781.6" font-family="Times,serif" font-size="13.00">Migration version: 20150320093746</text>
<text text-anchor="start" x="8" y="-768.6" font-family="Times,serif" font-size="13.00">Generated by RailRoady 1.3.0</text>
<text text-anchor="start" x="8" y="-755.6" font-family="Times,serif" font-size="13.00">http://railroady.prestonlee.com</text>
</g>
<!-- Event -->
<g id="node2" class="node"><title>Event</title>
<path fill="none" stroke="black" d="M237.182,-700.5C237.182,-700.5 346.193,-700.5 346.193,-700.5 352.193,-700.5 358.193,-706.5 358.193,-712.5 358.193,-712.5 358.193,-858.5 358.193,-858.5 358.193,-864.5 352.193,-870.5 346.193,-870.5 346.193,-870.5 237.182,-870.5 237.182,-870.5 231.182,-870.5 225.182,-864.5 225.182,-858.5 225.182,-858.5 225.182,-712.5 225.182,-712.5 225.182,-706.5 231.182,-700.5 237.182,-700.5"/>
<text text-anchor="middle" x="291.688" y="-855.3" font-family="Times,serif" font-size="14.00">Event</text>
<polyline fill="none" stroke="black" points="225.182,-848.5 358.193,-848.5 "/>
<text text-anchor="start" x="233.182" y="-833.3" font-family="Times,serif" font-size="14.00">id :integer</text>
<text text-anchor="start" x="233.182" y="-819.3" font-family="Times,serif" font-size="14.00">title :string</text>
<text text-anchor="start" x="233.182" y="-805.3" font-family="Times,serif" font-size="14.00">description :text</text>
<text text-anchor="start" x="233.182" y="-791.3" font-family="Times,serif" font-size="14.00">start_time :datetime</text>
<text text-anchor="start" x="233.182" y="-777.3" font-family="Times,serif" font-size="14.00">end_time :datetime</text>
<text text-anchor="start" x="233.182" y="-763.3" font-family="Times,serif" font-size="14.00">teacher_id :integer</text>
<text text-anchor="start" x="233.182" y="-749.3" font-family="Times,serif" font-size="14.00">group_id :integer</text>
<text text-anchor="start" x="233.182" y="-735.3" font-family="Times,serif" font-size="14.00">ta :string</text>
<text text-anchor="start" x="233.182" y="-721.3" font-family="Times,serif" font-size="14.00">created_at :datetime</text>
<text text-anchor="start" x="233.182" y="-707.3" font-family="Times,serif" font-size="14.00">updated_at :datetime</text>
</g>
<!-- Student -->
<g id="node6" class="node"><title>Student</title>
<path fill="none" stroke="black" d="M216.586,-346.5C216.586,-346.5 366.79,-346.5 366.79,-346.5 372.79,-346.5 378.79,-352.5 378.79,-358.5 378.79,-358.5 378.79,-602.5 378.79,-602.5 378.79,-608.5 372.79,-614.5 366.79,-614.5 366.79,-614.5 216.586,-614.5 216.586,-614.5 210.586,-614.5 204.586,-608.5 204.586,-602.5 204.586,-602.5 204.586,-358.5 204.586,-358.5 204.586,-352.5 210.586,-346.5 216.586,-346.5"/>
<text text-anchor="middle" x="291.688" y="-599.3" font-family="Times,serif" font-size="14.00">Student</text>
<polyline fill="none" stroke="black" points="204.586,-592.5 378.79,-592.5 "/>
<text text-anchor="start" x="212.586" y="-577.3" font-family="Times,serif" font-size="14.00">id :integer</text>
<text text-anchor="start" x="212.586" y="-563.3" font-family="Times,serif" font-size="14.00">ename :string</text>
<text text-anchor="start" x="212.586" y="-549.3" font-family="Times,serif" font-size="14.00">cname :string</text>
<text text-anchor="start" x="212.586" y="-535.3" font-family="Times,serif" font-size="14.00">emergency_contact :string</text>
<text text-anchor="start" x="212.586" y="-521.3" font-family="Times,serif" font-size="14.00">email :string</text>
<text text-anchor="start" x="212.586" y="-507.3" font-family="Times,serif" font-size="14.00">address :string</text>
<text text-anchor="start" x="212.586" y="-493.3" font-family="Times,serif" font-size="14.00">dob :date</text>
<text text-anchor="start" x="212.586" y="-479.3" font-family="Times,serif" font-size="14.00">contract_start :date</text>
<text text-anchor="start" x="212.586" y="-465.3" font-family="Times,serif" font-size="14.00">contract_length :integer</text>
<text text-anchor="start" x="212.586" y="-451.3" font-family="Times,serif" font-size="14.00">points :integer</text>
<text text-anchor="start" x="212.586" y="-437.3" font-family="Times,serif" font-size="14.00">group_id :integer</text>
<text text-anchor="start" x="212.586" y="-423.3" font-family="Times,serif" font-size="14.00">created_at :datetime</text>
<text text-anchor="start" x="212.586" y="-409.3" font-family="Times,serif" font-size="14.00">updated_at :datetime</text>
<text text-anchor="start" x="212.586" y="-395.3" font-family="Times,serif" font-size="14.00">avatar_file_name :string</text>
<text text-anchor="start" x="212.586" y="-381.3" font-family="Times,serif" font-size="14.00">avatar_content_type :string</text>
<text text-anchor="start" x="212.586" y="-367.3" font-family="Times,serif" font-size="14.00">avatar_file_size :integer</text>
<text text-anchor="start" x="212.586" y="-353.3" font-family="Times,serif" font-size="14.00">avatar_updated_at :datetime</text>
</g>
<!-- Event&#45;&gt;Student -->
<g id="edge1" class="edge"><title>Event&#45;&gt;Student</title>
<path fill="none" stroke="#2421e4" d="M291.688,-692.285C291.688,-670.931 291.688,-647.711 291.688,-624.745"/>
<ellipse fill="none" stroke="#2421e4" cx="291.688" cy="-696.5" rx="4" ry="4"/>
<polygon fill="#2421e4" stroke="#2421e4" points="291.688,-624.572 296.188,-614.572 291.688,-619.572 291.688,-614.572 291.688,-614.572 291.688,-614.572 291.688,-619.572 287.188,-614.572 291.688,-624.572 291.688,-624.572"/>
</g>
<!-- Group -->
<g id="node3" class="node"><title>Group</title>
<path fill="none" stroke="black" d="M190.182,-0.5C190.182,-0.5 299.193,-0.5 299.193,-0.5 305.193,-0.5 311.193,-6.5 311.193,-12.5 311.193,-12.5 311.193,-130.5 311.193,-130.5 311.193,-136.5 305.193,-142.5 299.193,-142.5 299.193,-142.5 190.182,-142.5 190.182,-142.5 184.182,-142.5 178.182,-136.5 178.182,-130.5 178.182,-130.5 178.182,-12.5 178.182,-12.5 178.182,-6.5 184.182,-0.5 190.182,-0.5"/>
<text text-anchor="middle" x="244.688" y="-127.3" font-family="Times,serif" font-size="14.00">Group</text>
<polyline fill="none" stroke="black" points="178.182,-120.5 311.193,-120.5 "/>
<text text-anchor="start" x="186.182" y="-105.3" font-family="Times,serif" font-size="14.00">id :integer</text>
<text text-anchor="start" x="186.182" y="-91.3" font-family="Times,serif" font-size="14.00">school :string</text>
<text text-anchor="start" x="186.182" y="-77.3" font-family="Times,serif" font-size="14.00">name :string</text>
<text text-anchor="start" x="186.182" y="-63.3" font-family="Times,serif" font-size="14.00">teacher_id :integer</text>
<text text-anchor="start" x="186.182" y="-49.3" font-family="Times,serif" font-size="14.00">student_id :integer</text>
<text text-anchor="start" x="186.182" y="-35.3" font-family="Times,serif" font-size="14.00">pa :string</text>
<text text-anchor="start" x="186.182" y="-21.3" font-family="Times,serif" font-size="14.00">created_at :datetime</text>
<text text-anchor="start" x="186.182" y="-7.3" font-family="Times,serif" font-size="14.00">updated_at :datetime</text>
</g>
<!-- Group&#45;&gt;Event -->
<g id="edge3" class="edge"><title>Group&#45;&gt;Event</title>
<path fill="none" stroke="#93a039" d="M221.062,-150.559C192.49,-257.243 153.194,-453.747 195.688,-615 200.041,-631.519 215.909,-661.398 233.526,-691.519"/>
<ellipse fill="none" stroke="#93a039" cx="222.139" cy="-146.582" rx="4.00001" ry="4.00001"/>
<polygon fill="#93a039" stroke="#93a039" points="233.704,-691.821 234.909,-702.72 236.244,-696.127 238.785,-700.434 238.785,-700.434 238.785,-700.434 236.244,-696.127 242.661,-698.147 233.704,-691.821 233.704,-691.821"/>
</g>
<!-- Group&#45;&gt;Student -->
<g id="edge2" class="edge"><title>Group&#45;&gt;Student</title>
<path fill="none" stroke="#ebf2ca" d="M249.34,-150.67C252.492,-196.828 257.261,-256.349 263.688,-309 264.769,-317.856 265.977,-326.956 267.267,-336.123"/>
<ellipse fill="none" stroke="#ebf2ca" cx="249.058" cy="-146.495" rx="4" ry="4"/>
<polygon fill="#ebf2ca" stroke="#ebf2ca" points="267.277,-336.19 264.243,-346.728 267.987,-341.139 268.698,-346.088 268.698,-346.088 268.698,-346.088 267.987,-341.139 273.152,-345.449 267.277,-336.19 267.277,-336.19"/>
</g>
<!-- Inquery -->
<g id="node4" class="node"><title>Inquery</title>
<path fill="none" stroke="black" d="M428.182,-721.5C428.182,-721.5 537.193,-721.5 537.193,-721.5 543.193,-721.5 549.193,-727.5 549.193,-733.5 549.193,-733.5 549.193,-837.5 549.193,-837.5 549.193,-843.5 543.193,-849.5 537.193,-849.5 537.193,-849.5 428.182,-849.5 428.182,-849.5 422.182,-849.5 416.182,-843.5 416.182,-837.5 416.182,-837.5 416.182,-733.5 416.182,-733.5 416.182,-727.5 422.182,-721.5 428.182,-721.5"/>
<text text-anchor="middle" x="482.688" y="-834.3" font-family="Times,serif" font-size="14.00">Inquery</text>
<polyline fill="none" stroke="black" points="416.182,-827.5 549.193,-827.5 "/>
<text text-anchor="start" x="424.182" y="-812.3" font-family="Times,serif" font-size="14.00">id :integer</text>
<text text-anchor="start" x="424.182" y="-798.3" font-family="Times,serif" font-size="14.00">name :string</text>
<text text-anchor="start" x="424.182" y="-784.3" font-family="Times,serif" font-size="14.00">email :string</text>
<text text-anchor="start" x="424.182" y="-770.3" font-family="Times,serif" font-size="14.00">phone :string</text>
<text text-anchor="start" x="424.182" y="-756.3" font-family="Times,serif" font-size="14.00">message :text</text>
<text text-anchor="start" x="424.182" y="-742.3" font-family="Times,serif" font-size="14.00">created_at :datetime</text>
<text text-anchor="start" x="424.182" y="-728.3" font-family="Times,serif" font-size="14.00">updated_at :datetime</text>
</g>
<!-- Photo -->
<g id="node5" class="node"><title>Photo</title>
<path fill="none" stroke="black" d="M446.579,-402.5C446.579,-402.5 596.797,-402.5 596.797,-402.5 602.797,-402.5 608.797,-408.5 608.797,-414.5 608.797,-414.5 608.797,-546.5 608.797,-546.5 608.797,-552.5 602.797,-558.5 596.797,-558.5 596.797,-558.5 446.579,-558.5 446.579,-558.5 440.579,-558.5 434.579,-552.5 434.579,-546.5 434.579,-546.5 434.579,-414.5 434.579,-414.5 434.579,-408.5 440.579,-402.5 446.579,-402.5"/>
<text text-anchor="middle" x="521.688" y="-543.3" font-family="Times,serif" font-size="14.00">Photo</text>
<polyline fill="none" stroke="black" points="434.579,-536.5 608.797,-536.5 "/>
<text text-anchor="start" x="442.579" y="-521.3" font-family="Times,serif" font-size="14.00">id :integer</text>
<text text-anchor="start" x="442.579" y="-507.3" font-family="Times,serif" font-size="14.00">description :string</text>
<text text-anchor="start" x="442.579" y="-493.3" font-family="Times,serif" font-size="14.00">created_at :datetime</text>
<text text-anchor="start" x="442.579" y="-479.3" font-family="Times,serif" font-size="14.00">updated_at :datetime</text>
<text text-anchor="start" x="442.579" y="-465.3" font-family="Times,serif" font-size="14.00">user_id :integer</text>
<text text-anchor="start" x="442.579" y="-451.3" font-family="Times,serif" font-size="14.00">image_file_name :string</text>
<text text-anchor="start" x="442.579" y="-437.3" font-family="Times,serif" font-size="14.00">image_content_type :string</text>
<text text-anchor="start" x="442.579" y="-423.3" font-family="Times,serif" font-size="14.00">image_file_size :integer</text>
<text text-anchor="start" x="442.579" y="-409.3" font-family="Times,serif" font-size="14.00">image_updated_at :datetime</text>
</g>
<!-- Teacher -->
<g id="node7" class="node"><title>Teacher</title>
<path fill="none" stroke="black" d="M285.182,-180.5C285.182,-180.5 394.193,-180.5 394.193,-180.5 400.193,-180.5 406.193,-186.5 406.193,-192.5 406.193,-192.5 406.193,-296.5 406.193,-296.5 406.193,-302.5 400.193,-308.5 394.193,-308.5 394.193,-308.5 285.182,-308.5 285.182,-308.5 279.182,-308.5 273.182,-302.5 273.182,-296.5 273.182,-296.5 273.182,-192.5 273.182,-192.5 273.182,-186.5 279.182,-180.5 285.182,-180.5"/>
<text text-anchor="middle" x="339.688" y="-293.3" font-family="Times,serif" font-size="14.00">Teacher</text>
<polyline fill="none" stroke="black" points="273.182,-286.5 406.193,-286.5 "/>
<text text-anchor="start" x="281.182" y="-271.3" font-family="Times,serif" font-size="14.00">id :integer</text>
<text text-anchor="start" x="281.182" y="-257.3" font-family="Times,serif" font-size="14.00">ename :string</text>
<text text-anchor="start" x="281.182" y="-243.3" font-family="Times,serif" font-size="14.00">cname :string</text>
<text text-anchor="start" x="281.182" y="-229.3" font-family="Times,serif" font-size="14.00">dob :date</text>
<text text-anchor="start" x="281.182" y="-215.3" font-family="Times,serif" font-size="14.00">group_id :integer</text>
<text text-anchor="start" x="281.182" y="-201.3" font-family="Times,serif" font-size="14.00">created_at :datetime</text>
<text text-anchor="start" x="281.182" y="-187.3" font-family="Times,serif" font-size="14.00">updated_at :datetime</text>
</g>
<!-- Student&#45;&gt;Teacher -->
<g id="edge4" class="edge"><title>Student&#45;&gt;Teacher</title>
<path fill="none" stroke="#22bf3c" d="M321.043,-336.394C322.269,-330.418 323.475,-324.538 324.648,-318.82"/>
<polygon fill="#22bf3c" stroke="#22bf3c" points="320.993,-336.639 314.575,-345.531 319.988,-341.537 318.983,-346.435 318.983,-346.435 318.983,-346.435 319.988,-341.537 323.391,-347.339 320.993,-336.639 320.993,-336.639"/>
<polygon fill="#22bf3c" stroke="#22bf3c" points="324.71,-318.514 331.128,-309.623 325.715,-313.616 326.72,-308.718 326.72,-308.718 326.72,-308.718 325.715,-313.616 322.312,-307.814 324.71,-318.514 324.71,-318.514"/>
</g>
<!-- Teacher&#45;&gt;Event -->
<g id="edge6" class="edge"><title>Teacher&#45;&gt;Event</title>
<path fill="none" stroke="#e269d1" d="M378.098,-316.011C382.04,-325.844 385.424,-336.007 387.688,-346 414.104,-462.601 418.153,-499.391 387.688,-615 380.81,-641.098 368.892,-667.397 355.743,-691.235"/>
<ellipse fill="none" stroke="#e269d1" cx="376.527" cy="-312.254" rx="4.00002" ry="4.00002"/>
<polygon fill="#e269d1" stroke="#e269d1" points="355.571,-691.539 346.733,-698.031 353.111,-695.892 350.651,-700.245 350.651,-700.245 350.651,-700.245 353.111,-695.892 354.569,-702.459 355.571,-691.539 355.571,-691.539"/>
</g>
<!-- Teacher&#45;&gt;Group -->
<g id="edge5" class="edge"><title>Teacher&#45;&gt;Group</title>
<path fill="none" stroke="#a0c085" d="M300.551,-173.053C296.625,-165.988 292.621,-158.78 288.65,-151.632"/>
<ellipse fill="none" stroke="#a0c085" cx="302.641" cy="-176.815" rx="4.00002" ry="4.00002"/>
<polygon fill="#a0c085" stroke="#a0c085" points="288.503,-151.367 287.58,-140.44 286.075,-146.996 283.646,-142.626 283.646,-142.626 283.646,-142.626 286.075,-146.996 279.713,-144.811 288.503,-151.367 288.503,-151.367"/>
</g>
<!-- User -->
<g id="node8" class="node"><title>User</title>
<path fill="none" stroke="black" d="M619.41,-665.5C619.41,-665.5 799.966,-665.5 799.966,-665.5 805.966,-665.5 811.966,-671.5 811.966,-677.5 811.966,-677.5 811.966,-893.5 811.966,-893.5 811.966,-899.5 805.966,-905.5 799.966,-905.5 799.966,-905.5 619.41,-905.5 619.41,-905.5 613.41,-905.5 607.41,-899.5 607.41,-893.5 607.41,-893.5 607.41,-677.5 607.41,-677.5 607.41,-671.5 613.41,-665.5 619.41,-665.5"/>
<text text-anchor="middle" x="709.688" y="-890.3" font-family="Times,serif" font-size="14.00">User</text>
<polyline fill="none" stroke="black" points="607.41,-883.5 811.966,-883.5 "/>
<text text-anchor="start" x="615.41" y="-868.3" font-family="Times,serif" font-size="14.00">id :integer</text>
<text text-anchor="start" x="615.41" y="-854.3" font-family="Times,serif" font-size="14.00">name :string</text>
<text text-anchor="start" x="615.41" y="-840.3" font-family="Times,serif" font-size="14.00">email :string</text>
<text text-anchor="start" x="615.41" y="-826.3" font-family="Times,serif" font-size="14.00">encrypted_password :string</text>
<text text-anchor="start" x="615.41" y="-812.3" font-family="Times,serif" font-size="14.00">reset_password_token :string</text>
<text text-anchor="start" x="615.41" y="-798.3" font-family="Times,serif" font-size="14.00">reset_password_sent_at :datetime</text>
<text text-anchor="start" x="615.41" y="-784.3" font-family="Times,serif" font-size="14.00">remember_created_at :datetime</text>
<text text-anchor="start" x="615.41" y="-770.3" font-family="Times,serif" font-size="14.00">sign_in_count :integer</text>
<text text-anchor="start" x="615.41" y="-756.3" font-family="Times,serif" font-size="14.00">current_sign_in_at :datetime</text>
<text text-anchor="start" x="615.41" y="-742.3" font-family="Times,serif" font-size="14.00">last_sign_in_at :datetime</text>
<text text-anchor="start" x="615.41" y="-728.3" font-family="Times,serif" font-size="14.00">current_sign_in_ip :string</text>
<text text-anchor="start" x="615.41" y="-714.3" font-family="Times,serif" font-size="14.00">last_sign_in_ip :string</text>
<text text-anchor="start" x="615.41" y="-700.3" font-family="Times,serif" font-size="14.00">created_at :datetime</text>
<text text-anchor="start" x="615.41" y="-686.3" font-family="Times,serif" font-size="14.00">updated_at :datetime</text>
<text text-anchor="start" x="615.41" y="-672.3" font-family="Times,serif" font-size="14.00">admin :boolean</text>
</g>
<!-- User&#45;&gt;Photo -->
<g id="edge7" class="edge"><title>User&#45;&gt;Photo</title>
<path fill="none" stroke="#e656c7" d="M631.214,-658.024C612.281,-627.509 592.483,-595.601 575.009,-567.438"/>
<ellipse fill="none" stroke="#e656c7" cx="633.546" cy="-661.782" rx="4.00002" ry="4.00002"/>
<polygon fill="#e656c7" stroke="#e656c7" points="574.936,-567.321 573.488,-556.451 572.3,-563.072 569.664,-558.823 569.664,-558.823 569.664,-558.823 572.3,-563.072 565.84,-561.196 574.936,-567.321 574.936,-567.321"/>
</g>
<!-- Mailboxer::Message -->
<g id="node9" class="node"><title>Mailboxer::Message</title>
<ellipse fill="none" stroke="black" cx="709.688" cy="-480.5" rx="82.6045" ry="18"/>
<text text-anchor="middle" x="709.688" y="-476.3" font-family="Times,serif" font-size="14.00">Mailboxer::Message</text>
</g>
<!-- User&#45;&gt;Mailboxer::Message -->
<g id="edge8" class="edge"><title>User&#45;&gt;Mailboxer::Message</title>
<path fill="none" stroke="#12895f" d="M709.688,-656.965C709.688,-601.92 709.688,-542.545 709.688,-508.904"/>
<ellipse fill="none" stroke="#12895f" cx="709.688" cy="-661.181" rx="4" ry="4"/>
<polygon fill="#12895f" stroke="#12895f" points="709.688,-508.526 714.188,-498.526 709.688,-503.526 709.688,-498.526 709.688,-498.526 709.688,-498.526 709.688,-503.526 705.188,-498.526 709.688,-508.526 709.688,-508.526"/>
<text text-anchor="middle" x="736.126" y="-635.8" font-family="Times,serif" font-size="14.00">messages</text>
</g>
<!-- Mailboxer::Receipt -->
<g id="node10" class="node"><title>Mailboxer::Receipt</title>
<ellipse fill="none" stroke="black" cx="889.688" cy="-480.5" rx="78.7367" ry="18"/>
<text text-anchor="middle" x="889.688" y="-476.3" font-family="Times,serif" font-size="14.00">Mailboxer::Receipt</text>
</g>
<!-- User&#45;&gt;Mailboxer::Receipt -->
<g id="edge9" class="edge"><title>User&#45;&gt;Mailboxer::Receipt</title>
<path fill="none" stroke="#cfcf7f" d="M784.783,-658.09C818.218,-601.807 854.477,-540.771 874.403,-507.23"/>
<ellipse fill="none" stroke="#cfcf7f" cx="782.613" cy="-661.742" rx="4.00002" ry="4.00002"/>
<polygon fill="#cfcf7f" stroke="#cfcf7f" points="874.466,-507.123 883.442,-500.824 877.02,-502.824 879.574,-498.526 879.574,-498.526 879.574,-498.526 877.02,-502.824 875.705,-496.227 874.466,-507.123 874.466,-507.123"/>
<text text-anchor="middle" x="821.453" y="-635.8" font-family="Times,serif" font-size="14.00">receipts</text>
</g>
</g>
</svg>
