<?xml version="1.0" encoding="UTF-8" standalone="no"?>
<!DOCTYPE svg PUBLIC "-//W3C//DTD SVG 1.1//EN"
 "http://www.w3.org/Graphics/SVG/1.1/DTD/svg11.dtd">
<!-- Generated by graphviz version 2.38.0 (20140413.2041)
 -->
<!-- Title: models_diagram Pages: 1 -->
<svg width="1397pt" height="1136pt"
 viewBox="0.00 0.00 1396.80 1136.00" xmlns="http://www.w3.org/2000/svg" xmlns:xlink="http://www.w3.org/1999/xlink">
<g id="graph0" class="graph" transform="scale(1 1) rotate(0) translate(4 1132)">
<title>models_diagram</title>
<polygon fill="white" stroke="none" points="-4,4 -4,-1132 1392.8,-1132 1392.8,4 -4,4"/>
<!-- _diagram_info -->
<g id="node1" class="node"><title>_diagram_info</title>
<text text-anchor="start" x="8" y="-1029.6" font-family="Times,serif" font-size="13.00">Models diagram</text>
<text text-anchor="start" x="8" y="-1016.6" font-family="Times,serif" font-size="13.00">Date: May 28 2015 &#45; 15:11</text>
<text text-anchor="start" x="8" y="-1003.6" font-family="Times,serif" font-size="13.00">Migration version: 20150418105322</text>
<text text-anchor="start" x="8" y="-990.6" font-family="Times,serif" font-size="13.00">Generated by RailRoady 1.3.0</text>
<text text-anchor="start" x="8" y="-977.6" font-family="Times,serif" font-size="13.00">http://railroady.prestonlee.com</text>
</g>
<!-- Event -->
<g id="node2" class="node"><title>Event</title>
<path fill="none" stroke="black" d="M237.182,-922.5C237.182,-922.5 346.193,-922.5 346.193,-922.5 352.193,-922.5 358.193,-928.5 358.193,-934.5 358.193,-934.5 358.193,-1080.5 358.193,-1080.5 358.193,-1086.5 352.193,-1092.5 346.193,-1092.5 346.193,-1092.5 237.182,-1092.5 237.182,-1092.5 231.182,-1092.5 225.182,-1086.5 225.182,-1080.5 225.182,-1080.5 225.182,-934.5 225.182,-934.5 225.182,-928.5 231.182,-922.5 237.182,-922.5"/>
<text text-anchor="middle" x="291.688" y="-1077.3" font-family="Times,serif" font-size="14.00">Event</text>
<polyline fill="none" stroke="black" points="225.182,-1070.5 358.193,-1070.5 "/>
<text text-anchor="start" x="233.182" y="-1055.3" font-family="Times,serif" font-size="14.00">id :integer</text>
<text text-anchor="start" x="233.182" y="-1041.3" font-family="Times,serif" font-size="14.00">title :string</text>
<text text-anchor="start" x="233.182" y="-1027.3" font-family="Times,serif" font-size="14.00">description :text</text>
<text text-anchor="start" x="233.182" y="-1013.3" font-family="Times,serif" font-size="14.00">start_time :datetime</text>
<text text-anchor="start" x="233.182" y="-999.3" font-family="Times,serif" font-size="14.00">end_time :datetime</text>
<text text-anchor="start" x="233.182" y="-985.3" font-family="Times,serif" font-size="14.00">teacher_id :integer</text>
<text text-anchor="start" x="233.182" y="-971.3" font-family="Times,serif" font-size="14.00">group_id :integer</text>
<text text-anchor="start" x="233.182" y="-957.3" font-family="Times,serif" font-size="14.00">ta :string</text>
<text text-anchor="start" x="233.182" y="-943.3" font-family="Times,serif" font-size="14.00">created_at :datetime</text>
<text text-anchor="start" x="233.182" y="-929.3" font-family="Times,serif" font-size="14.00">updated_at :datetime</text>
</g>
<!-- Student -->
<g id="node9" class="node"><title>Student</title>
<path fill="none" stroke="black" d="M331.586,-568.5C331.586,-568.5 481.79,-568.5 481.79,-568.5 487.79,-568.5 493.79,-574.5 493.79,-580.5 493.79,-580.5 493.79,-824.5 493.79,-824.5 493.79,-830.5 487.79,-836.5 481.79,-836.5 481.79,-836.5 331.586,-836.5 331.586,-836.5 325.586,-836.5 319.586,-830.5 319.586,-824.5 319.586,-824.5 319.586,-580.5 319.586,-580.5 319.586,-574.5 325.586,-568.5 331.586,-568.5"/>
<text text-anchor="middle" x="406.688" y="-821.3" font-family="Times,serif" font-size="14.00">Student</text>
<polyline fill="none" stroke="black" points="319.586,-814.5 493.79,-814.5 "/>
<text text-anchor="start" x="327.586" y="-799.3" font-family="Times,serif" font-size="14.00">id :integer</text>
<text text-anchor="start" x="327.586" y="-785.3" font-family="Times,serif" font-size="14.00">ename :string</text>
<text text-anchor="start" x="327.586" y="-771.3" font-family="Times,serif" font-size="14.00">cname :string</text>
<text text-anchor="start" x="327.586" y="-757.3" font-family="Times,serif" font-size="14.00">emergency_contact :string</text>
<text text-anchor="start" x="327.586" y="-743.3" font-family="Times,serif" font-size="14.00">email :string</text>
<text text-anchor="start" x="327.586" y="-729.3" font-family="Times,serif" font-size="14.00">address :string</text>
<text text-anchor="start" x="327.586" y="-715.3" font-family="Times,serif" font-size="14.00">dob :date</text>
<text text-anchor="start" x="327.586" y="-701.3" font-family="Times,serif" font-size="14.00">contract_start :date</text>
<text text-anchor="start" x="327.586" y="-687.3" font-family="Times,serif" font-size="14.00">contract_length :integer</text>
<text text-anchor="start" x="327.586" y="-673.3" font-family="Times,serif" font-size="14.00">points :integer</text>
<text text-anchor="start" x="327.586" y="-659.3" font-family="Times,serif" font-size="14.00">group_id :integer</text>
<text text-anchor="start" x="327.586" y="-645.3" font-family="Times,serif" font-size="14.00">created_at :datetime</text>
<text text-anchor="start" x="327.586" y="-631.3" font-family="Times,serif" font-size="14.00">updated_at :datetime</text>
<text text-anchor="start" x="327.586" y="-617.3" font-family="Times,serif" font-size="14.00">avatar_file_name :string</text>
<text text-anchor="start" x="327.586" y="-603.3" font-family="Times,serif" font-size="14.00">avatar_content_type :string</text>
<text text-anchor="start" x="327.586" y="-589.3" font-family="Times,serif" font-size="14.00">avatar_file_size :integer</text>
<text text-anchor="start" x="327.586" y="-575.3" font-family="Times,serif" font-size="14.00">avatar_updated_at :datetime</text>
</g>
<!-- Event&#45;&gt;Student -->
<g id="edge1" class="edge"><title>Event&#45;&gt;Student</title>
<path fill="none" stroke="#20b74f" d="M326.444,-914.924C334.678,-893.229 343.654,-869.58 352.524,-846.21"/>
<ellipse fill="none" stroke="#20b74f" cx="324.988" cy="-918.76" rx="4.00001" ry="4.00001"/>
<polygon fill="#20b74f" stroke="#20b74f" points="352.633,-845.922 360.389,-838.169 354.407,-841.247 356.182,-836.572 356.182,-836.572 356.182,-836.572 354.407,-841.247 351.975,-834.976 352.633,-845.922 352.633,-845.922"/>
</g>
<!-- Group -->
<g id="node3" class="node"><title>Group</title>
<path fill="none" stroke="black" d="M268.182,-180.5C268.182,-180.5 377.193,-180.5 377.193,-180.5 383.193,-180.5 389.193,-186.5 389.193,-192.5 389.193,-192.5 389.193,-310.5 389.193,-310.5 389.193,-316.5 383.193,-322.5 377.193,-322.5 377.193,-322.5 268.182,-322.5 268.182,-322.5 262.182,-322.5 256.182,-316.5 256.182,-310.5 256.182,-310.5 256.182,-192.5 256.182,-192.5 256.182,-186.5 262.182,-180.5 268.182,-180.5"/>
<text text-anchor="middle" x="322.688" y="-307.3" font-family="Times,serif" font-size="14.00">Group</text>
<polyline fill="none" stroke="black" points="256.182,-300.5 389.193,-300.5 "/>
<text text-anchor="start" x="264.182" y="-285.3" font-family="Times,serif" font-size="14.00">id :integer</text>
<text text-anchor="start" x="264.182" y="-271.3" font-family="Times,serif" font-size="14.00">school :string</text>
<text text-anchor="start" x="264.182" y="-257.3" font-family="Times,serif" font-size="14.00">name :string</text>
<text text-anchor="start" x="264.182" y="-243.3" font-family="Times,serif" font-size="14.00">teacher_id :integer</text>
<text text-anchor="start" x="264.182" y="-229.3" font-family="Times,serif" font-size="14.00">student_id :integer</text>
<text text-anchor="start" x="264.182" y="-215.3" font-family="Times,serif" font-size="14.00">pa :string</text>
<text text-anchor="start" x="264.182" y="-201.3" font-family="Times,serif" font-size="14.00">created_at :datetime</text>
<text text-anchor="start" x="264.182" y="-187.3" font-family="Times,serif" font-size="14.00">updated_at :datetime</text>
</g>
<!-- Group&#45;&gt;Event -->
<g id="edge4" class="edge"><title>Group&#45;&gt;Event</title>
<path fill="none" stroke="#ea10ea" d="M260.102,-329.695C254.656,-339.455 249.974,-349.658 246.688,-360 186.618,-549.022 230.615,-784.276 263.84,-912.461"/>
<ellipse fill="none" stroke="#ea10ea" cx="262.18" cy="-326.127" rx="4.00002" ry="4.00002"/>
<polygon fill="#ea10ea" stroke="#ea10ea" points="263.873,-912.587 262.061,-923.402 265.143,-917.423 266.413,-922.259 266.413,-922.259 266.413,-922.259 265.143,-917.423 270.766,-921.116 263.873,-912.587 263.873,-912.587"/>
</g>
<!-- Homework -->
<g id="node4" class="node"><title>Homework</title>
<path fill="none" stroke="black" d="M268.182,-0.5C268.182,-0.5 377.193,-0.5 377.193,-0.5 383.193,-0.5 389.193,-6.5 389.193,-12.5 389.193,-12.5 389.193,-130.5 389.193,-130.5 389.193,-136.5 383.193,-142.5 377.193,-142.5 377.193,-142.5 268.182,-142.5 268.182,-142.5 262.182,-142.5 256.182,-136.5 256.182,-130.5 256.182,-130.5 256.182,-12.5 256.182,-12.5 256.182,-6.5 262.182,-0.5 268.182,-0.5"/>
<text text-anchor="middle" x="322.688" y="-127.3" font-family="Times,serif" font-size="14.00">Homework</text>
<polyline fill="none" stroke="black" points="256.182,-120.5 389.193,-120.5 "/>
<text text-anchor="start" x="264.182" y="-105.3" font-family="Times,serif" font-size="14.00">id :integer</text>
<text text-anchor="start" x="264.182" y="-91.3" font-family="Times,serif" font-size="14.00">group_id :integer</text>
<text text-anchor="start" x="264.182" y="-77.3" font-family="Times,serif" font-size="14.00">title :string</text>
<text text-anchor="start" x="264.182" y="-63.3" font-family="Times,serif" font-size="14.00">assigned :date</text>
<text text-anchor="start" x="264.182" y="-49.3" font-family="Times,serif" font-size="14.00">due :datetime</text>
<text text-anchor="start" x="264.182" y="-35.3" font-family="Times,serif" font-size="14.00">instructions :string</text>
<text text-anchor="start" x="264.182" y="-21.3" font-family="Times,serif" font-size="14.00">created_at :datetime</text>
<text text-anchor="start" x="264.182" y="-7.3" font-family="Times,serif" font-size="14.00">updated_at :datetime</text>
</g>
<!-- Group&#45;&gt;Homework -->
<g id="edge3" class="edge"><title>Group&#45;&gt;Homework</title>
<path fill="none" stroke="#528c9e" d="M322.688,-172.17C322.688,-165.694 322.688,-159.143 322.688,-152.655"/>
<ellipse fill="none" stroke="#528c9e" cx="322.688" cy="-176.405" rx="4" ry="4"/>
<polygon fill="#528c9e" stroke="#528c9e" points="322.688,-152.531 327.188,-142.531 322.688,-147.531 322.688,-142.531 322.688,-142.531 322.688,-142.531 322.688,-147.531 318.188,-142.531 322.688,-152.531 322.688,-152.531"/>
</g>
<!-- Group&#45;&gt;Student -->
<g id="edge2" class="edge"><title>Group&#45;&gt;Student</title>
<path fill="none" stroke="#d2d50d" d="M385.033,-329.773C390.523,-339.519 395.28,-349.697 398.688,-360 419.459,-422.803 423.648,-495.709 421.763,-557.991"/>
<ellipse fill="none" stroke="#d2d50d" cx="382.94" cy="-326.207" rx="4.00002" ry="4.00002"/>
<polygon fill="#d2d50d" stroke="#d2d50d" points="421.752,-558.297 416.896,-568.129 421.572,-563.294 421.393,-568.291 421.393,-568.291 421.393,-568.291 421.572,-563.294 425.89,-568.452 421.752,-558.297 421.752,-558.297"/>
</g>
<!-- Inquery -->
<g id="node5" class="node"><title>Inquery</title>
<path fill="none" stroke="black" d="M968.182,-943.5C968.182,-943.5 1077.19,-943.5 1077.19,-943.5 1083.19,-943.5 1089.19,-949.5 1089.19,-955.5 1089.19,-955.5 1089.19,-1059.5 1089.19,-1059.5 1089.19,-1065.5 1083.19,-1071.5 1077.19,-1071.5 1077.19,-1071.5 968.182,-1071.5 968.182,-1071.5 962.182,-1071.5 956.182,-1065.5 956.182,-1059.5 956.182,-1059.5 956.182,-955.5 956.182,-955.5 956.182,-949.5 962.182,-943.5 968.182,-943.5"/>
<text text-anchor="middle" x="1022.69" y="-1056.3" font-family="Times,serif" font-size="14.00">Inquery</text>
<polyline fill="none" stroke="black" points="956.182,-1049.5 1089.19,-1049.5 "/>
<text text-anchor="start" x="964.182" y="-1034.3" font-family="Times,serif" font-size="14.00">id :integer</text>
<text text-anchor="start" x="964.182" y="-1020.3" font-family="Times,serif" font-size="14.00">name :string</text>
<text text-anchor="start" x="964.182" y="-1006.3" font-family="Times,serif" font-size="14.00">email :string</text>
<text text-anchor="start" x="964.182" y="-992.3" font-family="Times,serif" font-size="14.00">phone :string</text>
<text text-anchor="start" x="964.182" y="-978.3" font-family="Times,serif" font-size="14.00">message :text</text>
<text text-anchor="start" x="964.182" y="-964.3" font-family="Times,serif" font-size="14.00">created_at :datetime</text>
<text text-anchor="start" x="964.182" y="-950.3" font-family="Times,serif" font-size="14.00">updated_at :datetime</text>
</g>
<!-- LessonPlan -->
<g id="node6" class="node"><title>LessonPlan</title>
<path fill="none" stroke="black" d="M1034.58,-624.5C1034.58,-624.5 1184.8,-624.5 1184.8,-624.5 1190.8,-624.5 1196.8,-630.5 1196.8,-636.5 1196.8,-636.5 1196.8,-768.5 1196.8,-768.5 1196.8,-774.5 1190.8,-780.5 1184.8,-780.5 1184.8,-780.5 1034.58,-780.5 1034.58,-780.5 1028.58,-780.5 1022.58,-774.5 1022.58,-768.5 1022.58,-768.5 1022.58,-636.5 1022.58,-636.5 1022.58,-630.5 1028.58,-624.5 1034.58,-624.5"/>
<text text-anchor="middle" x="1109.69" y="-765.3" font-family="Times,serif" font-size="14.00">LessonPlan</text>
<polyline fill="none" stroke="black" points="1022.58,-758.5 1196.8,-758.5 "/>
<text text-anchor="start" x="1030.58" y="-743.3" font-family="Times,serif" font-size="14.00">id :integer</text>
<text text-anchor="start" x="1030.58" y="-729.3" font-family="Times,serif" font-size="14.00">level :string</text>
<text text-anchor="start" x="1030.58" y="-715.3" font-family="Times,serif" font-size="14.00">class_number :integer</text>
<text text-anchor="start" x="1030.58" y="-701.3" font-family="Times,serif" font-size="14.00">created_at :datetime</text>
<text text-anchor="start" x="1030.58" y="-687.3" font-family="Times,serif" font-size="14.00">updated_at :datetime</text>
<text text-anchor="start" x="1030.58" y="-673.3" font-family="Times,serif" font-size="14.00">image_file_name :string</text>
<text text-anchor="start" x="1030.58" y="-659.3" font-family="Times,serif" font-size="14.00">image_content_type :string</text>
<text text-anchor="start" x="1030.58" y="-645.3" font-family="Times,serif" font-size="14.00">image_file_size :integer</text>
<text text-anchor="start" x="1030.58" y="-631.3" font-family="Times,serif" font-size="14.00">image_updated_at :datetime</text>
</g>
<!-- Photo -->
<g id="node7" class="node"><title>Photo</title>
<path fill="none" stroke="black" d="M1226.58,-624.5C1226.58,-624.5 1376.8,-624.5 1376.8,-624.5 1382.8,-624.5 1388.8,-630.5 1388.8,-636.5 1388.8,-636.5 1388.8,-768.5 1388.8,-768.5 1388.8,-774.5 1382.8,-780.5 1376.8,-780.5 1376.8,-780.5 1226.58,-780.5 1226.58,-780.5 1220.58,-780.5 1214.58,-774.5 1214.58,-768.5 1214.58,-768.5 1214.58,-636.5 1214.58,-636.5 1214.58,-630.5 1220.58,-624.5 1226.58,-624.5"/>
<text text-anchor="middle" x="1301.69" y="-765.3" font-family="Times,serif" font-size="14.00">Photo</text>
<polyline fill="none" stroke="black" points="1214.58,-758.5 1388.8,-758.5 "/>
<text text-anchor="start" x="1222.58" y="-743.3" font-family="Times,serif" font-size="14.00">id :integer</text>
<text text-anchor="start" x="1222.58" y="-729.3" font-family="Times,serif" font-size="14.00">description :string</text>
<text text-anchor="start" x="1222.58" y="-715.3" font-family="Times,serif" font-size="14.00">created_at :datetime</text>
<text text-anchor="start" x="1222.58" y="-701.3" font-family="Times,serif" font-size="14.00">updated_at :datetime</text>
<text text-anchor="start" x="1222.58" y="-687.3" font-family="Times,serif" font-size="14.00">user_id :integer</text>
<text text-anchor="start" x="1222.58" y="-673.3" font-family="Times,serif" font-size="14.00">image_file_name :string</text>
<text text-anchor="start" x="1222.58" y="-659.3" font-family="Times,serif" font-size="14.00">image_content_type :string</text>
<text text-anchor="start" x="1222.58" y="-645.3" font-family="Times,serif" font-size="14.00">image_file_size :integer</text>
<text text-anchor="start" x="1222.58" y="-631.3" font-family="Times,serif" font-size="14.00">image_updated_at :datetime</text>
</g>
<!-- Resource -->
<g id="node8" class="node"><title>Resource</title>
<path fill="none" stroke="black" d="M524.182,-624.5C524.182,-624.5 633.193,-624.5 633.193,-624.5 639.193,-624.5 645.193,-630.5 645.193,-636.5 645.193,-636.5 645.193,-768.5 645.193,-768.5 645.193,-774.5 639.193,-780.5 633.193,-780.5 633.193,-780.5 524.182,-780.5 524.182,-780.5 518.182,-780.5 512.182,-774.5 512.182,-768.5 512.182,-768.5 512.182,-636.5 512.182,-636.5 512.182,-630.5 518.182,-624.5 524.182,-624.5"/>
<text text-anchor="middle" x="578.688" y="-765.3" font-family="Times,serif" font-size="14.00">Resource</text>
<polyline fill="none" stroke="black" points="512.182,-758.5 645.193,-758.5 "/>
<text text-anchor="start" x="520.182" y="-743.3" font-family="Times,serif" font-size="14.00">id :integer</text>
<text text-anchor="start" x="520.182" y="-729.3" font-family="Times,serif" font-size="14.00">title :string</text>
<text text-anchor="start" x="520.182" y="-715.3" font-family="Times,serif" font-size="14.00">url :string</text>
<text text-anchor="start" x="520.182" y="-701.3" font-family="Times,serif" font-size="14.00">focus :string</text>
<text text-anchor="start" x="520.182" y="-687.3" font-family="Times,serif" font-size="14.00">notes :string</text>
<text text-anchor="start" x="520.182" y="-673.3" font-family="Times,serif" font-size="14.00">level :string</text>
<text text-anchor="start" x="520.182" y="-659.3" font-family="Times,serif" font-size="14.00">user_id :integer</text>
<text text-anchor="start" x="520.182" y="-645.3" font-family="Times,serif" font-size="14.00">created_at :datetime</text>
<text text-anchor="start" x="520.182" y="-631.3" font-family="Times,serif" font-size="14.00">updated_at :datetime</text>
</g>
<!-- Teacher -->
<g id="node10" class="node"><title>Teacher</title>
<path fill="none" stroke="black" d="M268.182,-360.5C268.182,-360.5 377.193,-360.5 377.193,-360.5 383.193,-360.5 389.193,-366.5 389.193,-372.5 389.193,-372.5 389.193,-518.5 389.193,-518.5 389.193,-524.5 383.193,-530.5 377.193,-530.5 377.193,-530.5 268.182,-530.5 268.182,-530.5 262.182,-530.5 256.182,-524.5 256.182,-518.5 256.182,-518.5 256.182,-372.5 256.182,-372.5 256.182,-366.5 262.182,-360.5 268.182,-360.5"/>
<text text-anchor="middle" x="322.688" y="-515.3" font-family="Times,serif" font-size="14.00">Teacher</text>
<polyline fill="none" stroke="black" points="256.182,-508.5 389.193,-508.5 "/>
<text text-anchor="start" x="264.182" y="-493.3" font-family="Times,serif" font-size="14.00">id :integer</text>
<text text-anchor="start" x="264.182" y="-479.3" font-family="Times,serif" font-size="14.00">ename :string</text>
<text text-anchor="start" x="264.182" y="-465.3" font-family="Times,serif" font-size="14.00">cname :string</text>
<text text-anchor="start" x="264.182" y="-451.3" font-family="Times,serif" font-size="14.00">dob :date</text>
<text text-anchor="start" x="264.182" y="-437.3" font-family="Times,serif" font-size="14.00">phone :string</text>
<text text-anchor="start" x="264.182" y="-423.3" font-family="Times,serif" font-size="14.00">email :string</text>
<text text-anchor="start" x="264.182" y="-409.3" font-family="Times,serif" font-size="14.00">duration :date</text>
<text text-anchor="start" x="264.182" y="-395.3" font-family="Times,serif" font-size="14.00">group_id :integer</text>
<text text-anchor="start" x="264.182" y="-381.3" font-family="Times,serif" font-size="14.00">created_at :datetime</text>
<text text-anchor="start" x="264.182" y="-367.3" font-family="Times,serif" font-size="14.00">updated_at :datetime</text>
</g>
<!-- Student&#45;&gt;Teacher -->
<g id="edge5" class="edge"><title>Student&#45;&gt;Teacher</title>
<path fill="none" stroke="#74d97c" d="M359.687,-558.82C357.673,-552.704 355.673,-546.634 353.708,-540.67"/>
<polygon fill="#74d97c" stroke="#74d97c" points="359.714,-558.901 358.568,-569.807 361.278,-563.65 362.843,-568.399 362.843,-568.399 362.843,-568.399 361.278,-563.65 367.117,-566.991 359.714,-558.901 359.714,-558.901"/>
<polygon fill="#74d97c" stroke="#74d97c" points="353.566,-540.239 354.712,-529.333 352.002,-535.49 350.438,-530.741 350.438,-530.741 350.438,-530.741 352.002,-535.49 346.163,-532.149 353.566,-540.239 353.566,-540.239"/>
</g>
<!-- Teacher&#45;&gt;Event -->
<g id="edge7" class="edge"><title>Teacher&#45;&gt;Event</title>
<path fill="none" stroke="#6526ae" d="M313.019,-538.976C312.155,-548.769 311.356,-558.585 310.688,-568 302.27,-686.565 297.057,-823.447 294.267,-912.302"/>
<ellipse fill="none" stroke="#6526ae" cx="313.4" cy="-534.749" rx="4" ry="4"/>
<polygon fill="#6526ae" stroke="#6526ae" points="294.266,-912.363 289.458,-922.219 294.111,-917.36 293.956,-922.358 293.956,-922.358 293.956,-922.358 294.111,-917.36 298.454,-922.498 294.266,-912.363 294.266,-912.363"/>
</g>
<!-- Teacher&#45;&gt;Group -->
<g id="edge6" class="edge"><title>Teacher&#45;&gt;Group</title>
<path fill="none" stroke="#5f4367" d="M322.688,-351.991C322.688,-345.648 322.688,-339.285 322.688,-333.013"/>
<ellipse fill="none" stroke="#5f4367" cx="322.688" cy="-356.286" rx="4" ry="4"/>
<polygon fill="#5f4367" stroke="#5f4367" points="322.688,-332.562 327.188,-322.562 322.688,-327.562 322.688,-322.562 322.688,-322.562 322.688,-322.562 322.688,-327.562 318.188,-322.562 322.688,-332.562 322.688,-332.562"/>
</g>
<!-- User -->
<g id="node11" class="node"><title>User</title>
<path fill="none" stroke="black" d="M745.41,-887.5C745.41,-887.5 925.966,-887.5 925.966,-887.5 931.966,-887.5 937.966,-893.5 937.966,-899.5 937.966,-899.5 937.966,-1115.5 937.966,-1115.5 937.966,-1121.5 931.966,-1127.5 925.966,-1127.5 925.966,-1127.5 745.41,-1127.5 745.41,-1127.5 739.41,-1127.5 733.41,-1121.5 733.41,-1115.5 733.41,-1115.5 733.41,-899.5 733.41,-899.5 733.41,-893.5 739.41,-887.5 745.41,-887.5"/>
<text text-anchor="middle" x="835.688" y="-1112.3" font-family="Times,serif" font-size="14.00">User</text>
<polyline fill="none" stroke="black" points="733.41,-1105.5 937.966,-1105.5 "/>
<text text-anchor="start" x="741.41" y="-1090.3" font-family="Times,serif" font-size="14.00">id :integer</text>
<text text-anchor="start" x="741.41" y="-1076.3" font-family="Times,serif" font-size="14.00">name :string</text>
<text text-anchor="start" x="741.41" y="-1062.3" font-family="Times,serif" font-size="14.00">email :string</text>
<text text-anchor="start" x="741.41" y="-1048.3" font-family="Times,serif" font-size="14.00">encrypted_password :string</text>
<text text-anchor="start" x="741.41" y="-1034.3" font-family="Times,serif" font-size="14.00">reset_password_token :string</text>
<text text-anchor="start" x="741.41" y="-1020.3" font-family="Times,serif" font-size="14.00">reset_password_sent_at :datetime</text>
<text text-anchor="start" x="741.41" y="-1006.3" font-family="Times,serif" font-size="14.00">remember_created_at :datetime</text>
<text text-anchor="start" x="741.41" y="-992.3" font-family="Times,serif" font-size="14.00">sign_in_count :integer</text>
<text text-anchor="start" x="741.41" y="-978.3" font-family="Times,serif" font-size="14.00">current_sign_in_at :datetime</text>
<text text-anchor="start" x="741.41" y="-964.3" font-family="Times,serif" font-size="14.00">last_sign_in_at :datetime</text>
<text text-anchor="start" x="741.41" y="-950.3" font-family="Times,serif" font-size="14.00">current_sign_in_ip :string</text>
<text text-anchor="start" x="741.41" y="-936.3" font-family="Times,serif" font-size="14.00">last_sign_in_ip :string</text>
<text text-anchor="start" x="741.41" y="-922.3" font-family="Times,serif" font-size="14.00">created_at :datetime</text>
<text text-anchor="start" x="741.41" y="-908.3" font-family="Times,serif" font-size="14.00">updated_at :datetime</text>
<text text-anchor="start" x="741.41" y="-894.3" font-family="Times,serif" font-size="14.00">admin :boolean</text>
</g>
<!-- User&#45;&gt;LessonPlan -->
<g id="edge9" class="edge"><title>User&#45;&gt;LessonPlan</title>
<path fill="none" stroke="#3f65fe" d="M944.019,-889.412C944.909,-888.602 945.799,-887.798 946.688,-887 974.333,-862.175 987.648,-863.504 1013.69,-837 1027.96,-822.475 1041.73,-805.68 1054.17,-789.008"/>
<ellipse fill="none" stroke="#3f65fe" cx="941.078" cy="-892.125" rx="4.00002" ry="4.00002"/>
<polygon fill="#3f65fe" stroke="#3f65fe" points="1054.25,-788.903 1063.8,-783.508 1057.21,-784.873 1060.17,-780.844 1060.17,-780.844 1060.17,-780.844 1057.21,-784.873 1056.54,-778.18 1054.25,-788.903 1054.25,-788.903"/>
</g>
<!-- User&#45;&gt;Photo -->
<g id="edge8" class="edge"><title>User&#45;&gt;Photo</title>
<path fill="none" stroke="#e91318" d="M945.355,-887.748C945.799,-887.496 946.243,-887.247 946.688,-887 997.947,-858.564 1156.31,-868.585 1205.69,-837 1224.77,-824.795 1241.25,-807.33 1254.9,-789.039"/>
<ellipse fill="none" stroke="#e91318" cx="941.672" cy="-889.963" rx="4.00002" ry="4.00002"/>
<polygon fill="#e91318" stroke="#e91318" points="1255.13,-788.712 1264.62,-783.22 1258.05,-784.653 1260.97,-780.593 1260.97,-780.593 1260.97,-780.593 1258.05,-784.653 1257.32,-777.966 1255.13,-788.712 1255.13,-788.712"/>
</g>
<!-- User&#45;&gt;Resource -->
<g id="edge10" class="edge"><title>User&#45;&gt;Resource</title>
<path fill="none" stroke="#e360e2" d="M727.133,-915.715C701.47,-891.559 675.309,-864.493 653.688,-837 642.249,-822.454 631.485,-805.948 621.876,-789.623"/>
<ellipse fill="none" stroke="#e360e2" cx="730.37" cy="-918.737" rx="4.00002" ry="4.00002"/>
<polygon fill="#e360e2" stroke="#e360e2" points="621.658,-789.247 620.556,-778.337 619.159,-784.917 616.659,-780.586 616.659,-780.586 616.659,-780.586 619.159,-784.917 612.762,-782.836 621.658,-789.247 621.658,-789.247"/>
</g>
<!-- User&#45;&gt;Student -->
<g id="edge11" class="edge"><title>User&#45;&gt;Student</title>
<path fill="none" stroke="#9bf50c" d="M725.638,-966.187C656.638,-937.306 568.598,-893.548 502.688,-837 501.774,-836.216 500.864,-835.421 499.958,-834.617"/>
<ellipse fill="none" stroke="#9bf50c" cx="729.409" cy="-967.752" rx="4.00002" ry="4.00002"/>
<ellipse fill="#9bf50c" stroke="#9bf50c" cx="496.984" cy="-831.879" rx="4.00002" ry="4.00002"/>
</g>
<!-- Mailboxer::Message -->
<g id="node12" class="node"><title>Mailboxer::Message</title>
<ellipse fill="none" stroke="black" cx="745.688" cy="-702.5" rx="82.6045" ry="18"/>
<text text-anchor="middle" x="745.688" y="-698.3" font-family="Times,serif" font-size="14.00">Mailboxer::Message</text>
</g>
<!-- User&#45;&gt;Mailboxer::Message -->
<g id="edge12" class="edge"><title>User&#45;&gt;Mailboxer::Message</title>
<path fill="none" stroke="#4619b9" d="M797.918,-879.34C781.469,-823.963 763.697,-764.131 753.704,-730.489"/>
<ellipse fill="none" stroke="#4619b9" cx="799.108" cy="-883.347" rx="4.00001" ry="4.00001"/>
<polygon fill="#4619b9" stroke="#4619b9" points="753.592,-730.112 755.059,-719.244 752.169,-725.319 750.745,-720.526 750.745,-720.526 750.745,-720.526 752.169,-725.319 746.431,-721.807 753.592,-730.112 753.592,-730.112"/>
<text text-anchor="middle" x="819.126" y="-857.8" font-family="Times,serif" font-size="14.00">messages</text>
</g>
<!-- Mailboxer::Receipt -->
<g id="node13" class="node"><title>Mailboxer::Receipt</title>
<ellipse fill="none" stroke="black" cx="925.688" cy="-702.5" rx="78.7367" ry="18"/>
<text text-anchor="middle" x="925.688" y="-698.3" font-family="Times,serif" font-size="14.00">Mailboxer::Receipt</text>
</g>
<!-- User&#45;&gt;Mailboxer::Receipt -->
<g id="edge13" class="edge"><title>User&#45;&gt;Mailboxer::Receipt</title>
<path fill="none" stroke="#6b8572" d="M873.458,-879.34C889.907,-823.963 907.679,-764.131 917.671,-730.489"/>
<ellipse fill="none" stroke="#6b8572" cx="872.268" cy="-883.347" rx="4.00001" ry="4.00001"/>
<polygon fill="#6b8572" stroke="#6b8572" points="917.783,-730.112 924.944,-721.807 919.207,-725.319 920.631,-720.526 920.631,-720.526 920.631,-720.526 919.207,-725.319 916.317,-719.244 917.783,-730.112 917.783,-730.112"/>
<text text-anchor="middle" x="902.453" y="-857.8" font-family="Times,serif" font-size="14.00">receipts</text>
</g>
</g>
</svg>
